{"glyphs":{"0":{"ha":685,"x_min":37,"x_max":648,"o":"m 340 -18 q 149 114 233 26 q 37 404 37 231 q 340 889 37 683 q 547 746 473 836 q 648 461 648 624 q 544 159 648 307 q 340 -18 468 52 m 446 110 q 545 358 545 210 q 510 529 545 450 q 412 664 475 608 q 229 760 331 734 q 162 631 186 701 q 138 492 138 561 q 260 218 138 334 q 446 110 330 152 z "},"1":{"ha":685,"x_min":158,"x_max":550,"o":"m 158 759 l 307 889 q 385 823 359 858 q 409 771 405 798 q 415 676 415 746 l 415 202 q 420 136 415 146 q 465 95 429 119 l 527 144 l 550 119 l 384 -18 l 229 91 l 275 144 l 275 633 q 268 716 275 700 q 221 768 255 745 l 179 734 l 158 759 z "},"2":{"ha":685,"x_min":16,"x_max":614,"o":"m 37 680 l 294 889 l 591 703 q 594 651 594 669 q 503 422 594 518 q 311 273 437 354 q 172 175 215 212 q 108 110 137 146 q 360 164 248 164 q 614 116 472 164 l 496 -18 q 272 37 389 37 q 32 -18 151 37 l 16 -7 q 81 138 31 66 q 243 312 128 205 q 378 458 339 402 q 444 656 444 553 q 414 760 444 717 q 383 794 404 774 l 132 588 l 37 680 z "},"3":{"ha":685,"x_min":16,"x_max":613,"o":"m 16 193 l 117 288 l 389 65 q 452 210 452 96 q 387 394 452 326 q 241 451 332 451 q 168 448 219 451 l 168 492 q 257 503 230 497 q 309 522 284 509 q 420 741 420 581 q 380 801 420 801 q 349 791 366 801 q 290 749 331 781 l 158 650 l 77 740 l 275 889 l 578 752 q 579 722 579 732 q 506 538 579 611 q 397 473 466 499 q 542 403 486 452 q 594 334 574 374 q 613 252 613 293 q 571 134 613 188 q 448 43 528 81 q 267 -18 394 17 l 16 193 z "},"4":{"ha":685,"x_min":31,"x_max":645,"o":"m 357 274 l 58 274 l 31 402 l 387 890 q 463 842 439 871 q 487 793 481 820 q 492 701 492 772 l 492 393 l 621 393 l 645 274 l 492 274 l 492 135 l 507 127 q 553 109 541 109 q 603 135 564 109 l 621 111 l 459 -18 l 310 82 l 357 146 l 357 274 m 357 393 l 357 646 q 347 724 357 704 q 321 752 338 742 l 60 393 l 357 393 z "},"5":{"ha":685,"x_min":33,"x_max":606,"o":"m 33 130 l 128 238 l 412 76 q 490 236 490 136 q 465 347 490 294 q 393 434 439 399 q 268 494 344 471 l 87 373 l 175 870 l 561 870 l 509 736 l 183 736 l 132 442 l 395 617 q 516 541 472 578 q 582 447 558 503 q 606 330 606 391 q 538 131 606 221 q 348 3 480 56 q 289 -18 328 -5 l 33 130 z "},"6":{"ha":685,"x_min":47,"x_max":637,"o":"m 602 764 l 507 652 l 279 776 q 175 430 175 610 q 175 406 175 421 l 465 580 q 637 350 637 505 q 515 106 637 220 q 343 -18 458 54 q 155 96 227 22 q 47 366 47 208 q 106 601 47 484 q 290 819 163 713 q 378 889 326 850 l 602 764 m 179 372 q 276 195 191 274 q 454 96 361 118 q 528 267 528 170 q 451 409 528 342 q 346 473 404 450 l 179 372 z "},"7":{"ha":685,"x_min":69,"x_max":663,"o":"m 69 627 l 191 870 l 663 870 l 660 833 q 346 48 359 520 l 161 -18 q 534 739 169 343 l 340 739 q 202 728 229 739 q 104 627 142 705 l 69 627 z "},"8":{"ha":685,"x_min":56,"x_max":632,"o":"m 367 -17 q 333 -18 345 -18 q 125 52 214 -18 q 56 195 56 106 q 183 410 56 301 q 70 558 70 450 q 159 759 70 644 q 276 888 204 816 q 322 890 302 890 q 507 851 436 890 q 597 712 597 802 q 547 592 597 647 q 475 530 520 564 q 563 477 526 512 q 632 322 632 412 q 517 102 632 207 q 367 -17 481 69 m 201 754 q 162 656 162 705 q 199 585 162 613 q 276 560 225 565 q 428 539 386 548 q 498 644 498 591 q 433 731 498 708 q 315 751 390 746 q 201 754 279 753 m 222 401 q 153 279 153 337 q 214 177 153 216 q 401 127 290 127 q 532 168 488 127 q 569 247 569 201 q 487 352 569 314 q 378 380 453 368 q 292 392 360 382 q 222 401 223 402 z "},"9":{"ha":685,"x_min":52,"x_max":634,"o":"m 92 106 l 186 224 l 410 103 q 469 218 448 159 q 508 415 508 323 q 506 460 508 430 l 222 286 q 52 530 52 372 q 151 749 52 651 q 340 889 218 816 q 541 753 474 832 q 634 486 634 644 q 607 317 634 394 q 522 163 581 241 q 328 -18 454 76 l 92 106 m 498 498 q 389 682 481 602 q 225 766 307 751 q 187 718 203 745 q 160 621 160 669 q 229 472 160 542 q 337 399 273 428 l 498 498 z "}," ":{"ha":378,"x_min":0,"x_max":0,"o":""},"!":{"ha":397,"x_min":83,"x_max":313,"o":"m 83 748 l 196 861 l 313 743 q 215 225 222 530 l 181 225 q 83 748 165 544 m 97 81 l 196 180 l 295 81 l 196 -18 l 97 81 z "},"\"":{"ha":484,"x_min":28,"x_max":456,"o":"m 28 842 l 119 935 l 214 839 q 134 518 142 720 l 107 518 q 84 689 102 601 q 46 806 69 756 q 28 842 37 823 m 269 842 l 361 935 l 456 839 q 376 518 384 720 l 349 518 q 326 689 345 601 q 288 806 311 756 q 269 842 279 823 z "},"#":{"ha":560,"x_min":14,"x_max":551,"o":"m 14 -3 l 190 247 l 61 318 l 61 564 q 243 685 180 600 q 422 635 340 635 q 473 649 451 635 q 491 681 491 660 q 475 714 491 694 q 460 751 460 732 q 471 779 460 768 q 501 791 482 791 q 539 773 526 791 q 551 735 551 759 q 541 687 551 707 q 492 606 526 653 l 374 443 l 517 360 l 517 90 q 325 -18 411 62 q 169 36 242 36 q 31 -18 98 36 l 14 -3 m 377 287 l 295 332 l 148 123 q 242 141 202 141 q 377 99 300 141 l 377 287 m 197 392 l 266 352 l 397 536 q 346 533 363 533 q 197 578 264 533 l 197 392 z "},"$":{"ha":694,"x_min":58,"x_max":636,"o":"m 326 151 l 326 429 l 179 351 q 117 419 144 383 q 72 496 83 466 q 58 585 58 532 q 110 750 58 677 q 244 851 160 821 q 326 866 286 866 l 326 974 l 369 998 l 363 865 q 468 848 422 863 q 572 810 560 817 l 522 695 l 363 741 l 363 484 l 553 582 q 611 492 599 522 q 636 353 636 429 q 537 123 636 235 q 396 0 469 46 l 363 9 q 369 -83 365 -36 l 326 -111 q 328 -44 328 -67 q 326 18 328 -25 l 62 89 l 132 205 l 326 151 m 363 140 l 478 108 q 509 154 495 126 q 543 279 543 227 q 514 393 543 338 q 433 486 493 433 l 363 450 l 363 140 m 326 751 l 192 789 q 166 734 176 769 q 157 666 157 699 q 215 511 157 578 q 290 446 254 467 l 326 464 l 326 751 z "},"%":{"ha":719,"x_min":46,"x_max":673,"o":"m 203 438 q 46 650 46 505 q 108 812 46 735 q 193 889 143 854 q 296 822 256 867 q 349 679 349 760 q 300 526 349 600 q 203 438 262 470 m 255 518 q 284 618 284 562 q 240 743 284 691 q 142 806 206 783 q 112 696 112 756 q 160 580 112 635 q 255 518 197 537 m 114 13 l 562 881 l 605 858 l 158 -10 l 114 13 m 526 -18 q 370 193 370 48 q 516 433 370 331 q 619 366 580 411 q 673 222 673 303 q 624 70 673 143 q 526 -18 586 14 m 578 62 q 608 162 608 106 q 564 287 608 235 q 465 349 530 327 q 435 239 435 300 q 483 123 435 178 q 578 62 522 80 z "},"&":{"ha":1004,"x_min":28,"x_max":977,"o":"m 224 -18 l 28 274 l 342 479 l 258 629 q 220 736 220 697 q 237 781 220 764 q 315 826 253 797 l 562 944 q 686 762 686 871 q 621 627 686 682 q 474 525 574 587 l 607 288 l 814 433 q 938 370 883 370 q 963 375 949 370 l 977 358 q 851 292 928 292 q 739 342 792 292 l 623 261 q 690 153 656 195 q 827 83 745 83 q 942 128 891 83 l 963 115 q 770 -19 907 -19 q 626 24 690 -19 q 568 83 593 45 q 509 182 564 90 l 224 -18 m 317 83 l 494 208 l 357 452 l 155 321 l 317 83 m 458 554 q 515 594 490 573 q 557 637 543 618 q 578 709 578 667 q 541 807 578 768 q 459 843 506 843 q 382 815 417 843 q 352 766 352 791 q 375 701 352 741 l 458 554 z "},"'":{"ha":241,"x_min":28,"x_max":214,"o":"m 28 842 l 119 935 l 214 839 q 134 518 142 720 l 107 518 q 84 689 102 601 q 46 806 69 756 q 28 842 37 823 z "},"(":{"ha":417,"x_min":36,"x_max":415,"o":"m 302 -220 q 125 -30 184 -136 q 36 313 36 130 q 152 721 36 530 q 400 991 242 870 l 415 972 q 309 855 343 897 q 158 411 158 665 q 247 41 158 195 q 387 -113 284 -24 l 302 -220 z "},")":{"ha":417,"x_min":1,"x_max":380,"o":"m 115 991 q 220 901 180 943 q 292 801 259 859 q 380 459 380 641 q 264 50 380 242 q 16 -220 172 -102 l 1 -201 q 107 -84 73 -126 q 258 360 258 106 q 170 730 258 575 q 30 884 132 795 l 115 991 z "},"*":{"ha":526,"x_min":56,"x_max":471,"o":"m 264 944 l 322 900 q 284 759 286 818 q 344 787 307 765 q 409 835 380 809 l 471 792 l 441 722 q 357 728 383 728 q 298 720 332 728 q 350 665 325 684 q 404 623 397 629 l 380 555 l 306 560 q 290 631 296 610 q 264 692 282 660 q 216 560 231 642 l 144 555 l 121 629 q 231 722 186 663 q 166 728 195 728 q 84 722 136 728 l 56 788 l 113 835 q 171 795 150 809 q 244 762 203 775 q 203 900 237 831 l 264 944 z "},"+":{"ha":685,"x_min":106,"x_max":578,"o":"m 312 512 l 312 699 l 373 699 l 373 512 l 578 512 l 530 414 l 373 414 l 373 227 l 312 227 l 312 414 l 106 414 l 157 512 l 312 512 z "},",":{"ha":324,"x_min":64,"x_max":260,"o":"m 260 92 q 189 -50 245 18 q 75 -130 144 -104 l 64 -100 q 125 -9 125 -50 q 92 61 125 22 q 64 89 83 71 l 161 190 l 260 92 z "},"-":{"ha":318,"x_min":0,"x_max":318,"o":"m 50 408 l 318 408 q 268 296 288 353 l 0 296 q 50 408 28 352 z "},".":{"ha":324,"x_min":62,"x_max":262,"o":"m 62 81 l 162 182 l 262 81 l 162 -18 l 62 81 z "},"/":{"ha":721,"x_min":-9,"x_max":661,"o":"m -9 -179 l 602 1006 l 661 975 l 50 -210 l -9 -179 z "},":":{"ha":324,"x_min":62,"x_max":262,"o":"m 62 81 l 162 182 l 262 81 l 162 -18 l 62 81 m 62 492 l 162 593 l 262 492 l 162 392 l 62 492 z "},";":{"ha":324,"x_min":64,"x_max":262,"o":"m 64 492 l 162 593 l 262 492 l 162 392 l 64 492 m 260 92 q 189 -50 245 18 q 75 -130 144 -104 l 64 -100 q 125 -9 125 -50 q 92 61 125 22 q 64 89 83 71 l 162 190 l 260 92 z "},"<":{"ha":694,"x_min":46,"x_max":648,"o":"m 648 817 l 648 686 l 186 469 l 648 252 l 648 122 l 46 414 l 46 526 l 648 817 z "},"=":{"ha":685,"x_min":106,"x_max":578,"o":"m 106 507 l 157 604 l 578 604 l 530 507 l 106 507 m 106 321 l 157 419 l 578 419 l 530 321 l 106 321 z "},">":{"ha":694,"x_min":47,"x_max":648,"o":"m 47 121 l 47 252 l 508 469 l 47 686 l 47 817 l 648 525 l 648 413 l 47 121 z "},"?":{"ha":444,"x_min":46,"x_max":398,"o":"m 46 692 l 144 861 q 290 834 237 860 q 398 668 398 781 q 358 553 398 612 q 298 476 339 524 q 223 364 240 410 q 199 229 208 319 l 172 229 q 172 255 172 245 q 192 406 172 336 q 240 532 197 425 q 259 624 259 579 q 218 706 259 674 q 155 728 189 728 q 62 682 112 728 l 46 692 m 85 80 l 182 178 l 281 80 l 182 -18 l 85 80 z "},"@":{"ha":1023,"x_min":80,"x_max":944,"o":"m 833 165 q 484 -14 645 -14 q 289 48 386 -14 q 128 234 181 117 q 80 471 80 340 q 111 673 80 567 l 513 939 q 787 805 664 911 q 920 623 880 726 q 944 511 944 560 q 906 420 944 460 q 735 295 845 357 q 570 225 665 256 q 532 269 544 250 q 515 326 519 292 l 391 225 q 319 349 319 282 q 351 446 319 397 q 407 518 370 476 l 327 662 q 351 661 342 661 q 460 700 408 661 q 587 659 543 659 q 629 680 607 659 l 642 671 q 614 619 622 642 q 608 534 608 598 l 608 372 q 614 315 608 326 q 639 303 621 303 q 700 322 663 303 q 768 368 737 340 q 823 477 823 417 q 809 562 823 515 q 772 645 794 609 q 696 727 745 688 q 597 786 648 766 q 422 835 548 805 l 179 667 q 170 528 170 570 q 266 237 170 366 q 371 138 311 178 q 547 82 454 82 q 713 128 631 82 q 802 195 747 147 l 833 165 m 515 463 l 417 505 q 396 405 396 455 q 455 300 396 351 l 515 349 l 515 463 m 515 593 l 356 645 l 426 520 l 515 481 l 515 593 z "},"A":{"ha":873,"x_min":37,"x_max":878,"o":"m 878 111 l 720 -23 q 644 52 661 14 q 631 161 633 79 l 397 -23 q 228 81 302 43 q 127 114 161 114 q 105 105 115 114 q 96 84 96 96 q 112 49 96 73 q 125 14 125 29 q 115 -9 125 0 q 90 -19 105 -19 q 54 2 67 -19 q 42 42 42 20 q 55 96 42 71 q 113 190 74 133 l 214 335 q 115 421 156 372 q 37 616 37 513 q 151 857 37 755 q 390 949 254 949 q 590 899 493 949 q 687 838 627 881 q 750 898 731 882 q 832 943 781 923 l 846 920 q 770 860 792 889 q 741 745 741 823 q 741 692 741 714 l 764 222 q 775 128 767 143 q 805 104 787 104 q 856 135 819 104 l 878 111 m 624 308 l 230 308 l 176 230 l 494 95 l 629 200 l 624 308 m 603 736 q 556 774 581 758 l 298 406 l 617 406 l 603 736 m 422 636 q 345 663 381 663 q 268 631 299 663 q 248 608 260 623 l 224 618 q 386 749 274 749 q 491 733 433 749 l 530 790 q 361 834 453 834 q 172 768 250 834 q 90 600 90 701 q 146 448 90 521 q 234 366 182 401 l 422 636 z "},"B":{"ha":1031,"x_min":9,"x_max":985,"o":"m 777 944 l 966 689 l 818 579 l 985 498 l 985 479 q 967 463 973 473 q 961 407 961 454 l 961 142 q 741 80 859 130 q 585 -19 651 41 q 503 27 538 12 q 326 64 423 64 q 136 14 201 64 q 106 -37 106 -9 q 125 -80 106 -50 q 132 -102 132 -90 q 120 -129 132 -117 q 95 -140 109 -140 q 55 -116 69 -140 q 46 -81 46 -100 q 82 10 46 -35 q 137 66 93 23 q 229 204 229 153 q 207 248 229 229 q 168 263 191 263 q 100 201 116 263 l 75 201 q 119 309 75 264 q 224 344 153 341 q 212 419 225 391 q 178 459 201 444 q 125 475 154 475 q 41 418 65 475 l 14 424 q 31 481 20 457 q 151 564 67 564 q 214 556 174 564 q 222 631 217 600 q 387 833 239 739 q 260 810 305 810 q 170 824 220 810 q 117 833 136 833 q 52 789 73 833 q 41 750 45 775 l 9 750 q 48 867 18 821 q 180 939 95 939 q 265 928 218 939 q 345 910 334 912 q 410 904 374 904 q 558 941 478 904 l 580 909 q 427 816 483 867 q 363 720 378 769 q 353 606 353 688 l 353 362 q 340 243 352 277 q 252 120 317 180 q 358 180 317 144 q 412 254 399 216 q 431 382 430 300 l 431 583 q 467 778 431 722 q 659 901 509 843 q 777 944 707 920 m 651 131 q 708 104 679 119 q 823 147 779 134 l 823 242 q 741 256 781 256 q 651 242 700 256 l 651 131 m 651 275 q 741 288 704 288 q 823 275 778 288 l 823 372 q 734 358 772 358 q 651 372 696 358 l 651 275 m 651 403 q 736 388 694 388 q 823 406 782 388 l 823 433 l 701 493 l 651 455 l 651 403 m 621 659 l 651 659 l 651 492 l 848 639 l 677 872 q 602 828 627 855 q 572 768 577 802 q 568 699 568 741 l 568 444 q 551 309 567 351 q 444 189 519 235 q 368 144 420 174 q 489 161 437 161 q 621 140 551 161 l 621 659 z "},"C":{"ha":857,"x_min":33,"x_max":857,"o":"m 842 251 l 857 234 q 454 -14 699 -14 q 142 128 268 -14 q 33 429 33 252 q 163 751 33 611 q 323 871 228 822 l 335 856 q 233 758 271 802 q 144 510 144 655 q 218 276 144 388 q 256 315 245 294 q 270 419 269 342 l 270 713 l 541 944 q 835 871 689 867 l 709 751 q 505 821 610 768 l 505 125 q 629 141 563 124 q 842 251 750 174 m 475 836 l 406 774 l 406 562 q 395 418 405 441 q 293 297 372 363 l 237 250 q 475 127 331 137 l 475 836 z "},"D":{"ha":1023,"x_min":9,"x_max":958,"o":"m 958 123 l 755 -19 q 433 32 586 32 q 159 -24 285 32 q 83 -62 124 -39 l 66 -35 q 224 60 75 -29 q 403 226 362 146 q 424 288 420 257 q 427 398 427 296 l 427 496 q 432 638 427 614 q 471 743 442 696 q 386 693 419 732 q 351 623 355 654 q 346 486 346 593 l 346 390 q 340 284 346 319 q 315 217 334 250 q 47 -16 270 131 l 29 9 q 130 90 94 56 q 193 220 193 149 q 155 307 193 275 q 96 330 127 330 q 29 298 62 330 l 9 311 q 150 412 61 412 q 213 398 176 412 q 220 511 214 466 q 294 671 232 616 q 397 741 328 702 q 231 735 269 735 q 87 764 134 735 q 25 905 26 802 q 25 926 25 909 l 43 926 q 85 876 59 888 q 188 863 114 863 q 283 866 218 863 q 555 874 448 874 q 800 815 719 874 q 916 625 886 753 q 958 123 955 461 m 564 154 q 692 139 667 144 q 821 107 719 134 q 818 262 821 187 q 693 310 748 310 q 564 265 631 310 l 564 154 m 564 298 q 694 340 636 340 q 817 301 747 340 q 807 465 814 384 q 684 427 737 427 q 564 465 623 427 l 564 298 m 564 503 q 683 460 631 460 q 804 503 741 460 q 786 611 799 567 q 711 711 766 676 q 564 747 673 736 l 564 503 m 534 747 q 523 748 526 748 q 511 747 519 748 q 471 663 483 710 q 461 595 462 627 q 460 493 460 572 l 460 377 q 450 257 460 291 q 370 134 427 184 q 534 155 438 151 l 534 747 z "},"E":{"ha":880,"x_min":33,"x_max":862,"o":"m 507 539 l 507 130 q 524 130 518 130 q 852 252 687 130 l 862 238 q 749 101 813 155 q 469 -5 625 -5 q 298 32 380 -5 q 155 134 216 68 q 64 286 97 197 q 33 460 33 371 q 69 639 33 555 q 174 785 106 723 q 332 892 237 842 l 345 869 q 145 538 145 736 q 222 292 145 404 q 256 328 247 315 q 273 416 272 351 l 273 736 l 545 954 q 797 879 696 879 q 832 881 808 879 l 841 861 l 646 663 l 805 659 l 732 531 l 507 539 m 507 565 l 704 763 q 507 834 596 781 l 507 565 m 477 849 l 406 790 l 406 506 q 392 416 405 441 q 315 333 378 387 l 239 269 q 477 132 323 153 l 477 849 z "},"F":{"ha":865,"x_min":-65,"x_max":903,"o":"m 800 660 l 762 562 l 624 562 l 624 263 q 608 125 623 156 q 536 40 589 78 q 368 -50 484 1 l 164 -140 q 140 -130 146 -132 q 20 -83 47 -83 q -38 -140 -18 -83 l -65 -132 q -42 -60 -58 -93 q 66 20 -2 20 q 194 -21 111 20 q 255 -54 216 -32 q 278 -26 271 -42 q 289 125 288 -5 l 289 562 q 143 543 193 562 q 46 474 81 517 l 28 490 q 117 618 67 582 q 235 657 163 651 q 289 660 254 659 l 289 768 q 494 823 414 783 q 629 944 589 873 q 686 906 663 919 q 781 876 738 876 q 882 944 840 876 l 903 941 q 871 842 897 882 q 747 772 827 772 q 624 803 694 772 l 624 660 l 800 660 m 497 776 q 416 748 458 759 l 416 273 q 407 113 416 147 q 311 -39 394 54 q 437 58 389 4 q 488 140 475 100 q 497 252 496 168 l 497 776 z "},"G":{"ha":960,"x_min":33,"x_max":928,"o":"m 875 844 l 665 675 q 834 616 770 668 q 928 415 928 541 q 858 215 928 314 q 574 12 754 70 q 411 -14 492 -14 q 139 86 246 -14 q 33 336 33 186 q 70 506 33 425 q 184 664 107 587 q 515 944 262 743 q 810 852 682 852 q 867 859 833 852 l 875 844 m 418 524 l 691 741 q 418 831 563 772 l 418 524 m 498 523 q 418 477 456 504 l 418 373 q 408 298 417 315 q 319 214 399 278 l 258 166 q 358 87 294 121 q 498 47 430 50 l 498 523 m 528 48 q 684 96 616 52 q 773 193 745 138 q 658 224 711 224 q 528 181 592 224 l 528 48 m 528 220 q 656 256 593 256 q 788 220 718 256 q 819 350 819 288 q 683 309 749 309 q 528 350 608 309 l 528 220 m 528 387 q 675 338 599 338 q 816 387 751 338 q 774 480 806 442 q 616 553 711 553 q 528 535 579 553 l 528 387 m 281 708 q 162 422 162 585 q 237 191 162 302 q 267 233 260 218 q 279 278 277 253 q 281 350 281 304 l 281 708 z "},"H":{"ha":1032,"x_min":9,"x_max":977,"o":"m 738 175 l 601 -18 q 332 52 454 52 q 171 16 232 52 q 119 -50 119 -14 q 135 -85 119 -59 q 143 -116 143 -99 q 109 -151 143 -151 q 73 -127 85 -151 q 64 -92 64 -111 q 96 -8 64 -50 q 152 49 104 3 q 219 135 192 87 q 238 194 238 168 q 222 233 238 218 q 191 246 209 246 q 135 194 158 246 l 113 199 q 237 326 127 324 q 224 402 234 374 q 190 447 214 430 q 136 465 165 465 q 47 414 85 465 l 27 423 q 98 521 47 492 q 217 543 131 539 q 250 714 218 652 q 347 821 280 774 q 268 810 290 810 q 198 820 241 810 q 125 833 144 833 q 35 748 59 833 l 9 755 q 51 859 22 818 q 114 912 76 892 q 191 932 151 932 q 277 916 214 932 q 376 901 338 901 q 528 944 429 901 l 538 916 q 410 836 458 877 q 357 749 367 799 q 351 662 351 728 l 351 347 q 328 197 351 243 q 284 119 317 173 q 384 199 346 156 q 429 294 420 242 q 435 366 435 321 l 435 610 q 463 795 435 751 q 629 909 500 857 q 728 944 675 927 l 738 916 q 612 850 659 884 q 570 798 579 826 q 563 726 563 783 l 563 565 l 793 759 q 897 677 866 711 q 966 530 953 616 q 977 385 977 467 q 969 256 977 303 q 943 174 962 209 q 884 101 924 136 q 754 -12 868 86 q 692 -87 692 -65 q 718 -110 692 -110 q 742 -102 723 -110 q 751 -100 745 -100 q 776 -110 766 -100 q 785 -136 785 -120 q 766 -172 785 -157 q 730 -182 751 -182 q 671 -157 694 -182 q 652 -105 652 -136 q 685 -15 652 -64 q 747 64 694 -1 q 844 277 848 191 q 707 307 764 307 q 550 268 635 307 q 475 221 510 249 q 384 143 473 219 q 549 135 466 143 q 618 131 608 131 q 686 161 656 131 q 713 194 696 172 l 738 175 m 563 307 q 716 334 661 334 q 844 307 767 334 q 845 383 845 358 q 844 460 845 409 q 711 432 788 432 q 563 460 637 432 l 563 307 m 563 493 q 701 463 629 463 q 848 498 787 463 q 816 581 842 548 q 723 660 783 621 l 563 528 l 563 493 z "},"I":{"ha":720,"x_min":-20,"x_max":724,"o":"m -3 -15 l -20 -9 q 49 111 2 70 q 141 157 88 147 q 212 162 155 159 q 282 177 263 164 q 319 281 319 203 q 283 429 319 373 q 190 486 248 486 q 95 447 142 486 l 83 455 q 239 566 142 566 q 278 561 254 566 q 413 871 278 744 q 289 840 330 840 q 204 852 272 840 q 166 856 186 856 q 100 832 125 856 q 71 785 85 818 l 55 789 q 77 861 60 831 q 139 922 100 900 q 222 944 178 944 q 304 930 248 944 q 414 915 370 915 q 510 938 463 915 l 522 922 q 433 819 460 871 q 400 666 400 755 q 414 474 400 596 q 431 292 431 337 q 354 154 431 184 q 261 136 320 140 q 339 73 292 117 q 385 38 366 47 q 431 29 404 29 q 519 78 488 29 q 536 156 536 106 q 511 417 536 234 q 489 631 489 574 q 566 870 489 798 q 711 933 621 922 l 724 911 q 652 884 671 895 q 598 765 598 852 q 619 566 598 711 q 646 280 646 374 q 588 75 646 153 q 404 -18 519 -18 q 233 25 349 -18 q 100 60 140 60 q -3 -15 38 60 z "},"J":{"ha":768,"x_min":-18,"x_max":814,"o":"m 3 -172 l -18 -162 q 12 -88 -6 -115 q 147 -14 60 -14 q 227 -28 175 -14 q 298 -39 271 -39 q 364 -12 335 -39 q 400 71 400 22 q 349 208 400 139 q 271 278 316 252 q 181 304 226 304 q 129 296 161 304 l 117 315 q 237 361 172 361 q 343 328 283 361 q 307 429 333 390 q 245 479 283 462 q 201 488 222 488 q 129 469 173 488 l 117 490 q 246 550 176 550 q 353 513 299 550 q 409 692 353 618 q 553 815 458 757 q 414 794 470 794 q 274 820 364 794 q 177 836 215 836 q 87 810 120 836 q 64 767 64 790 q 77 752 64 752 q 90 758 81 752 q 121 770 106 770 q 160 751 143 770 q 174 713 174 736 q 146 659 174 678 q 105 646 126 646 q 39 688 62 646 q 25 745 25 713 q 92 881 25 821 q 245 939 157 939 q 416 918 300 939 q 620 889 566 889 q 796 956 706 889 l 814 932 q 705 789 736 850 q 671 611 671 723 q 677 472 671 581 q 682 356 682 404 q 646 144 682 232 q 458 -83 592 10 q 254 -157 351 -157 q 141 -135 211 -157 q 81 -123 102 -123 q 3 -172 40 -123 m 342 -89 q 505 25 448 -66 q 545 218 545 90 q 543 351 545 246 q 542 404 542 378 q 551 597 542 522 q 604 746 562 678 q 705 871 639 804 q 537 736 605 823 q 458 422 458 637 q 461 287 458 399 q 463 177 463 235 q 454 60 463 102 q 425 -15 446 19 q 342 -89 401 -53 z "},"K":{"ha":979,"x_min":-9,"x_max":992,"o":"m 992 119 l 853 -18 q 782 57 810 16 q 724 154 758 94 l 570 -18 q 309 47 437 47 q 43 -18 185 47 l 22 12 q 229 256 229 165 q 199 318 229 293 q 158 334 180 334 q 110 311 132 334 l 87 319 q 192 403 118 403 q 277 363 234 403 q 278 397 278 385 q 244 500 278 461 q 149 547 204 547 q 87 522 118 547 l 66 526 q 180 616 100 616 q 271 581 218 616 q 271 609 271 599 q 320 760 271 696 q 425 870 355 805 q 265 819 313 819 q 199 826 248 819 q 151 830 173 830 q 18 733 56 830 l -9 741 q 23 833 0 793 q 197 939 85 939 q 293 924 238 939 q 382 908 352 908 q 494 947 445 908 l 507 935 q 442 788 462 850 q 408 523 408 677 q 408 461 408 511 q 409 411 409 437 q 373 264 409 317 q 289 183 355 239 l 149 66 l 283 130 q 397 197 365 169 q 466 322 454 245 q 471 393 471 350 q 469 478 471 406 q 469 505 469 489 q 489 726 469 640 q 587 944 519 859 l 610 925 q 502 604 513 780 l 739 793 l 882 616 l 635 447 q 756 342 710 402 q 872 163 807 277 q 925 106 904 106 q 973 141 938 106 l 992 119 m 708 182 q 502 363 621 333 q 473 243 498 288 q 382 148 446 191 q 510 138 463 148 q 630 94 570 126 l 708 182 m 502 393 l 755 566 l 658 687 l 502 563 q 501 479 501 507 q 502 393 501 450 z "},"L":{"ha":834,"x_min":9,"x_max":858,"o":"m 858 127 l 702 -18 q 419 84 570 84 q 83 -18 264 84 l 66 9 q 207 127 159 68 q 254 243 254 186 q 229 308 254 279 q 168 336 204 336 q 131 327 151 336 l 117 342 q 193 386 155 386 q 262 362 225 386 q 250 429 261 403 q 161 487 227 487 q 100 467 129 487 l 83 481 q 199 545 135 545 q 247 537 217 545 q 244 585 244 565 q 281 744 244 680 q 354 829 300 779 q 237 810 286 810 q 165 824 208 810 q 104 838 125 838 q 50 808 67 838 q 42 772 42 792 q 45 746 42 762 l 20 735 q 9 789 9 766 q 57 897 9 852 q 161 940 101 940 q 261 916 194 940 q 347 897 315 897 q 469 935 395 897 l 481 914 q 402 842 428 874 q 363 716 363 791 q 372 612 363 691 q 384 441 384 505 q 317 205 384 319 q 266 130 298 174 q 456 467 456 260 q 441 654 456 513 q 438 708 438 679 q 484 852 438 795 q 674 935 548 933 q 697 935 680 935 l 711 904 q 621 879 654 897 q 565 773 565 848 q 570 700 565 746 q 583 519 583 586 q 515 306 583 388 q 354 153 463 245 q 525 184 452 184 q 772 95 665 184 l 834 153 l 858 127 z "},"M":{"ha":1192,"x_min":-18,"x_max":1192,"o":"m 1192 104 l 1040 -19 q 975 41 998 10 q 951 91 956 66 q 945 189 945 115 l 945 779 l 852 852 l 819 829 l 819 523 l 896 523 l 819 420 l 819 161 l 866 201 l 888 179 l 664 -19 q 518 117 602 55 l 518 134 q 545 153 537 146 q 558 178 555 164 q 562 235 562 192 l 562 423 l 389 423 l 389 161 q 349 -5 389 46 q 266 -63 319 -44 q 197 -76 230 -76 q 118 -71 178 -76 q 79 -68 97 -68 q 10 -127 22 -68 l -18 -127 q -18 -110 -18 -116 q 23 9 -18 -26 q 111 37 50 31 q 194 65 167 44 q 239 179 239 100 q 193 324 239 262 q 102 376 153 376 q 50 355 72 376 q 31 334 43 349 l 7 351 q 176 462 50 447 q 199 622 177 562 q 400 831 239 734 q 597 940 467 869 q 679 865 657 907 q 696 776 694 836 l 930 944 l 1074 829 q 1130 886 1100 859 l 1154 865 q 1116 816 1131 840 q 1095 770 1098 787 q 1088 652 1088 759 l 1088 203 q 1091 138 1088 152 q 1130 98 1097 115 l 1169 129 l 1192 104 m 790 423 l 699 423 l 699 267 q 703 171 699 202 q 728 128 707 145 q 751 121 738 121 q 790 141 771 121 l 790 423 m 699 523 l 790 523 l 790 808 l 699 743 l 699 523 m 562 523 l 562 684 q 557 780 562 765 q 500 850 547 820 q 430 796 454 822 q 397 734 404 768 q 389 621 389 699 l 389 444 l 446 523 l 562 523 m 210 37 q 253 34 238 34 q 342 76 316 34 q 359 208 359 104 l 359 619 q 366 729 359 696 q 381 775 370 751 q 330 719 345 747 q 311 650 313 687 q 307 528 307 616 l 307 259 q 295 121 307 151 q 241 52 279 73 q 210 37 233 46 z "},"N":{"ha":1096,"x_min":-120,"x_max":1096,"o":"m 1096 186 l 981 -16 q 850 17 912 17 q 699 -50 758 17 q 669 -96 683 -68 l 637 -85 q 749 138 659 -20 q 858 345 819 256 q 793 380 819 369 q 686 405 739 405 q 497 351 580 405 l 497 219 q 487 102 497 146 q 450 19 476 58 q 352 -64 414 -35 q 234 -91 298 -91 q 162 -83 195 -91 q 93 -62 143 -77 q 10 -48 47 -48 q -102 -80 -47 -48 l -120 -64 q 59 47 -49 47 q 198 28 103 47 q 222 26 209 26 q 279 43 258 26 q 309 119 309 68 q 266 214 309 174 q 180 250 227 250 q 101 222 144 250 l 84 239 q 195 304 132 304 q 285 277 235 304 q 125 413 252 413 q 51 395 85 413 l 37 414 q 155 472 90 472 q 272 425 213 472 q 251 508 267 478 q 201 563 235 541 q 127 585 165 585 q 51 564 94 585 l 37 581 q 157 642 86 642 q 272 606 203 642 l 272 739 l 689 944 q 914 836 828 912 q 1027 595 1027 735 q 928 313 1027 475 q 779 104 922 302 q 941 127 850 127 q 1019 121 979 127 l 1064 197 l 1096 186 m 497 388 q 675 435 597 435 q 868 374 778 435 q 902 536 902 466 q 897 583 902 555 q 679 510 787 510 q 497 560 595 510 l 497 388 m 497 599 q 681 543 587 543 q 838 584 762 543 q 890 616 859 596 q 815 733 865 687 q 706 797 769 775 q 614 813 657 813 q 497 798 571 813 l 497 599 m 469 788 q 406 762 435 776 l 406 237 q 399 119 406 146 q 315 3 376 37 q 431 58 390 7 q 460 131 453 85 q 469 284 469 179 l 469 788 z "},"O":{"ha":1015,"x_min":33,"x_max":983,"o":"m 94 673 l 546 944 q 844 816 731 916 q 983 526 983 693 q 858 233 983 378 q 593 26 736 92 q 429 -14 508 -14 q 222 48 324 -14 q 33 398 33 161 q 94 673 33 528 m 274 745 q 139 476 139 646 q 227 227 139 350 q 258 265 249 247 q 274 381 273 294 l 274 745 m 474 821 q 404 825 439 825 l 404 466 q 391 352 403 380 q 248 203 366 294 q 345 131 289 161 q 474 92 410 98 l 474 821 m 505 628 q 664 564 583 564 q 819 628 747 564 q 670 766 777 709 q 505 818 591 806 l 505 628 m 505 387 q 656 448 575 448 q 833 369 747 448 q 850 488 850 433 q 830 597 850 543 q 667 536 749 536 q 505 597 581 536 l 505 387 m 505 92 q 715 174 624 92 q 822 336 793 245 q 659 418 755 418 q 505 346 568 418 l 505 92 z "},"P":{"ha":987,"x_min":-33,"x_max":922,"o":"m 261 -183 l 261 71 q -20 -16 102 63 l -33 2 q 261 185 108 161 q 262 213 262 203 q 180 408 262 336 q 35 484 111 470 l 27 505 l 261 666 q 262 707 262 691 q 247 798 262 766 q 202 845 233 827 q 147 860 176 860 q 55 827 109 860 l 35 848 q 220 940 115 940 q 362 873 312 940 q 397 760 395 829 l 463 807 l 463 926 l 494 926 l 494 827 l 660 940 q 831 816 784 865 q 907 702 888 760 q 922 593 921 662 l 922 165 l 722 -14 q 608 31 681 8 q 494 58 530 56 l 494 -183 l 261 -183 m 397 -153 l 463 -153 l 463 772 l 397 725 l 397 -153 m 494 194 q 784 111 648 178 l 784 320 q 641 370 705 370 q 494 320 576 370 l 494 194 m 494 353 q 646 399 570 399 q 784 359 707 399 l 784 547 q 631 498 696 498 q 494 544 566 498 l 494 353 m 494 581 q 631 528 560 528 q 742 557 683 528 q 784 585 762 567 q 774 662 785 633 q 564 839 745 752 l 494 791 l 494 581 m 135 543 q 261 450 216 500 l 261 629 l 135 543 z "},"Q":{"ha":1049,"x_min":33,"x_max":1036,"o":"m 109 677 l 557 944 q 888 808 771 918 q 993 655 960 741 q 1017 532 1017 593 q 996 417 1017 477 q 940 311 975 357 q 819 172 902 259 l 972 57 l 1011 93 l 1036 69 l 906 -55 l 710 89 q 608 29 652 51 q 432 -14 523 -14 q 219 47 321 -14 q 33 386 33 158 q 109 677 33 521 m 285 735 q 149 465 149 636 q 243 222 149 338 q 269 261 260 244 q 285 360 284 290 l 285 735 m 493 810 q 420 812 465 812 l 420 472 q 406 353 419 385 q 327 254 391 318 q 267 201 298 226 q 370 133 324 153 q 493 102 417 112 l 493 810 m 524 102 q 541 102 537 102 q 710 165 623 102 q 851 342 804 234 q 681 421 780 421 q 567 387 621 421 q 524 348 545 373 l 524 102 m 524 392 q 683 453 597 453 q 861 376 777 453 q 880 488 880 431 q 857 606 880 550 q 687 539 770 539 q 524 593 615 539 l 524 392 m 524 630 q 686 569 612 569 q 803 604 743 569 q 844 634 823 614 q 687 763 806 710 q 524 807 599 802 l 524 630 z "},"R":{"ha":972,"x_min":-18,"x_max":1000,"o":"m 691 131 l 535 -18 q 262 65 414 65 q -7 -5 117 65 l -18 8 q 270 179 102 161 q 267 245 270 217 q 228 339 261 291 q 142 429 195 388 q 24 492 89 469 l 24 510 l 265 678 q 265 699 265 694 q 260 775 265 755 q 208 846 247 823 q 139 864 178 864 q 45 834 92 864 l 30 850 q 216 940 105 940 q 365 874 315 940 q 397 770 394 835 l 646 939 l 857 650 l 651 513 q 780 404 730 475 q 835 298 813 356 q 863 208 850 252 q 928 94 892 119 l 979 140 l 1000 116 l 857 -18 q 797 43 818 12 q 764 111 777 73 q 747 168 760 125 q 644 368 707 311 q 526 428 591 415 l 500 410 l 500 148 q 606 94 581 115 l 671 154 l 691 131 m 265 638 l 125 541 q 265 437 216 494 l 265 638 m 397 174 q 469 158 431 167 l 469 781 l 397 732 l 397 174 m 500 447 l 724 601 l 557 840 l 500 801 l 500 447 z "},"S":{"ha":1012,"x_min":9,"x_max":984,"o":"m 394 944 l 665 848 l 707 922 l 732 905 l 579 639 q 635 640 612 640 q 854 600 776 640 q 960 498 926 562 q 984 401 984 451 q 608 6 984 190 q 532 38 592 13 q 456 69 472 62 q 175 -17 277 -17 q 56 14 100 -17 q 22 55 35 29 q 9 105 9 80 q 98 215 9 180 q 213 235 145 235 q 305 226 255 235 l 354 311 q 279 310 300 310 q 132 332 193 310 q 54 397 81 351 q 36 465 36 426 q 152 611 36 566 q 151 623 151 620 q 250 815 151 708 q 394 944 308 879 m 605 745 q 368 826 455 826 q 262 782 302 826 q 238 715 238 755 q 284 638 238 659 q 374 624 315 624 q 541 635 396 624 l 605 745 m 475 518 q 321 508 364 508 q 203 526 240 508 q 157 585 172 541 q 119 518 119 556 q 152 454 119 481 q 285 424 189 424 q 425 431 349 424 l 475 518 m 460 434 q 578 448 478 436 q 639 450 605 450 q 754 427 706 450 q 799 388 783 413 q 816 332 816 362 q 751 224 816 273 q 621 142 701 186 q 721 102 672 123 q 809 172 774 138 q 868 254 846 208 q 889 342 889 300 q 864 431 889 388 q 798 494 838 473 q 635 528 733 528 q 511 522 591 528 l 460 434 m 339 221 q 574 157 503 182 q 650 206 621 185 q 701 283 701 245 q 677 323 701 307 q 622 336 656 336 q 471 321 591 336 q 391 313 411 315 l 339 221 m 415 82 q 163 130 281 130 q 83 102 104 130 q 71 70 71 87 q 167 14 71 14 q 415 82 273 14 z "},"T":{"ha":906,"x_min":-37,"x_max":898,"o":"m 618 769 l 618 119 q 763 192 694 138 q 877 329 832 248 l 898 323 q 792 130 873 216 q 473 -12 660 -12 q 220 65 336 -12 q 73 242 117 133 q 45 391 45 311 q 155 692 45 561 q 302 817 205 752 q 240 821 265 821 q -16 643 64 821 l -37 652 q 37 814 -14 751 q 176 917 93 886 q 300 940 237 940 q 560 910 374 940 q 738 889 694 889 q 877 964 832 889 l 898 957 q 859 848 892 892 q 670 766 795 766 q 618 769 649 766 m 588 774 q 496 791 543 781 l 496 441 q 484 333 495 368 q 457 287 475 308 q 395 227 439 265 q 326 169 365 201 q 522 108 419 108 q 588 114 550 108 l 588 774 m 357 817 q 254 732 292 783 q 192 607 214 677 q 169 470 169 536 q 296 191 169 308 q 342 242 331 216 q 354 290 352 262 q 357 393 357 326 l 357 817 z "},"U":{"ha":1022,"x_min":0,"x_max":1017,"o":"m 1017 86 l 878 -31 q 800 47 826 -1 q 780 148 782 83 q 665 60 718 95 q 416 -14 549 -14 q 143 105 241 -14 q 73 233 98 160 q 48 380 48 305 q 85 554 48 469 q 186 701 121 639 q 372 841 254 764 l 349 839 q 292 836 307 836 q 201 844 271 836 q 144 848 170 848 q 35 753 54 848 q 30 694 31 733 l 1 694 q 0 736 0 722 q 43 901 0 842 q 170 966 92 966 q 296 935 210 966 q 414 909 368 909 q 516 933 470 909 q 546 959 532 941 l 565 959 l 565 602 q 684 558 619 558 q 784 587 741 558 l 784 781 l 723 830 l 650 757 l 629 778 l 784 938 l 914 841 l 980 909 l 1004 889 q 991 873 995 878 q 933 790 943 817 q 920 640 920 758 l 920 186 q 963 100 920 100 q 999 112 977 100 l 1017 86 m 565 96 q 784 199 670 105 l 784 373 q 668 408 722 408 q 565 376 616 408 l 565 96 m 565 413 q 669 439 620 439 q 784 408 720 439 l 784 551 q 683 528 734 528 q 565 563 619 528 l 565 413 m 534 883 q 495 833 506 854 q 481 784 484 811 q 477 684 477 751 l 477 388 q 467 300 477 325 q 376 198 453 263 q 307 149 338 167 q 493 90 385 90 q 534 92 507 90 l 534 883 m 278 175 q 325 235 307 197 q 341 292 338 265 q 344 359 344 313 l 344 606 q 357 703 344 669 q 423 802 372 739 q 471 861 456 844 q 181 438 181 712 q 278 175 181 279 z "},"V":{"ha":869,"x_min":-18,"x_max":837,"o":"m 351 746 l 735 945 q 837 615 837 763 q 675 219 837 430 q 453 -18 589 107 q 306 33 378 33 q 169 -18 238 33 l 148 7 q 241 264 241 161 q 200 370 241 325 q 121 408 165 408 q 62 385 92 408 l 46 398 q 153 477 82 477 q 255 422 212 477 q 256 454 256 444 q 195 751 256 623 q 126 828 172 800 q 83 840 106 840 q 27 804 47 840 q 5 741 16 783 l -18 746 q 22 886 -9 831 q 85 947 44 927 q 134 959 107 959 q 215 936 174 959 q 288 871 256 912 q 351 746 329 820 m 359 716 q 384 568 374 668 q 528 544 465 544 q 705 583 612 544 q 622 852 699 736 l 359 716 m 385 535 q 366 367 386 448 q 474 382 424 382 q 656 336 560 382 q 691 452 676 382 q 704 551 702 508 q 530 513 622 513 q 385 535 458 513 m 355 330 q 291 182 323 233 q 205 42 220 66 q 279 91 249 74 q 422 133 350 133 q 529 113 467 133 q 643 306 583 180 q 477 351 564 351 q 355 330 419 351 z "},"W":{"ha":1200,"x_min":-18,"x_max":1168,"o":"m 329 737 l 629 952 q 740 742 695 861 l 1039 949 q 1168 588 1168 753 q 1109 357 1168 473 q 892 85 1052 244 q 779 -18 838 33 q 737 20 755 6 q 640 52 695 52 q 501 9 579 52 q 454 -18 482 -1 q 412 20 431 5 q 315 52 370 52 q 117 -18 229 52 l 102 4 q 208 283 208 184 q 167 389 208 349 q 96 421 134 421 q 46 402 71 421 l 28 420 q 132 494 63 494 q 227 446 180 494 q 185 729 220 640 q 75 846 140 846 q 27 810 44 846 q 12 750 15 785 l -18 755 q 16 878 -12 828 q 127 947 54 947 q 278 853 218 947 q 329 737 311 803 m 336 704 q 349 643 342 683 q 356 574 355 602 q 483 539 427 539 q 630 586 559 539 q 592 718 621 644 q 527 842 558 802 l 336 704 m 356 542 q 356 526 356 531 q 327 352 356 446 l 338 356 q 438 376 399 376 q 559 345 496 376 q 598 324 574 338 q 635 509 635 432 q 633 550 635 522 q 484 507 554 507 q 356 542 410 507 m 312 309 q 256 188 277 228 q 177 62 231 141 q 263 107 236 94 q 429 148 352 148 q 508 140 458 148 q 548 210 525 164 q 587 294 572 256 q 444 346 510 346 q 312 309 385 346 m 749 714 q 772 574 767 665 q 892 545 835 545 q 1023 574 949 545 q 993 712 1017 639 q 932 839 964 797 l 749 714 m 772 542 q 727 361 769 435 l 742 363 q 821 376 794 376 q 983 328 895 376 q 1011 428 998 367 q 1023 526 1023 489 q 1023 542 1023 530 q 885 516 935 516 q 772 542 842 516 m 706 317 q 624 193 663 241 q 505 67 616 180 q 572 104 522 76 q 674 143 612 126 q 779 159 736 159 q 874 142 818 159 q 970 300 916 190 q 821 347 895 347 q 706 317 762 347 z "},"X":{"ha":765,"x_min":-33,"x_max":760,"o":"m 760 123 l 603 -18 q 528 28 557 1 q 493 76 506 50 q 458 152 484 92 l 361 383 l 182 -18 q 90 41 141 14 q -13 85 39 68 l 42 206 q 213 138 99 187 l 347 437 l 90 437 l 138 542 l 299 542 l 229 711 q 188 799 202 775 q 151 834 175 821 q 99 847 126 847 q -13 793 46 847 l -33 810 q 24 892 -6 863 q 161 949 84 949 q 270 908 226 949 q 347 777 306 876 l 419 603 l 576 952 q 760 850 652 898 l 707 739 q 549 805 612 772 l 432 542 l 701 542 l 652 437 l 488 437 l 592 193 q 627 123 621 134 q 661 100 641 100 q 705 124 679 100 l 734 152 l 760 123 z "},"Y":{"ha":931,"x_min":-9,"x_max":895,"o":"m 35 868 l 21 890 q 163 944 85 944 q 245 926 205 944 q 309 880 286 909 q 344 791 334 850 q 448 850 406 828 q 629 902 552 902 q 732 878 682 902 q 817 810 782 853 q 895 566 895 716 q 846 334 895 440 q 628 160 783 193 q 460 145 557 145 q 351 148 425 145 q 241 151 279 151 q 85 114 138 151 q 26 12 26 74 q 56 -66 26 -32 q 151 -106 91 -106 q 291 -73 203 -106 q 406 -31 376 -40 q 514 -14 466 -14 q 659 -68 608 -14 q 688 -138 688 -99 q 671 -186 688 -168 q 626 -204 654 -204 q 581 -184 598 -204 q 566 -143 566 -167 q 585 -92 566 -120 q 591 -78 591 -83 q 583 -65 591 -71 q 565 -60 574 -60 q 454 -100 530 -60 q 331 -161 373 -144 q 196 -191 253 -191 q 113 -174 154 -191 q 43 -129 71 -157 q -9 2 -9 -74 q 82 149 -9 96 q 214 181 138 181 q 215 212 215 201 q 155 372 215 311 q 28 431 102 425 l 28 450 q 75 456 54 456 q 214 403 147 456 q 215 432 215 420 q 167 566 215 515 q 54 616 118 616 q 28 615 45 616 l 24 637 q 99 658 61 658 q 214 615 150 658 l 214 665 q 207 782 214 751 q 146 865 193 838 q 87 882 116 882 q 35 868 64 882 m 344 181 l 407 181 l 407 787 q 344 749 373 767 l 344 181 m 437 181 q 466 180 457 180 q 680 262 600 180 q 741 370 720 303 q 583 434 664 434 q 437 377 509 434 l 437 181 m 437 414 q 583 465 507 465 q 748 404 671 465 q 758 513 758 456 q 748 612 758 565 q 692 573 715 586 q 589 548 646 548 q 437 604 503 548 l 437 414 m 437 645 q 483 609 463 623 q 584 578 530 578 q 739 645 674 578 q 685 757 724 711 q 537 829 623 829 q 437 802 497 829 l 437 645 z "},"Z":{"ha":705,"x_min":-14,"x_max":705,"o":"m 705 159 l 565 -18 q 297 50 433 50 q 73 8 198 50 q 6 -18 43 -2 l -14 7 q 155 247 81 97 q 234 395 210 354 l 54 395 l 75 443 l 258 443 q 298 515 278 479 l 106 515 l 129 564 l 328 564 q 448 714 389 648 q 595 868 460 731 q 488 825 529 840 q 301 790 388 790 q 124 829 208 790 l 46 739 l 21 760 l 175 941 q 406 883 309 883 q 607 917 504 883 q 669 944 636 927 l 688 924 q 576 753 625 839 q 477 564 547 703 l 674 564 l 652 515 l 454 515 q 414 443 434 479 l 621 443 l 599 395 l 384 395 q 106 72 314 279 q 428 149 294 149 q 614 98 508 149 l 682 181 l 705 159 z "},"[":{"ha":416,"x_min":92,"x_max":342,"o":"m 342 926 l 342 898 l 208 898 l 208 -195 l 342 -195 l 342 -222 l 92 -222 l 92 926 l 342 926 z "},"\\":{"ha":721,"x_min":60,"x_max":730,"o":"m 730 -179 l 671 -210 l 60 975 l 119 1006 l 730 -179 z "},"]":{"ha":416,"x_min":75,"x_max":326,"o":"m 75 -222 l 75 -195 l 210 -195 l 210 898 l 75 898 l 75 926 l 326 926 l 326 -222 l 75 -222 z "},"^":{"ha":694,"x_min":24,"x_max":671,"o":"m 163 490 l 24 490 l 260 930 l 434 930 l 671 490 l 530 490 l 347 825 l 163 490 z "},"_":{"ha":694,"x_min":0,"x_max":694,"o":"m 0 -80 l 694 -80 l 694 -200 l 0 -200 l 0 -80 z "},"`":{"ha":452,"x_min":93,"x_max":359,"o":"m 359 795 l 142 841 l 93 962 l 214 962 l 359 795 z "},"a":{"ha":566,"x_min":41,"x_max":561,"o":"m 561 98 l 414 -18 q 357 46 374 18 q 332 131 338 80 l 148 -18 q 89 36 107 14 q 41 165 41 95 q 87 309 41 236 q 172 416 115 351 l 52 628 q 92 627 76 627 q 250 685 173 627 q 438 624 371 624 q 501 655 469 624 l 519 642 q 479 565 490 598 q 469 439 469 533 l 469 199 q 476 121 469 136 q 507 98 486 98 q 547 116 519 98 l 561 98 m 332 333 l 186 395 q 156 248 156 321 q 203 132 156 186 q 243 93 217 115 l 332 164 l 332 333 m 332 526 l 96 604 l 199 418 l 332 361 l 332 526 z "},"b":{"ha":568,"x_min":27,"x_max":514,"o":"m 50 100 l 50 115 q 81 149 73 128 q 88 245 87 170 l 88 768 q 81 834 88 817 q 27 904 68 869 l 35 922 q 138 863 84 907 q 295 944 202 930 l 299 930 q 248 880 267 910 q 229 829 231 852 q 225 758 225 814 l 225 520 l 422 685 q 486 623 465 649 q 510 563 505 595 q 514 481 514 536 l 514 100 q 307 -18 382 54 q 193 57 260 26 q 50 100 127 87 m 225 488 l 225 158 l 378 92 l 378 462 q 363 549 377 523 q 336 582 354 567 l 225 488 z "},"c":{"ha":427,"x_min":43,"x_max":427,"o":"m 427 110 l 267 -18 q 169 34 222 14 q 58 59 116 54 l 58 77 q 87 109 79 91 q 97 182 96 130 l 97 463 q 90 517 97 507 q 43 532 81 531 l 43 549 q 256 685 147 579 l 418 595 l 349 493 l 233 557 l 233 136 l 353 82 l 412 129 l 427 110 z "},"d":{"ha":587,"x_min":52,"x_max":548,"o":"m 52 766 l 52 926 l 472 616 q 541 672 495 656 l 548 648 q 530 623 536 635 q 517 527 518 601 l 517 94 q 407 45 445 65 q 313 -18 361 20 q 184 55 244 31 q 52 83 124 79 l 52 99 q 79 132 72 117 q 92 269 92 155 l 92 579 q 225 635 182 600 l 52 766 m 235 167 l 381 98 l 381 519 l 269 603 q 235 576 253 589 l 235 167 z "},"e":{"ha":494,"x_min":45,"x_max":484,"o":"m 467 119 l 264 -18 q 149 41 214 14 q 52 71 93 64 l 52 85 q 83 114 74 97 q 97 209 96 139 l 97 456 q 91 519 97 510 q 52 534 80 534 l 45 549 q 315 685 197 614 l 484 468 l 233 258 l 233 132 q 353 71 294 102 l 452 138 l 467 119 m 233 304 l 374 420 l 233 602 l 233 304 z "},"f":{"ha":345,"x_min":43,"x_max":373,"o":"m 365 100 l 220 -18 q 53 84 142 56 l 53 100 q 84 131 73 111 q 95 165 94 149 q 97 223 97 180 l 97 584 l 43 584 l 43 657 l 97 657 l 97 830 q 239 940 146 861 l 373 906 l 350 798 l 235 828 l 235 657 l 326 657 l 326 584 l 235 584 l 235 137 q 303 84 270 111 l 347 117 l 365 100 z "},"g":{"ha":593,"x_min":50,"x_max":593,"o":"m 50 -169 l 210 20 l 63 127 l 63 600 q 292 685 180 613 l 485 591 l 593 649 l 593 503 q 486 534 538 517 l 486 213 q 490 153 486 172 q 504 114 493 134 q 535 66 511 100 q 572 9 561 29 q 588 -43 588 -18 q 541 -119 588 -89 q 408 -189 498 -146 q 250 -155 328 -155 q 63 -184 163 -155 l 50 -169 m 170 -67 q 288 -54 235 -54 q 437 -82 367 -54 q 485 -104 456 -90 l 509 -90 q 404 17 460 -60 q 351 149 357 81 l 170 -67 m 197 170 l 281 106 l 351 189 l 351 533 l 197 591 l 197 170 z "},"h":{"ha":573,"x_min":28,"x_max":519,"o":"m 149 -18 l 33 78 l 88 125 l 88 773 q 81 842 87 823 q 28 912 66 881 l 39 930 q 141 861 85 913 q 302 944 186 922 l 310 928 q 252 881 271 905 q 227 777 228 848 l 227 528 l 420 685 q 490 621 469 650 q 513 571 507 597 q 519 478 519 543 l 519 201 q 510 87 519 132 q 478 7 500 43 q 146 -201 411 -105 l 138 -176 q 314 -75 278 -113 q 368 19 356 -33 q 377 140 376 55 l 377 473 q 364 546 376 526 q 332 581 354 564 l 227 496 l 227 125 l 271 74 l 149 -18 z "},"i":{"ha":339,"x_min":49,"x_max":328,"o":"m 328 96 l 184 -18 q 102 58 160 8 q 53 96 72 83 l 53 109 q 81 126 71 115 q 92 147 90 137 q 97 213 97 161 l 97 553 l 49 595 l 163 685 l 279 591 l 232 548 l 232 119 l 271 84 l 313 119 l 328 96 m 177 805 l 210 963 l 325 959 l 210 802 l 177 805 z "},"j":{"ha":313,"x_min":14,"x_max":320,"o":"m 14 574 l 161 685 q 291 568 225 610 q 222 353 222 472 q 238 187 222 282 q 250 81 250 115 q 168 -116 250 -43 q 37 -200 121 -157 l 28 -180 q 91 -125 71 -150 q 132 0 132 -73 q 117 102 132 34 q 88 329 88 244 q 125 538 88 437 q 74 587 98 562 l 28 554 l 14 574 m 173 807 l 201 963 l 320 963 l 208 802 l 173 807 z "},"k":{"ha":584,"x_min":20,"x_max":593,"o":"m 593 100 l 447 -18 q 401 56 413 22 q 385 127 395 76 l 210 -18 q 43 84 146 57 l 43 104 q 73 122 63 111 q 85 151 84 135 q 88 201 88 164 l 88 749 q 65 861 87 828 q 20 905 49 885 l 28 922 q 134 858 96 903 q 212 917 171 897 q 300 944 248 932 l 304 924 q 253 880 271 903 q 233 833 235 859 q 230 770 230 823 l 230 515 l 406 685 l 536 547 l 389 412 q 399 402 394 407 q 467 326 452 352 q 502 231 491 287 q 511 176 507 210 q 543 91 520 115 l 580 120 l 593 100 m 230 138 l 298 89 l 381 159 q 352 256 370 226 q 289 321 329 294 l 230 269 l 230 138 m 230 304 l 424 479 l 332 576 l 230 479 l 230 304 z "},"l":{"ha":315,"x_min":20,"x_max":341,"o":"m 341 90 l 210 -18 q 41 81 140 58 l 41 102 q 73 126 64 114 q 88 203 87 146 l 88 747 q 79 836 87 814 q 20 901 64 878 l 27 921 q 135 855 88 898 q 204 909 163 885 q 290 944 245 932 l 297 921 q 250 876 267 899 q 230 829 233 853 q 225 751 225 806 l 225 137 l 293 90 l 322 113 l 341 90 z "},"m":{"ha":905,"x_min":12,"x_max":892,"o":"m 12 572 l 156 685 q 222 617 209 646 q 233 528 233 592 l 419 685 q 491 612 469 648 q 517 528 513 576 l 702 685 l 799 578 l 854 631 l 871 612 q 833 569 848 590 q 808 469 808 534 l 808 187 q 819 106 808 123 q 840 95 827 95 q 876 114 852 95 l 892 93 l 760 -18 q 698 41 720 11 q 675 93 680 66 q 669 182 669 118 l 669 528 l 621 583 l 520 497 l 520 126 l 569 76 l 456 -18 l 340 76 l 383 126 l 383 465 q 364 540 382 516 q 328 578 353 555 l 233 497 l 233 126 l 282 76 l 170 -18 l 49 79 l 98 130 l 98 488 q 90 551 98 538 q 65 566 80 566 q 28 548 56 566 l 12 572 z "},"n":{"ha":617,"x_min":17,"x_max":612,"o":"m 17 581 l 155 685 q 225 612 212 637 q 234 545 234 593 l 406 685 l 506 586 l 571 648 l 591 625 q 545 572 561 598 q 527 533 530 549 q 520 446 520 511 l 520 212 q 526 125 520 144 q 553 102 533 102 q 596 127 565 102 l 612 100 l 467 -18 q 395 64 407 36 q 384 187 384 94 l 384 534 l 329 590 l 234 511 l 234 130 l 281 79 l 161 -18 l 43 83 l 98 133 l 98 488 q 91 559 98 547 q 68 575 82 575 q 33 561 56 575 l 17 581 z "},"o":{"ha":541,"x_min":31,"x_max":485,"o":"m 485 585 l 485 126 l 485 100 l 485 92 q 284 -18 346 35 q 31 87 161 81 l 31 104 q 55 127 48 116 q 70 257 68 148 l 70 572 q 266 685 181 606 q 485 585 368 612 m 205 576 l 205 156 l 349 94 l 349 514 l 205 576 z "},"p":{"ha":583,"x_min":15,"x_max":527,"o":"m 15 92 l 15 139 q 98 151 54 147 l 98 486 q 89 553 98 538 q 61 572 77 572 q 33 561 52 572 l 18 578 l 153 685 q 222 614 203 650 q 237 538 236 585 l 392 685 q 485 609 460 638 q 519 549 510 581 q 527 455 527 521 l 527 115 q 336 -18 394 51 q 237 39 286 22 l 237 -31 q 311 -174 232 -139 l 298 -199 q 151 -113 219 -178 q 104 -146 134 -130 q 39 -177 75 -163 l 33 -159 q 77 -113 62 -136 q 94 -73 90 -94 q 98 -4 98 -52 l 98 82 q 15 92 55 89 m 237 149 q 389 100 324 136 l 389 445 q 380 515 388 502 q 317 572 366 542 l 237 495 l 237 149 z "},"q":{"ha":565,"x_min":60,"x_max":555,"o":"m 351 127 l 174 -18 q 90 54 109 28 q 67 98 73 76 q 60 200 60 124 l 60 568 q 161 614 98 580 q 266 685 231 654 q 527 572 408 579 l 527 551 q 498 530 507 541 q 490 505 491 519 q 488 425 488 493 l 488 5 q 493 -82 488 -64 q 555 -159 506 -127 l 546 -178 q 434 -117 497 -164 q 270 -199 386 -178 l 266 -178 q 320 -137 301 -158 q 347 -81 342 -111 q 351 3 351 -65 l 351 127 m 351 494 l 200 567 l 200 220 q 206 146 201 161 q 260 88 218 118 l 351 160 l 351 494 z "},"r":{"ha":454,"x_min":7,"x_max":468,"o":"m 7 568 l 144 685 q 241 575 214 650 l 368 688 l 468 564 l 372 477 l 290 579 l 236 530 l 236 140 l 303 89 l 368 140 l 387 118 l 219 -18 q 50 83 133 69 l 50 98 q 80 127 70 111 q 97 210 96 151 l 97 488 q 86 557 96 543 q 63 582 79 569 l 23 549 l 7 568 z "},"s":{"ha":346,"x_min":54,"x_max":374,"o":"m 366 100 l 220 -19 q 54 83 143 56 l 54 100 q 85 131 75 111 q 96 165 94 149 q 98 223 98 183 l 98 830 q 239 940 146 860 l 374 906 l 351 798 l 235 828 l 235 137 q 304 83 271 111 l 347 117 l 366 100 z "},"t":{"ha":340,"x_min":37,"x_max":362,"o":"m 37 605 l 233 865 l 233 657 l 349 657 l 349 582 l 233 582 l 233 140 q 299 92 267 118 l 342 127 l 362 104 l 216 -18 q 141 42 182 17 q 53 80 99 68 l 53 98 q 83 127 76 115 q 97 231 96 149 l 97 582 l 37 582 l 37 605 z "},"u":{"ha":624,"x_min":22,"x_max":614,"o":"m 22 560 l 163 685 l 279 584 l 232 543 l 232 144 l 294 95 l 391 184 l 391 543 l 342 584 l 455 685 l 572 584 l 526 543 l 526 176 q 533 120 526 134 q 563 98 545 98 q 594 113 575 98 l 614 89 l 476 -18 q 420 31 435 14 q 391 149 389 68 l 209 -18 q 58 88 129 59 l 58 106 q 85 124 78 114 q 97 203 96 137 l 97 538 l 68 560 l 40 538 l 22 560 z "},"v":{"ha":577,"x_min":32,"x_max":522,"o":"m 235 534 l 414 685 q 492 609 471 642 q 515 556 509 582 q 522 435 521 532 l 522 102 q 309 -18 397 68 q 193 60 253 31 q 55 92 132 90 l 55 106 q 83 126 73 115 q 97 219 96 142 l 97 460 q 86 549 96 529 q 68 578 81 560 q 39 632 47 612 q 32 680 32 653 q 174 860 32 783 l 188 841 q 121 749 121 791 q 130 715 121 732 q 159 680 136 705 q 219 602 201 635 q 235 534 233 575 m 235 160 q 385 94 315 128 l 385 437 q 378 522 385 507 q 330 583 365 552 l 235 503 l 235 160 z "},"w":{"ha":863,"x_min":19,"x_max":807,"o":"m 231 532 l 407 685 q 513 532 507 631 l 696 685 q 778 606 758 640 q 801 549 795 578 q 807 456 807 518 l 807 96 q 599 -18 663 51 q 426 49 502 49 q 290 -18 349 49 q 163 59 246 24 q 44 84 112 80 l 44 99 q 83 121 75 112 q 94 143 91 130 q 97 208 97 161 l 97 463 q 87 545 96 526 q 63 581 81 555 q 19 691 19 642 q 163 863 19 783 l 176 842 q 137 809 150 822 q 113 753 113 783 q 127 707 113 729 q 157 676 132 699 q 214 608 197 641 q 231 532 231 576 m 231 150 l 381 88 l 381 451 q 372 530 380 515 q 326 581 356 559 l 231 499 l 231 150 m 517 157 l 669 96 l 669 446 q 646 550 669 521 q 614 582 635 563 l 517 500 l 517 157 z "},"x":{"ha":568,"x_min":-5,"x_max":582,"o":"m -5 54 l 47 172 l 149 118 l 235 304 q 144 486 197 403 q 57 566 93 566 q 12 541 44 566 l -5 562 l 135 685 q 310 464 230 637 l 414 685 l 553 615 l 494 498 l 387 555 l 327 428 q 429 210 386 291 q 519 100 487 100 q 562 118 534 100 l 582 94 l 444 -18 q 345 84 389 13 q 252 267 271 230 l 119 -18 l -5 54 z "},"y":{"ha":530,"x_min":5,"x_max":517,"o":"m 5 568 l 146 685 q 224 610 205 651 q 235 528 236 583 l 427 680 q 478 610 459 648 q 517 454 517 534 q 374 181 517 295 q 182 53 296 119 q 76 -20 98 3 q 43 -95 43 -56 q 73 -152 43 -130 q 141 -172 100 -172 q 237 -134 199 -172 q 288 -104 268 -104 q 308 -112 299 -104 q 317 -132 317 -121 q 274 -178 317 -157 q 150 -201 226 -201 q 39 -167 76 -201 q 8 -91 8 -137 q 47 7 8 -44 q 81 59 69 37 q 98 174 96 86 l 98 481 q 88 557 98 546 q 64 570 79 570 q 23 549 51 570 l 5 568 m 235 492 l 235 120 q 325 218 286 157 q 382 401 382 307 q 329 568 382 494 l 235 492 z "},"z":{"ha":385,"x_min":0,"x_max":371,"o":"m 0 558 l 170 685 l 232 634 q 307 590 286 590 q 327 593 315 590 l 338 578 l 161 391 q 193 394 180 394 q 298 363 253 394 q 351 301 332 340 q 371 220 371 262 q 317 93 371 150 q 192 3 283 56 q 112 -50 131 -31 q 90 -99 90 -72 q 102 -132 90 -118 q 138 -149 115 -149 q 168 -143 145 -149 q 184 -141 176 -141 q 208 -160 208 -141 q 161 -189 208 -189 q 81 -155 111 -189 q 58 -94 58 -129 q 87 -20 58 -58 q 140 31 98 -5 q 195 92 178 65 q 222 182 222 133 q 195 259 222 231 q 122 292 165 292 q 35 264 84 292 l 18 279 l 211 484 l 85 585 l 18 535 l 0 558 z "},"{":{"ha":416,"x_min":64,"x_max":408,"o":"m 64 376 q 129 448 100 401 q 157 547 155 493 l 157 778 q 213 913 158 878 q 356 943 263 944 l 408 943 l 408 916 l 347 916 q 283 878 299 915 q 272 805 272 854 l 272 527 q 161 388 273 452 l 272 358 l 272 -66 q 286 -144 272 -119 q 311 -167 294 -158 q 347 -176 328 -176 l 408 -176 l 408 -203 l 355 -203 q 213 -173 260 -204 q 157 -35 157 -132 l 157 347 l 64 376 z "},"|":{"ha":694,"x_min":281,"x_max":414,"o":"m 281 926 l 414 926 l 414 -231 l 281 -231 l 281 926 z "},"}":{"ha":416,"x_min":9,"x_max":352,"o":"m 352 364 q 287 292 315 339 q 260 193 261 246 l 260 -38 q 203 -173 258 -138 q 60 -203 155 -204 l 9 -203 l 9 -176 l 70 -176 q 133 -138 117 -175 q 144 -65 144 -115 l 144 213 q 256 352 144 287 l 144 382 l 144 806 q 130 884 144 859 q 105 907 122 898 q 70 916 88 916 l 9 916 l 9 943 l 60 943 q 203 913 155 945 q 260 775 260 872 l 260 393 l 352 364 z "},"~":{"ha":926,"x_min":127,"x_max":798,"o":"m 203 797 l 127 846 q 178 939 159 911 q 325 1019 235 1019 q 477 975 376 1019 q 564 941 544 946 q 606 935 587 935 q 682 966 652 935 q 721 1021 699 983 l 798 976 q 712 852 755 887 q 590 808 656 808 q 521 823 564 808 q 392 873 483 835 q 315 892 347 892 q 240 855 271 892 q 203 797 223 836 z "},"":{"ha":873,"x_min":37,"x_max":878,"o":"m 878 111 l 720 -23 q 644 52 661 14 q 631 161 633 79 l 397 -23 q 228 81 302 43 q 127 114 161 114 q 105 105 115 114 q 96 84 96 96 q 112 49 96 73 q 125 14 125 29 q 115 -9 125 0 q 90 -19 105 -19 q 54 2 67 -19 q 42 42 42 20 q 55 96 42 71 q 113 190 74 133 l 214 335 q 115 421 156 372 q 37 616 37 513 q 151 857 37 755 q 390 949 254 949 q 590 899 493 949 q 687 838 627 881 q 750 898 731 882 q 832 943 781 923 l 846 920 q 770 860 792 889 q 741 745 741 823 q 741 692 741 714 l 764 222 q 775 128 767 143 q 805 104 787 104 q 856 135 819 104 l 878 111 m 624 308 l 230 308 l 176 230 l 494 95 l 629 200 l 624 308 m 603 736 q 556 774 581 758 l 298 406 l 617 406 l 603 736 m 422 636 q 345 663 381 663 q 268 631 299 663 q 248 608 260 623 l 224 618 q 386 749 274 749 q 491 733 433 749 l 530 790 q 361 834 453 834 q 172 768 250 834 q 90 600 90 701 q 146 448 90 521 q 234 366 182 401 l 422 636 m 298 1093 l 386 1181 l 474 1093 l 386 1004 l 298 1093 m 554 1093 l 642 1181 l 730 1093 l 642 1004 l 554 1093 z "},"":{"ha":873,"x_min":37,"x_max":878,"o":"m 878 111 l 720 -23 q 644 52 661 14 q 631 161 633 79 l 397 -23 q 228 81 302 43 q 127 114 161 114 q 105 105 115 114 q 96 84 96 96 q 112 49 96 73 q 125 14 125 29 q 115 -9 125 0 q 90 -19 105 -19 q 54 2 67 -19 q 42 42 42 20 q 55 96 42 71 q 113 190 74 133 l 214 335 q 115 421 156 372 q 37 616 37 513 q 151 857 37 755 q 390 949 254 949 q 590 899 493 949 q 687 838 627 881 q 750 898 731 882 q 832 943 781 923 l 846 920 q 770 860 792 889 q 741 745 741 823 q 741 692 741 714 l 764 222 q 775 128 767 143 q 805 104 787 104 q 856 135 819 104 l 878 111 m 624 308 l 230 308 l 176 230 l 494 95 l 629 200 l 624 308 m 603 736 q 556 774 581 758 l 298 406 l 617 406 l 603 736 m 422 636 q 345 663 381 663 q 268 631 299 663 q 248 608 260 623 l 224 618 q 386 749 274 749 q 491 733 433 749 l 530 790 q 361 834 453 834 q 172 768 250 834 q 90 600 90 701 q 146 448 90 521 q 234 366 182 401 l 422 636 m 648 967 q 505 1111 505 1010 q 648 1276 505 1207 q 791 1129 791 1234 q 742 1025 791 1075 q 648 967 707 990 m 695 1026 q 732 1097 732 1053 q 675 1187 732 1152 q 599 1217 643 1208 q 562 1138 562 1181 q 614 1059 562 1094 q 695 1026 644 1040 z "},"":{"ha":857,"x_min":33,"x_max":857,"o":"m 500 -14 l 399 -98 q 440 -142 428 -126 q 463 -202 463 -173 q 364 -334 463 -285 l 356 -327 q 382 -254 382 -282 q 286 -137 382 -184 l 431 -14 q 193 78 295 -6 q 33 429 33 210 q 163 751 33 611 q 323 870 227 821 l 335 856 q 233 758 271 801 q 144 509 144 654 q 218 275 144 387 q 256 315 245 294 q 270 418 269 341 l 270 713 l 541 944 q 835 870 690 867 l 709 751 q 505 821 610 767 l 505 123 q 525 123 517 123 q 694 161 598 123 q 842 250 772 192 l 857 233 q 500 -14 718 10 m 475 836 l 406 774 l 406 561 q 395 417 405 441 q 293 296 372 362 l 237 250 q 343 163 285 193 q 475 125 402 132 l 475 836 z "},"":{"ha":880,"x_min":33,"x_max":862,"o":"m 507 539 l 507 130 q 524 130 518 130 q 852 252 687 130 l 862 238 q 749 101 813 155 q 469 -5 625 -5 q 298 32 380 -5 q 155 134 216 68 q 64 286 97 197 q 33 460 33 371 q 69 639 33 555 q 174 785 106 723 q 332 892 237 842 l 345 869 q 145 538 145 736 q 222 292 145 404 q 256 328 247 315 q 273 416 272 351 l 273 736 l 545 954 q 797 879 696 879 q 832 881 808 879 l 841 861 l 646 663 l 805 659 l 732 531 l 507 539 m 507 565 l 704 763 q 507 834 596 781 l 507 565 m 477 849 l 406 790 l 406 506 q 392 416 405 441 q 315 333 378 387 l 239 269 q 477 132 323 153 l 477 849 m 372 1028 l 518 1195 l 637 1195 l 589 1074 l 372 1028 z "},"":{"ha":1096,"x_min":-120,"x_max":1096,"o":"m 1096 186 l 981 -16 q 850 17 912 17 q 699 -50 758 17 q 669 -96 683 -68 l 637 -85 q 749 138 659 -20 q 858 345 819 256 q 793 380 819 369 q 686 405 739 405 q 497 351 580 405 l 497 219 q 487 102 497 146 q 450 19 476 58 q 352 -64 414 -35 q 234 -91 298 -91 q 162 -83 195 -91 q 93 -62 143 -77 q 10 -48 47 -48 q -102 -80 -47 -48 l -120 -64 q 59 47 -49 47 q 198 28 103 47 q 222 26 209 26 q 279 43 258 26 q 309 119 309 68 q 266 214 309 174 q 180 250 227 250 q 101 222 144 250 l 84 239 q 195 304 132 304 q 285 277 235 304 q 125 413 252 413 q 51 395 85 413 l 37 414 q 155 472 90 472 q 272 425 213 472 q 251 508 267 478 q 201 563 235 541 q 127 585 165 585 q 51 564 94 585 l 37 581 q 157 642 86 642 q 272 606 203 642 l 272 739 l 689 944 q 914 836 828 912 q 1027 595 1027 735 q 928 313 1027 475 q 779 104 922 302 q 941 127 850 127 q 1019 121 979 127 l 1064 197 l 1096 186 m 497 388 q 675 435 597 435 q 868 374 778 435 q 902 536 902 466 q 897 583 902 555 q 679 510 787 510 q 497 560 595 510 l 497 388 m 497 599 q 681 543 587 543 q 838 584 762 543 q 890 616 859 596 q 815 733 865 687 q 706 797 769 775 q 614 813 657 813 q 497 798 571 813 l 497 599 m 469 788 q 406 762 435 776 l 406 237 q 399 119 406 146 q 315 3 376 37 q 431 58 390 7 q 460 131 453 85 q 469 284 469 179 l 469 788 m 376 1060 l 545 1200 l 727 1093 l 820 1175 l 850 1152 l 656 985 l 475 1093 l 404 1038 l 376 1060 z "},"":{"ha":1015,"x_min":33,"x_max":983,"o":"m 94 673 l 546 944 q 844 816 731 916 q 983 526 983 693 q 858 233 983 378 q 593 26 736 92 q 429 -14 508 -14 q 222 48 324 -14 q 33 398 33 161 q 94 673 33 528 m 274 745 q 139 476 139 646 q 227 227 139 350 q 258 265 249 247 q 274 381 273 294 l 274 745 m 474 821 q 404 825 439 825 l 404 466 q 391 352 403 380 q 248 203 366 294 q 345 131 289 161 q 474 92 410 98 l 474 821 m 505 628 q 664 564 583 564 q 819 628 747 564 q 670 766 777 709 q 505 818 591 806 l 505 628 m 505 387 q 656 448 575 448 q 833 369 747 448 q 850 488 850 433 q 830 597 850 543 q 667 536 749 536 q 505 597 581 536 l 505 387 m 505 92 q 715 174 624 92 q 822 336 793 245 q 659 418 755 418 q 505 346 568 418 l 505 92 m 310 1093 l 398 1181 l 486 1093 l 398 1004 l 310 1093 m 566 1093 l 654 1181 l 742 1093 l 654 1004 l 566 1093 z "},"":{"ha":1022,"x_min":0,"x_max":1017,"o":"m 1017 86 l 878 -31 q 800 47 826 -1 q 780 148 782 83 q 665 60 718 95 q 416 -14 549 -14 q 143 105 241 -14 q 73 233 98 160 q 48 380 48 305 q 85 554 48 469 q 186 701 121 639 q 372 841 254 764 l 349 839 q 292 836 307 836 q 201 844 271 836 q 144 848 170 848 q 35 753 54 848 q 30 694 31 733 l 1 694 q 0 736 0 722 q 43 901 0 842 q 170 966 92 966 q 296 935 210 966 q 414 909 368 909 q 516 933 470 909 q 546 959 532 941 l 565 959 l 565 602 q 684 558 619 558 q 784 587 741 558 l 784 781 l 723 830 l 650 757 l 629 778 l 784 938 l 914 841 l 980 909 l 1004 889 q 991 873 995 878 q 933 790 943 817 q 920 640 920 758 l 920 186 q 963 100 920 100 q 999 112 977 100 l 1017 86 m 565 96 q 784 199 670 105 l 784 373 q 668 408 722 408 q 565 376 616 408 l 565 96 m 565 413 q 669 439 620 439 q 784 408 720 439 l 784 551 q 683 528 734 528 q 565 563 619 528 l 565 413 m 534 883 q 495 833 506 854 q 481 784 484 811 q 477 684 477 751 l 477 388 q 467 300 477 325 q 376 198 453 263 q 307 149 338 167 q 493 90 385 90 q 534 92 507 90 l 534 883 m 278 175 q 325 235 307 197 q 341 292 338 265 q 344 359 344 313 l 344 606 q 357 703 344 669 q 423 802 372 739 q 471 861 456 844 q 181 438 181 712 q 278 175 181 279 m 330 1093 l 418 1181 l 506 1093 l 418 1004 l 330 1093 m 586 1093 l 673 1181 l 762 1093 l 673 1004 l 586 1093 z "},"":{"ha":566,"x_min":41,"x_max":561,"o":"m 561 98 l 414 -18 q 357 46 374 18 q 332 131 338 80 l 148 -18 q 89 36 107 14 q 41 165 41 95 q 87 309 41 236 q 172 416 115 351 l 52 628 q 92 627 76 627 q 250 685 173 627 q 438 624 371 624 q 501 655 469 624 l 519 642 q 479 565 490 598 q 469 439 469 533 l 469 199 q 476 121 469 136 q 507 98 486 98 q 547 116 519 98 l 561 98 m 332 333 l 186 395 q 156 248 156 321 q 203 132 156 186 q 243 93 217 115 l 332 164 l 332 333 m 332 526 l 96 604 l 199 418 l 332 361 l 332 526 m 196 795 l 342 962 l 463 962 l 414 841 l 196 795 z "},"":{"ha":566,"x_min":41,"x_max":561,"o":"m 561 98 l 414 -18 q 357 46 374 18 q 332 131 338 80 l 148 -18 q 89 36 107 14 q 41 165 41 95 q 87 309 41 236 q 172 416 115 351 l 52 628 q 92 627 76 627 q 250 685 173 627 q 438 624 371 624 q 501 655 469 624 l 519 642 q 479 565 490 598 q 469 439 469 533 l 469 199 q 476 121 469 136 q 507 98 486 98 q 547 116 519 98 l 561 98 m 332 333 l 186 395 q 156 248 156 321 q 203 132 156 186 q 243 93 217 115 l 332 164 l 332 333 m 332 526 l 96 604 l 199 418 l 332 361 l 332 526 m 463 795 l 245 841 l 196 962 l 317 962 l 463 795 z "},"":{"ha":566,"x_min":41,"x_max":561,"o":"m 561 98 l 414 -18 q 357 46 374 18 q 332 131 338 80 l 148 -18 q 89 36 107 14 q 41 165 41 95 q 87 309 41 236 q 172 416 115 351 l 52 628 q 92 627 76 627 q 250 685 173 627 q 438 624 371 624 q 501 655 469 624 l 519 642 q 479 565 490 598 q 469 439 469 533 l 469 199 q 476 121 469 136 q 507 98 486 98 q 547 116 519 98 l 561 98 m 332 333 l 186 395 q 156 248 156 321 q 203 132 156 186 q 243 93 217 115 l 332 164 l 332 333 m 332 526 l 96 604 l 199 418 l 332 361 l 332 526 m 87 785 l 286 992 l 516 859 l 428 769 l 225 879 l 117 769 l 87 785 z "},"":{"ha":566,"x_min":41,"x_max":561,"o":"m 561 98 l 414 -18 q 357 46 374 18 q 332 131 338 80 l 148 -18 q 89 36 107 14 q 41 165 41 95 q 87 309 41 236 q 172 416 115 351 l 52 628 q 92 627 76 627 q 250 685 173 627 q 438 624 371 624 q 501 655 469 624 l 519 642 q 479 565 490 598 q 469 439 469 533 l 469 199 q 476 121 469 136 q 507 98 486 98 q 547 116 519 98 l 561 98 m 332 333 l 186 395 q 156 248 156 321 q 203 132 156 186 q 243 93 217 115 l 332 164 l 332 333 m 332 526 l 96 604 l 199 418 l 332 361 l 332 526 m 89 878 l 176 964 l 262 878 l 176 790 l 89 878 m 347 878 l 434 964 l 520 878 l 434 790 l 347 878 z "},"":{"ha":566,"x_min":41,"x_max":561,"o":"m 561 98 l 414 -18 q 357 46 374 18 q 332 131 338 80 l 148 -18 q 89 36 107 14 q 41 165 41 95 q 87 309 41 236 q 172 416 115 351 l 52 628 q 92 627 76 627 q 250 685 173 627 q 438 624 371 624 q 501 655 469 624 l 519 642 q 479 565 490 598 q 469 439 469 533 l 469 199 q 476 121 469 136 q 507 98 486 98 q 547 116 519 98 l 561 98 m 332 333 l 186 395 q 156 248 156 321 q 203 132 156 186 q 243 93 217 115 l 332 164 l 332 333 m 332 526 l 96 604 l 199 418 l 332 361 l 332 526 m 74 843 l 242 984 l 427 880 l 518 961 l 548 939 l 355 770 l 172 876 l 103 821 l 74 843 z "},"":{"ha":566,"x_min":41,"x_max":561,"o":"m 561 98 l 414 -18 q 357 46 374 18 q 332 131 338 80 l 148 -18 q 89 36 107 14 q 41 165 41 95 q 87 309 41 236 q 172 416 115 351 l 52 628 q 92 627 76 627 q 250 685 173 627 q 438 624 371 624 q 501 655 469 624 l 519 642 q 479 565 490 598 q 469 439 469 533 l 469 199 q 476 121 469 136 q 507 98 486 98 q 547 116 519 98 l 561 98 m 332 333 l 186 395 q 156 248 156 321 q 203 132 156 186 q 243 93 217 115 l 332 164 l 332 333 m 332 526 l 96 604 l 199 418 l 332 361 l 332 526 m 323 728 q 243 772 278 743 q 195 872 195 811 q 323 1037 195 968 q 453 890 453 996 q 408 787 453 836 q 323 728 376 751 m 366 787 q 400 858 400 814 q 349 948 400 913 q 279 978 319 969 q 247 899 247 943 q 294 820 247 855 q 366 787 320 800 z "},"":{"ha":427,"x_min":43,"x_max":427,"o":"m 195 -81 q 235 -124 223 -109 q 258 -183 258 -154 q 159 -313 258 -264 l 151 -306 q 178 -234 178 -262 q 129 -147 178 -187 q 90 -123 115 -136 l 243 0 l 227 7 q 114 51 154 41 q 58 59 87 56 l 58 77 q 87 109 79 91 q 98 181 97 131 l 98 463 q 91 517 98 507 q 43 532 82 531 l 43 549 q 256 685 150 580 l 418 595 l 349 493 l 234 557 l 234 136 l 353 82 l 412 129 l 427 110 l 195 -81 z "},"":{"ha":494,"x_min":45,"x_max":484,"o":"m 467 119 l 264 -18 q 149 41 214 14 q 52 71 93 64 l 52 85 q 83 114 74 97 q 97 209 96 139 l 97 456 q 91 519 97 510 q 52 534 80 534 l 45 549 q 315 685 197 614 l 484 468 l 233 258 l 233 132 q 353 71 294 102 l 452 138 l 467 119 m 233 304 l 374 420 l 233 602 l 233 304 m 114 795 l 260 962 l 380 962 l 332 841 l 114 795 z "},"":{"ha":494,"x_min":45,"x_max":484,"o":"m 467 119 l 264 -18 q 149 41 214 14 q 52 71 93 64 l 52 85 q 83 114 74 97 q 97 209 96 139 l 97 456 q 91 519 97 510 q 52 534 80 534 l 45 549 q 315 685 197 614 l 484 468 l 233 258 l 233 132 q 353 71 294 102 l 452 138 l 467 119 m 233 304 l 374 420 l 233 602 l 233 304 m 380 795 l 163 841 l 114 962 l 235 962 l 380 795 z "},"":{"ha":494,"x_min":33,"x_max":485,"o":"m 467 119 l 264 -18 q 149 41 214 14 q 52 71 94 64 l 52 85 q 83 114 75 97 q 98 209 97 139 l 98 456 q 92 519 98 510 q 52 534 81 534 l 46 549 q 316 685 197 614 l 485 468 l 233 258 l 233 132 q 354 71 294 102 l 453 138 l 467 119 m 233 304 l 374 420 l 233 602 l 233 304 m 33 785 l 231 992 l 462 859 l 374 769 l 171 879 l 63 769 l 33 785 z "},"":{"ha":494,"x_min":31,"x_max":484,"o":"m 467 119 l 264 -18 q 149 41 214 14 q 52 71 93 64 l 52 85 q 83 114 74 97 q 97 209 96 139 l 97 456 q 91 519 97 510 q 52 534 80 534 l 45 549 q 315 685 197 614 l 484 468 l 233 258 l 233 132 q 353 71 294 102 l 452 138 l 467 119 m 233 304 l 374 420 l 233 602 l 233 304 m 31 878 l 119 964 l 205 878 l 119 790 l 31 878 m 289 878 l 376 964 l 463 878 l 376 790 l 289 878 z "},"":{"ha":339,"x_min":37,"x_max":329,"o":"m 329 96 l 185 -18 q 102 58 161 8 q 54 96 73 83 l 54 109 q 82 126 72 115 q 93 147 91 137 q 98 213 98 161 l 98 553 l 50 595 l 164 685 l 279 591 l 233 548 l 233 119 l 272 84 l 313 119 l 329 96 m 37 795 l 182 962 l 303 962 l 254 841 l 37 795 z "},"":{"ha":339,"x_min":37,"x_max":329,"o":"m 329 96 l 185 -18 q 102 58 161 8 q 54 96 73 83 l 54 109 q 82 126 72 115 q 93 147 91 137 q 98 213 98 161 l 98 553 l 50 595 l 164 685 l 279 591 l 233 548 l 233 119 l 272 84 l 313 119 l 329 96 m 303 795 l 85 841 l 37 962 l 157 962 l 303 795 z "},"":{"ha":339,"x_min":-45,"x_max":385,"o":"m 329 96 l 185 -18 q 102 58 161 8 q 54 96 73 83 l 54 109 q 82 126 72 115 q 93 147 91 137 q 98 213 98 161 l 98 553 l 50 595 l 164 685 l 279 591 l 233 548 l 233 119 l 272 84 l 313 119 l 329 96 m -45 785 l 154 992 l 385 859 l 296 769 l 94 879 l -14 769 l -45 785 z "},"":{"ha":339,"x_min":-22,"x_max":361,"o":"m 328 96 l 184 -18 q 102 58 160 8 q 53 96 72 83 l 53 109 q 81 126 71 115 q 92 147 90 137 q 97 213 97 161 l 97 553 l 49 595 l 163 685 l 279 591 l 232 548 l 232 119 l 271 84 l 313 119 l 328 96 m -22 878 l 65 964 l 151 878 l 65 790 l -22 878 m 187 878 l 275 964 l 361 878 l 275 790 l 187 878 z "},"":{"ha":617,"x_min":17,"x_max":612,"o":"m 17 581 l 155 685 q 225 612 212 637 q 234 545 234 593 l 406 685 l 506 586 l 571 648 l 591 625 q 545 572 561 598 q 527 533 530 549 q 520 446 520 511 l 520 212 q 526 125 520 144 q 553 102 533 102 q 596 127 565 102 l 612 100 l 467 -18 q 395 64 407 36 q 384 187 384 94 l 384 534 l 329 590 l 234 511 l 234 130 l 281 79 l 161 -18 l 43 83 l 98 133 l 98 488 q 91 559 98 547 q 68 575 82 575 q 33 561 56 575 l 17 581 m 72 843 l 240 984 l 425 880 l 516 961 l 546 939 l 353 770 l 170 876 l 101 821 l 72 843 z "},"":{"ha":541,"x_min":31,"x_max":485,"o":"m 485 585 l 485 126 l 485 100 l 485 92 q 284 -18 346 35 q 31 87 161 81 l 31 104 q 55 127 48 116 q 70 257 68 148 l 70 572 q 266 685 181 606 q 485 585 368 612 m 205 576 l 205 156 l 349 94 l 349 514 l 205 576 m 137 795 l 283 962 l 404 962 l 355 841 l 137 795 z "},"":{"ha":541,"x_min":31,"x_max":485,"o":"m 485 585 l 485 126 l 485 100 l 485 92 q 284 -18 346 35 q 31 87 161 81 l 31 104 q 55 127 48 116 q 70 257 68 148 l 70 572 q 266 685 181 606 q 485 585 368 612 m 205 576 l 205 156 l 349 94 l 349 514 l 205 576 m 404 795 l 186 841 l 137 962 l 258 962 l 404 795 z "},"":{"ha":541,"x_min":31,"x_max":485,"o":"m 485 585 l 485 126 l 485 100 l 485 92 q 284 -18 346 35 q 31 87 161 81 l 31 104 q 55 127 48 116 q 70 257 68 148 l 70 572 q 266 685 181 606 q 485 585 368 612 m 205 576 l 205 156 l 349 94 l 349 514 l 205 576 m 56 785 l 254 992 l 485 859 l 397 769 l 194 879 l 86 769 l 56 785 z "},"":{"ha":541,"x_min":31,"x_max":485,"o":"m 485 585 l 485 126 l 485 100 l 485 92 q 284 -18 346 35 q 31 87 161 81 l 31 104 q 55 127 48 116 q 70 257 68 148 l 70 572 q 266 685 181 606 q 485 585 368 612 m 205 576 l 205 156 l 349 94 l 349 514 l 205 576 m 43 878 l 131 964 l 217 878 l 131 790 l 43 878 m 301 878 l 389 964 l 475 878 l 389 790 l 301 878 z "},"":{"ha":541,"x_min":31,"x_max":507,"o":"m 485 585 l 485 126 l 485 100 l 485 92 q 284 -18 346 35 q 31 87 161 81 l 31 104 q 55 127 48 116 q 70 257 68 148 l 70 572 q 266 685 181 606 q 485 585 368 612 m 205 576 l 205 156 l 349 94 l 349 514 l 205 576 m 33 843 l 201 984 l 386 880 l 477 961 l 507 939 l 315 770 l 131 876 l 62 821 l 33 843 z "},"":{"ha":624,"x_min":22,"x_max":614,"o":"m 22 560 l 163 685 l 279 584 l 232 543 l 232 144 l 294 95 l 391 184 l 391 543 l 342 584 l 455 685 l 572 584 l 526 543 l 526 176 q 533 120 526 134 q 563 98 545 98 q 594 113 575 98 l 614 89 l 476 -18 q 420 31 435 14 q 391 149 389 68 l 209 -18 q 58 88 129 59 l 58 106 q 85 124 78 114 q 97 203 96 137 l 97 538 l 68 560 l 40 538 l 22 560 m 178 795 l 324 962 l 445 962 l 396 841 l 178 795 z "},"":{"ha":624,"x_min":22,"x_max":614,"o":"m 22 560 l 163 685 l 279 584 l 232 543 l 232 144 l 294 95 l 391 184 l 391 543 l 342 584 l 455 685 l 572 584 l 526 543 l 526 176 q 533 120 526 134 q 563 98 545 98 q 594 113 575 98 l 614 89 l 476 -18 q 420 31 435 14 q 391 149 389 68 l 209 -18 q 58 88 129 59 l 58 106 q 85 124 78 114 q 97 203 96 137 l 97 538 l 68 560 l 40 538 l 22 560 m 445 795 l 227 841 l 178 962 l 299 962 l 445 795 z "},"":{"ha":624,"x_min":22,"x_max":614,"o":"m 22 560 l 163 685 l 279 584 l 232 543 l 232 144 l 294 95 l 391 184 l 391 543 l 342 584 l 455 685 l 572 584 l 526 543 l 526 176 q 533 120 526 134 q 563 98 545 98 q 594 113 575 98 l 614 89 l 476 -18 q 420 31 435 14 q 391 149 389 68 l 209 -18 q 58 88 129 59 l 58 106 q 85 124 78 114 q 97 203 96 137 l 97 538 l 68 560 l 40 538 l 22 560 m 97 785 l 296 992 l 526 859 l 438 769 l 235 879 l 127 769 l 97 785 z "},"":{"ha":624,"x_min":22,"x_max":614,"o":"m 22 560 l 163 685 l 279 584 l 232 543 l 232 144 l 294 95 l 391 184 l 391 543 l 342 584 l 455 685 l 572 584 l 526 543 l 526 176 q 533 120 526 134 q 563 98 545 98 q 594 113 575 98 l 614 89 l 476 -18 q 420 31 435 14 q 391 149 389 68 l 209 -18 q 58 88 129 59 l 58 106 q 85 124 78 114 q 97 203 96 137 l 97 538 l 68 560 l 40 538 l 22 560 m 104 878 l 191 964 l 277 878 l 191 790 l 104 878 m 361 878 l 449 964 l 535 878 l 449 790 l 361 878 z "},"":{"ha":685,"x_min":46,"x_max":639,"o":"m 327 -205 q 303 171 326 37 q 264 338 286 281 q 241 396 255 364 q 283 444 271 425 q 327 576 328 516 q 138 497 227 573 l 46 593 l 138 688 q 180 663 145 685 q 267 626 210 645 q 327 614 306 614 q 297 744 321 684 q 259 816 282 781 q 241 844 245 836 l 343 940 l 446 844 q 406 780 425 817 q 377 707 387 742 q 362 614 361 648 q 370 614 368 614 q 547 688 446 614 l 639 593 l 547 497 q 501 530 539 502 q 417 568 469 555 q 362 576 387 576 l 363 568 q 379 498 369 522 q 446 396 426 412 q 394 224 413 321 q 371 37 383 168 q 359 -158 359 -94 q 362 -205 359 -178 l 327 -205 z "},"":{"ha":488,"x_min":37,"x_max":450,"o":"m 243 518 q 115 581 170 541 q 37 726 37 638 q 243 963 37 866 q 381 895 334 937 q 450 753 450 835 q 378 602 450 674 q 243 518 328 551 m 311 604 q 366 705 366 643 q 283 836 366 785 q 174 878 237 865 q 121 765 121 828 q 196 651 121 702 q 311 604 238 623 z "},"":{"ha":685,"x_min":151,"x_max":534,"o":"m 341 265 l 460 212 l 519 258 l 534 239 l 394 127 l 394 107 q 398 8 395 55 l 353 -20 l 357 60 l 357 85 l 357 118 l 357 123 q 277 163 323 145 q 165 189 219 184 l 165 206 q 195 239 186 220 q 205 311 204 260 l 205 593 q 198 646 205 637 q 151 662 189 661 l 151 679 q 356 808 256 709 l 351 918 l 398 946 l 394 798 l 526 725 l 456 623 l 341 687 l 341 265 z "},"":{"ha":762,"x_min":62,"x_max":682,"o":"m 201 728 l 524 888 l 682 792 l 579 672 l 397 783 q 366 724 376 749 q 346 631 346 682 q 379 481 346 561 l 537 481 l 494 368 l 397 368 q 397 349 397 355 q 356 203 397 271 q 322 155 345 184 q 501 172 430 172 q 677 127 593 172 l 604 -18 q 501 24 552 9 q 338 54 407 54 q 151 12 247 54 q 98 -18 124 -1 l 83 6 q 279 142 165 86 q 281 182 281 169 q 240 368 281 266 l 62 368 l 102 481 l 201 481 q 178 618 178 568 q 201 728 178 663 z "},"":{"ha":685,"x_min":75,"x_max":610,"o":"m 132 -112 l 191 -5 l 457 -101 q 479 -62 460 -96 q 486 -33 486 -50 q 431 56 486 14 q 260 163 399 78 q 132 262 176 214 q 75 400 75 322 q 92 476 75 437 q 134 542 108 515 q 183 591 178 587 q 136 699 136 639 q 214 863 136 778 q 293 940 246 897 l 556 845 l 492 742 l 229 837 q 199 766 199 793 q 231 703 199 735 q 310 647 251 683 q 521 507 479 542 q 589 429 568 467 q 610 340 610 389 q 549 193 610 262 q 503 146 541 183 q 549 35 549 98 q 474 -124 549 -39 q 397 -205 444 -159 l 132 -112 m 206 570 q 174 537 182 547 q 142 461 142 503 q 176 385 142 422 q 309 287 214 344 q 482 165 454 199 q 545 273 545 224 q 488 373 545 320 q 352 467 458 402 q 206 570 255 527 z "},"":{"ha":926,"x_min":272,"x_max":657,"o":"m 467 663 q 600 607 544 663 q 657 471 657 551 q 601 334 657 391 q 465 278 545 278 q 330 334 386 278 q 272 471 272 391 q 329 608 272 553 q 467 663 387 663 z "},"":{"ha":795,"x_min":46,"x_max":783,"o":"m 469 289 q 359 262 436 286 q 245 218 286 239 l 46 397 l 46 636 q 79 791 47 734 q 229 936 121 863 q 308 986 264 960 l 469 873 l 469 972 l 500 972 l 500 852 l 562 809 l 562 972 l 689 972 l 689 718 l 783 652 l 766 627 l 689 681 l 689 -205 l 562 -205 l 562 770 l 500 814 l 500 -205 l 469 -205 l 469 289 m 469 837 l 399 886 q 245 788 298 837 q 193 721 208 753 q 179 645 179 689 l 179 600 l 179 342 q 297 391 244 374 q 385 413 334 403 q 458 424 436 424 q 469 423 460 424 l 469 837 z "},"":{"ha":597,"x_min":45,"x_max":591,"o":"m 273 76 l 155 -19 q 104 28 134 5 q 45 65 74 51 l 45 94 q 76 118 68 103 q 88 222 87 140 l 88 780 q 171 838 99 788 q 273 913 262 905 l 414 797 q 488 745 469 752 q 513 739 501 739 q 532 741 519 739 l 541 728 l 370 534 q 418 539 399 539 q 545 483 498 539 q 591 357 591 427 q 536 234 591 291 q 439 153 513 210 q 332 57 361 94 q 307 -5 307 24 q 329 -54 307 -35 q 361 -67 344 -67 q 385 -61 370 -67 q 407 -56 398 -56 q 426 -77 426 -56 q 383 -106 426 -106 q 296 -67 330 -106 q 271 -4 271 -39 q 304 86 271 37 q 366 160 315 102 q 439 326 439 243 q 406 411 439 382 q 341 435 377 435 q 248 403 302 435 l 233 418 l 422 636 q 324 713 387 662 q 222 801 261 765 l 222 132 l 273 76 z "},"":{"ha":1120,"x_min":37,"x_max":1083,"o":"m 670 268 l 572 174 q 415 225 499 225 q 278 182 340 225 l 267 196 q 411 301 328 289 q 411 311 411 308 q 371 409 411 365 q 266 478 330 456 l 266 494 l 408 593 l 408 606 q 398 664 408 646 q 338 696 380 696 q 282 677 311 696 l 268 692 q 385 750 315 750 q 475 709 445 750 q 495 654 493 686 l 638 751 l 768 574 l 650 494 q 713 442 694 466 q 753 368 737 411 q 770 315 755 363 q 804 252 786 266 l 833 280 l 852 259 l 762 174 q 722 214 736 194 q 693 289 707 237 q 633 404 669 372 q 568 439 603 431 l 556 431 l 556 281 q 614 252 587 268 l 652 288 l 670 268 m 408 536 l 339 488 q 408 438 376 467 l 408 536 m 496 294 q 528 286 511 290 l 528 639 l 496 616 l 496 294 m 556 460 l 677 544 l 583 677 l 556 659 l 556 460 m 105 694 l 602 992 q 930 851 806 960 q 1083 531 1083 716 q 898 155 1083 332 q 690 18 795 55 q 467 -24 568 -24 q 246 31 353 -24 q 69 222 122 95 q 37 393 37 298 q 105 694 37 535 m 475 879 l 157 689 q 100 462 100 545 q 122 357 100 416 q 182 245 144 298 q 352 114 239 165 q 585 59 472 59 q 798 125 695 59 q 959 315 909 197 q 991 478 991 391 q 896 733 991 641 q 475 879 751 871 z "},"":{"ha":1120,"x_min":37,"x_max":1083,"o":"m 762 342 l 776 326 q 532 175 680 175 q 345 260 420 175 q 279 441 279 335 q 357 634 279 550 q 456 707 395 676 l 468 692 q 405 632 428 659 q 353 489 353 572 q 395 357 353 417 q 411 376 406 365 q 419 435 419 391 l 419 611 l 583 751 q 769 706 672 704 l 684 626 q 567 665 625 635 l 567 266 q 574 266 572 266 q 697 299 631 266 q 762 342 728 315 m 540 671 l 508 643 l 508 519 q 501 433 507 448 q 440 359 488 400 l 411 335 q 540 268 463 275 l 540 671 m 105 694 l 602 992 q 930 851 806 960 q 1083 531 1083 716 q 898 155 1083 332 q 690 18 795 55 q 467 -24 568 -24 q 246 31 353 -24 q 69 222 122 95 q 37 393 37 298 q 105 694 37 535 m 475 879 l 157 689 q 100 462 100 545 q 122 357 100 416 q 182 245 144 298 q 352 114 239 165 q 585 59 472 59 q 798 125 695 59 q 959 315 909 197 q 991 478 991 391 q 896 733 991 641 q 475 879 751 871 z "},"":{"ha":1301,"x_min":-28,"x_max":1308,"o":"m 389 828 l 389 475 q 471 514 431 484 q 542 592 514 546 l 563 587 q 494 471 547 522 q 294 391 412 391 q 81 477 164 391 q 23 621 23 536 q 67 763 23 696 q 173 857 94 804 q 148 857 157 857 q -7 757 41 857 l -28 766 q 19 862 -14 824 q 187 934 82 934 q 349 917 233 934 q 458 905 431 905 q 542 948 515 905 l 562 942 q 536 874 559 900 q 416 827 494 827 q 389 828 403 827 m 360 832 q 312 840 336 836 l 312 650 q 304 587 312 608 q 248 526 294 562 q 210 498 230 512 q 325 468 262 468 q 360 471 341 468 l 360 832 m 216 852 q 161 810 182 836 q 109 666 109 745 q 184 515 109 578 q 208 541 202 527 q 216 623 216 555 l 216 852 m 1308 460 l 1206 387 q 1162 423 1177 404 q 1147 453 1149 437 q 1143 509 1143 467 l 1143 836 l 1090 875 l 1074 865 l 1074 701 l 1127 701 l 1074 637 l 1074 503 l 1099 522 l 1119 503 l 972 386 q 878 466 932 430 l 878 480 q 896 492 892 488 q 905 534 905 500 l 905 635 l 807 635 l 807 493 q 781 397 807 427 q 739 368 766 379 q 684 356 712 356 q 635 359 672 356 q 610 360 622 360 q 572 327 578 360 l 546 327 q 546 339 546 334 q 573 412 546 391 q 629 429 590 425 q 679 443 663 432 q 705 503 705 461 q 677 582 705 549 q 625 609 654 609 q 582 584 603 609 l 560 598 q 666 666 587 656 q 680 753 667 720 q 808 872 706 818 q 932 934 842 890 q 987 890 972 915 q 998 846 995 876 l 1138 937 l 1226 873 q 1261 905 1242 888 l 1284 888 q 1257 857 1267 871 q 1245 833 1246 842 q 1240 768 1240 827 l 1240 517 q 1242 481 1240 488 q 1261 463 1245 471 l 1287 481 l 1308 460 m 1047 635 l 1000 635 l 1000 553 q 1008 486 1000 496 q 1027 475 1017 475 q 1047 484 1038 475 l 1047 635 m 1000 701 l 1047 701 l 1047 847 l 1000 817 l 1000 701 m 905 701 l 905 786 q 897 850 905 838 q 871 873 890 863 q 831 846 846 859 q 812 813 817 831 q 807 751 807 795 l 807 665 l 836 701 l 905 701 m 711 427 q 770 448 756 428 q 780 519 779 461 l 780 749 q 787 823 780 789 q 761 782 766 802 q 757 699 757 768 l 757 548 q 745 460 756 481 q 711 427 736 444 z "},"":{"ha":452,"x_min":93,"x_max":359,"o":"m 93 795 l 239 962 l 359 962 l 311 841 l 93 795 z "},"":{"ha":616,"x_min":93,"x_max":524,"o":"m 93 878 l 180 964 l 267 878 l 180 790 l 93 878 m 351 878 l 438 964 l 524 878 l 438 790 l 351 878 z "},"":{"ha":694,"x_min":46,"x_max":648,"o":"m 372 645 l 448 799 l 535 758 l 479 645 l 648 645 l 648 527 l 425 527 l 370 412 l 648 412 l 648 294 l 315 294 l 242 145 l 155 185 l 208 294 l 46 294 l 46 412 l 262 412 l 318 527 l 46 527 l 46 645 l 372 645 z "},"":{"ha":1270,"x_min":37,"x_max":1261,"o":"m 1261 134 l 1088 -24 q 823 48 958 48 q 577 -18 685 48 l 561 -2 q 631 60 594 31 l 631 140 l 387 -37 q 248 60 326 10 q 125 115 161 115 q 106 108 115 115 q 94 87 94 99 q 102 64 94 77 q 120 21 120 36 q 83 -17 120 -17 q 50 -1 62 -17 q 37 37 37 15 q 51 91 37 66 q 123 199 74 133 l 224 337 q 112 436 153 385 q 58 604 58 503 q 112 785 58 711 q 265 911 173 869 q 416 944 335 944 q 628 886 530 944 q 753 787 687 850 l 987 945 q 1149 865 1047 865 q 1236 885 1197 865 l 1251 870 q 1200 810 1232 835 q 1065 763 1137 763 q 899 846 968 763 l 848 814 l 848 526 l 924 588 q 981 547 950 562 q 1059 527 1023 527 q 1162 570 1112 527 l 1181 551 q 1123 476 1156 504 q 970 422 1057 422 q 848 463 916 422 l 848 131 q 996 161 930 161 q 1133 125 1061 161 q 1181 97 1152 115 l 1243 154 l 1261 134 m 821 795 l 764 758 l 764 91 q 821 119 793 107 l 821 795 m 631 716 q 579 758 605 740 l 309 401 l 631 387 l 631 716 m 631 290 l 239 308 l 180 229 l 494 77 l 631 178 l 631 290 m 442 628 q 361 656 399 656 q 265 606 313 656 l 249 616 q 406 746 292 746 q 512 719 453 746 l 553 776 q 382 830 465 830 q 190 767 270 830 q 112 595 112 705 q 244 363 112 461 l 442 628 z "},"":{"ha":1019,"x_min":33,"x_max":986,"o":"m 94 673 l 547 945 q 762 876 665 929 l 854 990 l 898 966 l 805 850 q 911 745 868 803 q 986 528 986 642 q 833 203 986 363 q 587 22 710 76 q 430 -14 504 -14 q 180 77 302 -14 l 87 -37 l 43 -12 l 141 110 q 33 401 33 237 q 94 673 33 512 m 274 746 q 139 479 139 642 q 226 228 139 348 q 258 265 250 247 q 274 401 273 296 l 274 746 m 472 821 q 406 827 439 825 l 406 503 q 401 385 406 405 q 359 305 394 344 q 249 203 294 232 q 351 130 284 163 q 472 92 416 98 l 472 821 m 507 91 q 652 127 582 90 q 824 336 769 192 q 663 419 747 419 q 507 346 578 419 l 507 91 m 507 388 q 657 449 587 449 q 833 370 754 449 q 852 491 852 434 q 833 597 852 546 q 669 536 749 536 q 545 572 607 536 q 507 597 530 581 l 507 388 m 507 629 q 664 564 589 564 q 820 627 751 564 q 676 763 783 704 q 507 817 590 808 l 507 629 z "},"":{"ha":926,"x_min":24,"x_max":901,"o":"m 466 385 q 241 254 366 254 q 73 328 135 254 q 24 473 24 387 q 92 634 24 574 q 241 690 155 690 q 409 618 330 690 q 460 560 436 594 q 684 690 553 690 q 858 610 796 690 q 901 472 901 554 q 833 308 901 368 q 686 254 772 254 q 466 385 559 254 m 528 473 q 669 366 597 366 q 745 399 715 366 q 771 472 771 429 q 733 555 771 526 q 668 578 704 578 q 561 518 610 578 q 541 492 554 510 q 528 473 528 473 m 397 472 q 256 578 330 578 q 181 545 211 578 q 155 472 155 515 q 193 389 155 420 q 258 366 222 366 q 365 427 315 366 q 385 453 372 435 q 397 472 397 471 z "},"":{"ha":685,"x_min":106,"x_max":578,"o":"m 312 512 l 312 699 l 373 699 l 373 512 l 578 512 l 530 414 l 373 414 l 373 227 l 312 227 l 312 414 l 106 414 l 157 512 l 312 512 m 106 43 l 157 141 l 578 141 l 530 43 l 106 43 z "},"":{"ha":694,"x_min":46,"x_max":648,"o":"m 648 879 l 648 753 l 186 546 l 648 338 l 648 213 l 46 488 l 46 600 l 648 879 m 648 173 l 648 50 l 46 50 l 46 173 l 648 173 z "},"":{"ha":694,"x_min":46,"x_max":648,"o":"m 46 213 l 46 338 l 507 547 l 46 753 l 46 879 l 648 600 l 648 488 l 46 213 m 46 50 l 46 173 l 648 173 l 648 50 l 46 50 z "},"":{"ha":685,"x_min":-7,"x_max":692,"o":"m 263 0 l 263 343 l 134 343 l 184 440 l 277 440 l 253 528 l 83 528 l 134 625 l 227 625 l 208 698 q 168 810 182 793 q 121 833 149 833 q 12 780 71 833 l -7 796 q 50 878 20 850 q 113 920 77 904 q 182 935 150 935 q 252 895 227 935 q 298 763 276 854 l 363 486 l 510 943 l 692 836 l 640 725 l 513 810 l 450 625 l 602 625 l 553 528 l 417 528 l 389 440 l 532 440 l 484 343 l 403 343 l 403 0 l 263 0 z "},"":{"ha":694,"x_min":54,"x_max":642,"o":"m 54 -236 l 54 667 l 186 667 l 186 299 q 199 183 186 219 q 273 101 220 127 q 347 83 308 83 q 466 142 420 83 q 501 216 492 176 q 509 309 509 248 l 509 667 l 642 667 l 642 0 l 509 0 l 509 103 q 458 27 486 52 q 342 -16 411 -16 q 186 79 244 -16 l 186 -236 l 54 -236 z "},"":{"ha":694,"x_min":35,"x_max":660,"o":"m 106 812 l 123 928 q 332 878 245 912 q 486 780 416 844 q 597 631 555 715 q 660 353 660 506 q 600 121 660 212 q 488 19 557 55 q 347 -14 422 -14 q 166 45 248 -14 q 69 157 104 90 q 35 301 35 225 q 59 423 35 363 q 127 524 84 483 q 323 602 208 602 q 456 568 401 602 q 514 515 480 552 q 438 649 474 607 q 327 740 389 706 q 201 794 254 779 q 106 812 162 805 m 348 505 q 224 447 276 505 q 169 295 169 387 q 229 137 169 199 q 347 85 279 85 q 471 145 420 85 q 525 300 525 208 q 462 461 525 404 q 348 505 414 505 z "},"":{"ha":926,"x_min":35,"x_max":855,"o":"m 842 1042 l 842 712 l 724 712 l 710 918 l 183 918 l 532 374 l 183 -224 l 724 -224 l 731 -20 l 855 -20 l 855 -347 l 35 -347 l 35 -210 l 377 374 l 35 905 l 35 1042 l 842 1042 z "},"":{"ha":989,"x_min":53,"x_max":937,"o":"m 53 1042 l 937 1042 l 937 919 l 824 919 l 824 -224 l 937 -224 l 937 -347 l 579 -347 l 579 -224 l 692 -224 l 692 919 l 297 919 l 297 -224 l 410 -224 l 410 -347 l 53 -347 l 53 -224 l 165 -224 l 165 919 l 53 919 l 53 1042 z "},"":{"ha":852,"x_min":44,"x_max":808,"o":"m 149 0 l 149 547 l 44 547 l 44 666 l 808 666 l 808 547 l 705 547 l 705 0 l 573 0 l 573 547 l 281 547 l 281 0 l 149 0 z "},"":{"ha":694,"x_min":107,"x_max":588,"o":"m 107 -332 l 134 -215 q 202 -229 174 -229 q 279 -160 270 -229 q 281 -54 281 -138 l 281 724 q 294 921 281 874 q 362 1011 311 977 q 481 1042 408 1042 q 588 1027 524 1042 l 562 909 q 494 923 522 923 q 416 854 425 923 q 414 685 414 839 l 414 -30 q 403 -215 414 -169 q 311 -326 385 -294 q 205 -345 266 -345 q 107 -332 150 -345 z "},"":{"ha":386,"x_min":34,"x_max":378,"o":"m 378 433 l 277 358 q 237 400 248 383 q 221 446 225 419 l 106 358 q 34 475 34 412 q 64 564 34 519 q 116 626 82 589 l 37 758 q 71 757 58 757 q 172 793 122 757 q 292 755 250 755 q 332 775 311 755 l 351 763 q 323 714 330 734 q 317 639 317 696 l 317 495 q 326 442 317 451 q 336 438 331 438 q 363 451 343 438 l 378 433 m 220 572 l 134 607 q 117 525 117 567 q 168 437 117 479 l 220 476 l 220 572 m 220 688 l 83 730 l 143 630 l 220 599 l 220 688 z "},"":{"ha":369,"x_min":26,"x_max":326,"o":"m 326 731 l 326 451 l 326 435 l 326 427 q 193 358 233 391 q 26 423 112 420 l 26 440 q 42 454 38 448 q 51 530 50 465 l 51 723 q 181 793 125 744 q 326 731 248 748 m 146 715 l 146 472 l 230 438 l 230 682 l 146 715 z "},"":{"ha":926,"x_min":39,"x_max":886,"o":"m 39 0 l 39 119 l 265 119 q 121 242 172 174 q 39 507 39 349 q 174 832 39 703 q 463 948 294 948 q 753 832 633 948 q 886 507 886 703 q 795 231 886 340 q 662 119 745 170 l 886 119 l 886 0 l 519 0 l 519 106 q 658 215 610 157 q 751 491 751 328 q 665 733 751 635 q 465 829 580 829 q 275 750 357 829 q 175 492 175 653 q 408 106 175 235 l 408 0 l 39 0 z "},"":{"ha":723,"x_min":41,"x_max":714,"o":"m 328 60 l 155 -18 q 41 159 41 59 q 170 411 41 273 l 52 625 q 101 621 82 621 q 245 685 172 621 q 423 623 339 629 l 541 690 l 714 476 l 467 264 l 467 134 q 587 70 531 113 l 686 141 l 699 122 l 500 -18 q 421 26 467 5 q 328 60 375 47 m 331 522 l 95 596 l 198 414 l 331 304 l 331 522 m 331 269 l 189 391 q 153 245 153 319 q 200 123 153 186 q 257 64 226 87 l 331 96 l 331 269 m 467 307 l 602 425 l 467 597 l 467 307 z "},"":{"ha":532,"x_min":-22,"x_max":583,"o":"m 444 595 l 542 709 l 583 685 l 481 565 l 481 134 l 481 102 l 481 92 q 377 45 437 77 q 281 -19 314 11 q 170 51 238 20 q 79 79 108 79 q 53 60 53 79 q 60 32 53 49 q 73 -10 73 4 q 60 -37 73 -26 q 28 -48 47 -48 q -8 -33 6 -48 q -22 6 -22 -18 q 38 113 -22 55 q 60 143 55 130 q 69 241 69 168 l 69 571 q 263 685 199 621 q 350 633 321 647 q 444 595 391 612 m 203 316 l 347 483 l 347 513 l 203 575 l 203 316 m 203 157 l 347 96 l 347 411 l 203 243 l 203 157 z "},"":{"ha":444,"x_min":45,"x_max":397,"o":"m 397 -35 l 299 -203 q 153 -176 207 -203 q 45 -10 45 -123 q 85 105 45 46 q 145 181 104 133 q 220 293 203 248 q 245 429 236 339 l 271 429 q 272 399 272 409 q 252 252 272 322 q 203 126 246 232 q 184 34 184 78 q 226 -48 184 -16 q 289 -71 254 -71 q 381 -24 331 -71 l 397 -35 m 358 577 l 260 479 l 162 577 l 260 675 l 358 577 z "},"":{"ha":397,"x_min":83,"x_max":313,"o":"m 313 -90 l 201 -203 l 83 -85 q 182 432 174 127 l 216 432 q 313 -90 232 114 m 300 576 l 201 477 l 102 576 l 201 675 l 300 576 z "},"":{"ha":694,"x_min":46,"x_max":648,"o":"m 515 0 l 515 248 l 46 248 l 46 370 l 648 370 l 648 0 l 515 0 z "},"":{"ha":926,"x_min":0,"x_max":926,"o":"m 926 1153 l 926 1030 l 663 1030 l 391 0 l 222 0 l 121 399 l 0 399 l 0 523 l 230 523 l 271 366 q 302 170 280 327 l 313 170 q 350 374 332 289 q 410 618 368 460 l 549 1153 l 926 1153 z "},"":{"ha":685,"x_min":-208,"x_max":763,"o":"m 286 517 l 113 517 l 180 614 l 302 614 l 338 818 q 486 935 435 867 q 629 867 570 867 q 744 935 689 867 l 763 931 q 715 832 747 871 q 575 763 658 763 q 461 794 526 763 l 429 614 l 605 614 l 549 516 l 412 516 l 303 -103 l 20 -260 q -1 -250 4 -252 q -114 -203 -88 -203 q -182 -260 -151 -203 l -208 -252 q -172 -180 -194 -212 q -49 -100 -118 -100 q 71 -141 -4 -100 q 126 -174 91 -152 q 163 -132 154 -159 q 195 2 177 -96 l 286 517 z "},"":{"ha":694,"x_min":12,"x_max":682,"o":"m 87 483 l 12 532 q 62 625 36 587 q 210 704 119 704 q 361 661 259 704 q 448 627 429 631 q 490 621 469 621 q 566 652 536 621 q 605 707 583 669 l 682 662 q 596 538 640 573 q 473 494 541 494 q 405 508 448 494 q 276 559 366 521 q 198 577 231 577 q 124 541 156 577 q 87 483 106 522 m 87 231 l 12 280 q 62 373 35 335 q 210 453 119 453 q 361 410 260 453 q 448 376 429 381 q 490 370 470 370 q 566 401 536 370 q 605 456 583 418 l 682 411 q 596 288 640 322 q 473 243 541 243 q 276 307 429 243 q 199 326 231 326 q 124 290 156 326 q 87 231 106 270 z "},"":{"ha":926,"x_min":32,"x_max":894,"o":"m 32 0 l 389 926 l 532 926 l 894 0 l 32 0 m 221 123 l 702 123 l 461 765 l 221 123 z "},"":{"ha":613,"x_min":46,"x_max":538,"o":"m 534 159 l 455 81 l 262 351 l 500 650 l 538 615 l 362 401 l 534 159 m 319 159 l 239 81 l 46 351 l 286 650 l 323 615 l 147 401 l 319 159 z "},"":{"ha":613,"x_min":74,"x_max":566,"o":"m 79 570 l 157 650 l 351 378 l 112 81 l 74 115 l 250 330 l 79 570 m 294 570 l 373 650 l 566 378 l 328 81 l 290 115 l 466 330 l 294 570 z "},"":{"ha":972,"x_min":62,"x_max":910,"o":"m 62 81 l 162 182 l 262 81 l 162 -18 l 62 81 m 386 81 l 486 182 l 586 81 l 486 -18 l 386 81 m 710 81 l 810 182 l 910 81 l 810 -18 l 710 81 z "},"":{"ha":873,"x_min":37,"x_max":878,"o":"m 878 111 l 720 -23 q 644 52 661 14 q 631 161 633 79 l 397 -23 q 228 81 302 43 q 127 114 161 114 q 105 105 115 114 q 96 84 96 96 q 112 49 96 73 q 125 14 125 29 q 115 -9 125 0 q 90 -19 105 -19 q 54 2 67 -19 q 42 42 42 20 q 55 96 42 71 q 113 190 74 133 l 214 335 q 115 421 156 372 q 37 616 37 513 q 151 857 37 755 q 390 949 254 949 q 590 899 493 949 q 687 838 627 881 q 750 898 731 882 q 832 943 781 923 l 846 920 q 770 860 792 889 q 741 745 741 823 q 741 692 741 714 l 764 222 q 775 128 767 143 q 805 104 787 104 q 856 135 819 104 l 878 111 m 624 308 l 230 308 l 176 230 l 494 95 l 629 200 l 624 308 m 603 736 q 556 774 581 758 l 298 406 l 617 406 l 603 736 m 422 636 q 345 663 381 663 q 268 631 299 663 q 248 608 260 623 l 224 618 q 386 749 274 749 q 491 733 433 749 l 530 790 q 361 834 453 834 q 172 768 250 834 q 90 600 90 701 q 146 448 90 521 q 234 366 182 401 l 422 636 m 570 1028 l 353 1074 l 304 1195 l 423 1195 l 570 1028 z "},"":{"ha":873,"x_min":37,"x_max":878,"o":"m 878 111 l 720 -23 q 644 52 661 14 q 631 161 633 79 l 397 -23 q 228 81 302 43 q 127 114 161 114 q 105 105 115 114 q 96 84 96 96 q 112 49 96 73 q 125 14 125 29 q 115 -9 125 0 q 90 -19 105 -19 q 54 2 67 -19 q 42 42 42 20 q 55 96 42 71 q 113 190 74 133 l 214 335 q 115 421 156 372 q 37 616 37 513 q 151 857 37 755 q 390 949 254 949 q 590 899 493 949 q 687 838 627 881 q 750 898 731 882 q 832 943 781 923 l 846 920 q 770 860 792 889 q 741 745 741 823 q 741 692 741 714 l 764 222 q 775 128 767 143 q 805 104 787 104 q 856 135 819 104 l 878 111 m 624 308 l 230 308 l 176 230 l 494 95 l 629 200 l 624 308 m 603 736 q 556 774 581 758 l 298 406 l 617 406 l 603 736 m 422 636 q 345 663 381 663 q 268 631 299 663 q 248 608 260 623 l 224 618 q 386 749 274 749 q 491 733 433 749 l 530 790 q 361 834 453 834 q 172 768 250 834 q 90 600 90 701 q 146 448 90 521 q 234 366 182 401 l 422 636 m 246 1060 l 416 1200 l 597 1093 l 690 1175 l 720 1152 l 526 985 l 346 1093 l 274 1038 l 246 1060 z "},"":{"ha":1015,"x_min":33,"x_max":983,"o":"m 94 673 l 546 944 q 844 816 731 916 q 983 526 983 693 q 858 233 983 378 q 593 26 736 92 q 429 -14 508 -14 q 222 48 324 -14 q 33 398 33 161 q 94 673 33 528 m 274 745 q 139 476 139 646 q 227 227 139 350 q 258 265 249 247 q 274 381 273 294 l 274 745 m 474 821 q 404 825 439 825 l 404 466 q 391 352 403 380 q 248 203 366 294 q 345 131 289 161 q 474 92 410 98 l 474 821 m 505 628 q 664 564 583 564 q 819 628 747 564 q 670 766 777 709 q 505 818 591 806 l 505 628 m 505 387 q 656 448 575 448 q 833 369 747 448 q 850 488 850 433 q 830 597 850 543 q 667 536 749 536 q 505 597 581 536 l 505 387 m 505 92 q 715 174 624 92 q 822 336 793 245 q 659 418 755 418 q 505 346 568 418 l 505 92 m 271 1060 l 440 1200 l 622 1093 l 715 1175 l 745 1152 l 551 985 l 370 1093 l 298 1038 l 271 1060 z "},"":{"ha":1487,"x_min":33,"x_max":1478,"o":"m 894 756 q 970 795 949 781 l 1204 956 q 1365 874 1263 874 q 1452 895 1413 874 l 1468 880 q 1416 819 1449 844 q 1281 771 1353 771 q 1115 856 1185 771 l 1065 823 l 1065 530 l 1140 592 q 1197 552 1166 566 q 1276 532 1240 532 q 1379 575 1329 532 l 1398 557 q 1339 481 1373 509 q 1187 426 1274 426 q 1101 446 1143 426 q 1065 467 1088 452 l 1065 130 q 1213 161 1146 161 q 1350 123 1277 161 q 1398 96 1369 113 l 1460 153 l 1478 134 l 1304 -27 q 1040 45 1173 45 q 793 -22 902 45 l 777 -5 q 847 58 810 28 l 847 220 q 673 73 766 133 q 429 -10 546 -10 q 222 50 325 -10 q 33 396 33 161 q 94 667 33 523 l 546 934 q 755 867 659 917 q 894 756 844 822 m 274 737 q 139 472 139 640 q 227 227 139 348 q 258 264 249 246 q 274 378 273 294 l 274 737 m 474 812 q 404 817 439 817 l 404 463 q 391 351 403 378 q 248 203 366 294 q 345 132 289 161 q 474 94 410 100 l 474 812 m 505 623 q 664 558 583 558 q 819 623 749 558 q 670 758 779 702 q 505 809 589 798 l 505 623 m 505 385 q 656 445 576 445 q 833 367 747 445 q 849 485 849 429 q 830 592 849 538 q 667 532 749 532 q 505 592 581 532 l 505 385 m 505 93 q 715 174 626 96 q 821 334 793 245 q 659 415 755 415 q 505 344 568 415 l 505 93 m 1037 804 l 981 766 l 981 89 q 1037 118 1009 106 l 1037 804 z "},"":{"ha":746,"x_min":31,"x_max":736,"o":"m 387 47 q 285 -18 323 15 q 31 87 161 81 l 31 104 q 55 127 48 116 q 70 257 68 148 l 70 572 q 267 685 182 607 q 398 612 329 641 l 403 610 q 437 628 412 614 q 568 701 509 665 l 736 478 l 485 264 l 485 135 q 606 74 546 106 l 705 142 l 719 122 l 515 -18 q 391 45 434 28 l 387 47 m 205 156 l 326 104 q 350 174 344 127 l 350 514 l 205 576 l 205 156 m 485 311 l 626 431 l 485 615 l 485 311 z "},"":{"ha":680,"x_min":104,"x_max":576,"o":"m 155 408 l 576 408 q 528 296 547 352 l 104 296 q 155 408 134 351 z "},"":{"ha":798,"x_min":0,"x_max":798,"o":"m 50 408 l 798 408 q 750 296 770 352 l 0 296 q 50 408 29 351 z "},"":{"ha":483,"x_min":46,"x_max":436,"o":"m 46 745 q 111 873 60 812 q 213 944 151 922 l 223 918 q 168 836 168 872 q 199 773 168 808 q 223 747 206 764 l 136 657 l 46 745 m 259 745 q 323 873 273 812 q 426 944 364 922 l 436 918 q 380 836 380 872 q 412 773 380 808 q 436 747 419 764 l 349 657 l 259 745 z "},"":{"ha":483,"x_min":46,"x_max":436,"o":"m 223 857 q 159 728 209 790 q 57 657 118 680 l 46 684 q 102 765 102 729 q 71 829 102 793 q 46 854 63 837 l 134 944 l 223 857 m 436 857 q 372 728 422 790 q 270 657 331 680 l 259 684 q 315 765 315 729 q 284 829 315 794 q 259 854 276 837 l 347 944 l 436 857 z "},"":{"ha":270,"x_min":46,"x_max":223,"o":"m 46 745 q 111 873 60 812 q 213 944 151 922 l 223 918 q 168 836 168 872 q 199 773 168 808 q 223 747 206 764 l 136 657 l 46 745 z "},"":{"ha":331,"x_min":67,"x_max":264,"o":"m 264 847 q 193 704 248 772 q 79 625 148 650 l 67 654 q 129 745 129 705 q 95 816 129 777 q 67 844 86 825 l 164 944 l 264 847 z "},"":{"ha":685,"x_min":106,"x_max":578,"o":"m 106 414 l 157 512 l 578 512 l 530 414 l 106 414 m 242 671 l 342 772 l 442 671 l 342 571 l 242 671 m 242 255 l 342 355 l 442 255 l 342 155 l 242 255 z "},"":{"ha":926,"x_min":102,"x_max":823,"o":"m 463 962 l 823 463 l 463 -36 l 102 463 l 463 962 m 463 840 l 189 463 l 463 87 l 736 463 l 463 840 z "},"":{"ha":530,"x_min":5,"x_max":517,"o":"m 5 568 l 146 685 q 224 610 205 651 q 235 528 236 583 l 427 680 q 478 610 459 648 q 517 454 517 534 q 374 181 517 295 q 182 53 296 119 q 76 -20 98 3 q 43 -95 43 -56 q 73 -152 43 -130 q 141 -172 100 -172 q 237 -134 199 -172 q 288 -104 268 -104 q 308 -112 299 -104 q 317 -132 317 -121 q 274 -178 317 -157 q 150 -201 226 -201 q 39 -167 76 -201 q 8 -91 8 -137 q 47 7 8 -44 q 81 59 69 37 q 98 174 96 86 l 98 481 q 88 557 98 546 q 64 570 79 570 q 23 549 51 570 l 5 568 m 235 492 l 235 120 q 325 218 286 157 q 382 401 382 307 q 329 568 382 494 l 235 492 m 50 878 l 137 964 l 223 878 l 137 790 l 50 878 m 307 878 l 395 964 l 481 878 l 395 790 l 307 878 z "},"":{"ha":931,"x_min":-9,"x_max":895,"o":"m 35 868 l 21 890 q 163 944 85 944 q 245 926 205 944 q 309 880 286 909 q 344 791 334 850 q 448 850 406 828 q 629 902 552 902 q 732 878 682 902 q 817 810 782 853 q 895 566 895 716 q 846 334 895 440 q 628 160 783 193 q 460 145 557 145 q 351 148 425 145 q 241 151 279 151 q 85 114 138 151 q 26 12 26 74 q 56 -66 26 -32 q 151 -106 91 -106 q 291 -73 203 -106 q 406 -31 376 -40 q 514 -14 466 -14 q 659 -68 608 -14 q 688 -138 688 -99 q 671 -186 688 -168 q 626 -204 654 -204 q 581 -184 598 -204 q 566 -143 566 -167 q 585 -92 566 -120 q 591 -78 591 -83 q 583 -65 591 -71 q 565 -60 574 -60 q 454 -100 530 -60 q 331 -161 373 -144 q 196 -191 253 -191 q 113 -174 154 -191 q 43 -129 71 -157 q -9 2 -9 -74 q 82 149 -9 96 q 214 181 138 181 q 215 212 215 201 q 155 372 215 311 q 28 431 102 425 l 28 450 q 75 456 54 456 q 214 403 147 456 q 215 432 215 420 q 167 566 215 515 q 54 616 118 616 q 28 615 45 616 l 24 637 q 99 658 61 658 q 214 615 150 658 l 214 665 q 207 782 214 751 q 146 865 193 838 q 87 882 116 882 q 35 868 64 882 m 344 181 l 407 181 l 407 787 q 344 749 373 767 l 344 181 m 437 181 q 466 180 457 180 q 680 262 600 180 q 741 370 720 303 q 583 434 664 434 q 437 377 509 434 l 437 181 m 437 414 q 583 465 507 465 q 748 404 671 465 q 758 513 758 456 q 748 612 758 565 q 692 573 715 586 q 589 548 646 548 q 437 604 503 548 l 437 414 m 437 645 q 483 609 463 623 q 584 578 530 578 q 739 645 674 578 q 685 757 724 711 q 537 829 623 829 q 437 802 497 829 l 437 645 m 250 1093 l 338 1181 l 425 1093 l 338 1004 l 250 1093 m 505 1093 l 593 1181 l 682 1093 l 593 1004 l 505 1093 z "},"":{"ha":157,"x_min":-167,"x_max":324,"o":"m -167 13 l 281 881 l 324 858 l -123 -10 l -167 13 z "},"":{"ha":694,"x_min":20,"x_max":661,"o":"m 166 618 q 215 648 188 633 q 352 753 298 699 q 389 723 373 734 q 465 684 402 715 q 545 635 509 663 l 637 728 l 661 704 l 572 614 q 632 442 632 540 q 588 303 632 363 q 535 250 572 281 l 649 136 l 625 112 l 507 230 q 480 210 494 220 q 330 94 355 121 q 290 130 310 118 q 243 153 281 134 q 159 203 198 176 l 56 100 l 33 123 l 133 224 q 81 310 95 273 q 62 409 62 358 q 138 598 62 518 l 20 716 l 44 741 l 166 618 m 262 618 q 168 578 201 618 q 146 513 146 552 q 245 316 146 413 q 424 231 334 231 q 510 263 476 231 q 543 343 543 294 q 443 532 543 441 q 262 618 346 618 z "},"":{"ha":397,"x_min":46,"x_max":323,"o":"m 319 159 l 239 81 l 46 351 l 286 650 l 323 615 l 147 401 l 319 159 z "},"":{"ha":397,"x_min":74,"x_max":351,"o":"m 79 570 l 157 650 l 351 378 l 112 81 l 74 115 l 250 330 l 79 570 z "},"":{"ha":685,"x_min":43,"x_max":674,"o":"m 365 100 l 220 -18 q 53 84 142 56 l 53 100 q 84 131 73 111 q 95 165 94 149 q 97 223 97 180 l 97 584 l 43 584 l 43 657 l 97 657 l 97 830 q 239 940 146 861 l 373 906 l 350 798 l 235 828 l 235 657 l 326 657 l 326 584 l 235 584 l 235 137 q 303 84 270 111 l 347 117 l 365 100 m 674 96 l 530 -18 q 448 58 504 11 q 398 96 418 83 l 398 109 q 427 126 417 115 q 438 147 436 137 q 443 213 443 161 l 443 553 l 394 595 l 509 685 l 625 591 l 578 548 l 578 119 l 617 84 l 659 119 l 674 96 m 522 805 l 555 963 l 670 959 l 555 802 l 522 805 z "},"":{"ha":661,"x_min":43,"x_max":686,"o":"m 368 907 l 372 921 q 481 855 433 898 q 549 909 509 885 q 635 944 590 932 l 642 921 q 595 876 612 899 q 575 829 579 853 q 570 751 570 806 l 570 137 l 638 90 l 667 113 l 686 90 l 555 -18 q 386 81 485 58 l 386 102 q 418 126 410 114 q 433 203 433 146 l 433 747 q 422 842 433 821 q 371 898 407 878 l 350 798 l 235 828 l 235 657 l 326 657 l 326 584 l 235 584 l 235 137 q 303 84 270 111 l 347 117 l 365 100 l 220 -18 q 53 84 142 56 l 53 100 q 84 131 73 111 q 95 165 94 149 q 97 223 97 180 l 97 584 l 43 584 l 43 657 l 97 657 l 97 830 q 239 940 146 861 l 368 907 z "},"":{"ha":685,"x_min":47,"x_max":637,"o":"m 47 140 l 140 236 q 226 180 179 201 q 325 155 290 153 q 245 368 320 275 q 325 581 320 462 q 226 555 290 583 q 140 500 180 536 l 47 595 l 140 692 q 225 639 168 665 q 325 614 280 615 q 301 735 318 692 q 243 842 288 770 l 340 940 l 441 844 q 380 732 398 782 q 361 614 363 682 q 459 638 412 616 q 546 692 483 649 l 637 595 l 546 500 q 361 581 456 579 q 441 368 367 455 q 361 155 368 281 q 546 236 457 157 l 637 140 l 546 44 q 459 98 482 87 q 361 122 412 119 q 380 3 363 54 q 441 -108 398 -46 l 340 -204 l 243 -106 q 301 0 288 -35 q 325 122 318 43 q 225 97 280 121 q 140 44 168 71 l 47 140 z "},"":{"ha":680,"x_min":240,"x_max":440,"o":"m 240 330 l 340 429 l 440 330 l 340 229 l 240 330 z "},"":{"ha":331,"x_min":67,"x_max":264,"o":"m 264 92 q 193 -50 248 18 q 79 -130 146 -105 l 67 -100 q 104 -66 93 -79 q 129 -9 129 -38 q 95 61 129 22 q 67 89 86 71 l 164 190 l 264 92 z "},"":{"ha":483,"x_min":46,"x_max":436,"o":"m 223 83 q 159 -45 209 16 q 57 -117 118 -94 l 46 -90 q 102 -8 102 -45 q 71 55 102 20 q 46 80 63 64 l 134 171 l 223 83 m 436 83 q 372 -45 422 16 q 270 -117 331 -94 l 259 -90 q 315 -8 315 -45 q 284 55 315 20 q 259 80 276 64 l 347 171 l 436 83 z "},"":{"ha":1069,"x_min":46,"x_max":1023,"o":"m 203 438 q 46 650 46 505 q 109 812 46 735 q 193 889 143 854 q 296 822 256 867 q 349 679 349 760 q 300 526 349 600 q 203 438 262 470 m 255 518 q 284 618 284 562 q 240 743 284 691 q 142 806 206 783 q 112 696 112 756 q 160 580 112 634 q 255 518 198 537 m 115 13 l 562 881 l 605 858 l 158 -10 l 115 13 m 526 -18 q 370 193 370 48 q 516 433 370 331 q 619 366 580 411 q 673 222 673 303 q 624 70 673 144 q 526 -18 586 14 m 578 62 q 608 162 608 106 q 564 287 608 235 q 465 349 530 328 q 435 240 435 300 q 484 123 435 178 q 578 62 522 80 m 877 -18 q 720 193 720 48 q 867 433 720 331 q 970 366 930 411 q 1023 222 1023 303 q 975 70 1023 143 q 877 -18 937 14 m 928 62 q 958 163 958 105 q 914 287 958 235 q 815 349 880 327 q 786 240 786 300 q 834 123 786 178 q 928 62 872 80 z "},"":{"ha":873,"x_min":37,"x_max":878,"o":"m 878 111 l 720 -23 q 644 52 661 14 q 631 161 633 79 l 397 -23 q 228 81 302 43 q 127 114 161 114 q 105 105 115 114 q 96 84 96 96 q 112 49 96 73 q 125 14 125 29 q 115 -9 125 0 q 90 -19 105 -19 q 54 2 67 -19 q 42 42 42 20 q 55 96 42 71 q 113 190 74 133 l 214 335 q 115 421 156 372 q 37 616 37 513 q 151 857 37 755 q 390 949 254 949 q 590 899 493 949 q 687 838 627 881 q 750 898 731 882 q 832 943 781 923 l 846 920 q 770 860 792 889 q 741 745 741 823 q 741 692 741 714 l 764 222 q 775 128 767 143 q 805 104 787 104 q 856 135 819 104 l 878 111 m 624 308 l 230 308 l 176 230 l 494 95 l 629 200 l 624 308 m 603 736 q 556 774 581 758 l 298 406 l 617 406 l 603 736 m 422 636 q 345 663 381 663 q 268 631 299 663 q 248 608 260 623 l 224 618 q 386 749 274 749 q 491 733 433 749 l 530 790 q 361 834 453 834 q 172 768 250 834 q 90 600 90 701 q 146 448 90 521 q 234 366 182 401 l 422 636 m 269 1002 l 465 1210 l 698 1080 l 608 986 l 407 1097 l 299 986 l 269 1002 z "},"":{"ha":880,"x_min":33,"x_max":862,"o":"m 507 539 l 507 130 q 524 130 518 130 q 852 252 687 130 l 862 238 q 749 101 813 155 q 469 -5 625 -5 q 298 32 380 -5 q 155 134 216 68 q 64 286 97 197 q 33 460 33 371 q 69 639 33 555 q 174 785 106 723 q 332 892 237 842 l 345 869 q 145 538 145 736 q 222 292 145 404 q 256 328 247 315 q 273 416 272 351 l 273 736 l 545 954 q 797 879 696 879 q 832 881 808 879 l 841 861 l 646 663 l 805 659 l 732 531 l 507 539 m 507 565 l 704 763 q 507 834 596 781 l 507 565 m 477 849 l 406 790 l 406 506 q 392 416 405 441 q 315 333 378 387 l 239 269 q 477 132 323 153 l 477 849 m 290 1002 l 486 1210 l 720 1080 l 630 986 l 429 1097 l 321 986 l 290 1002 z "},"":{"ha":873,"x_min":37,"x_max":878,"o":"m 878 111 l 720 -23 q 644 52 661 14 q 631 161 633 79 l 397 -23 q 228 81 302 43 q 127 114 161 114 q 105 105 115 114 q 96 84 96 96 q 112 49 96 73 q 125 14 125 29 q 115 -9 125 0 q 90 -19 105 -19 q 54 2 67 -19 q 42 42 42 20 q 55 96 42 71 q 113 190 74 133 l 214 335 q 115 421 156 372 q 37 616 37 513 q 151 857 37 755 q 390 949 254 949 q 590 899 493 949 q 687 838 627 881 q 750 898 731 882 q 832 943 781 923 l 846 920 q 770 860 792 889 q 741 745 741 823 q 741 692 741 714 l 764 222 q 775 128 767 143 q 805 104 787 104 q 856 135 819 104 l 878 111 m 624 308 l 230 308 l 176 230 l 494 95 l 629 200 l 624 308 m 603 736 q 556 774 581 758 l 298 406 l 617 406 l 603 736 m 422 636 q 345 663 381 663 q 268 631 299 663 q 248 608 260 623 l 224 618 q 386 749 274 749 q 491 733 433 749 l 530 790 q 361 834 453 834 q 172 768 250 834 q 90 600 90 701 q 146 448 90 521 q 234 366 182 401 l 422 636 m 351 1028 l 496 1195 l 616 1195 l 568 1074 l 351 1028 z "},"":{"ha":880,"x_min":33,"x_max":862,"o":"m 507 539 l 507 130 q 524 130 518 130 q 852 252 687 130 l 862 238 q 749 101 813 155 q 469 -5 625 -5 q 298 32 380 -5 q 155 134 216 68 q 64 286 97 197 q 33 460 33 371 q 69 639 33 555 q 174 785 106 723 q 332 892 237 842 l 345 869 q 145 538 145 736 q 222 292 145 404 q 256 328 247 315 q 273 416 272 351 l 273 736 l 545 954 q 797 879 696 879 q 832 881 808 879 l 841 861 l 646 663 l 805 659 l 732 531 l 507 539 m 507 565 l 704 763 q 507 834 596 781 l 507 565 m 477 849 l 406 790 l 406 506 q 392 416 405 441 q 315 333 378 387 l 239 269 q 477 132 323 153 l 477 849 m 298 1093 l 387 1181 l 475 1093 l 387 1004 l 298 1093 m 555 1093 l 642 1181 l 730 1093 l 642 1004 l 555 1093 z "},"":{"ha":880,"x_min":33,"x_max":862,"o":"m 507 539 l 507 130 q 524 130 518 130 q 852 252 687 130 l 862 238 q 749 101 813 155 q 469 -5 625 -5 q 298 32 380 -5 q 155 134 216 68 q 64 286 97 197 q 33 460 33 371 q 69 639 33 555 q 174 785 106 723 q 332 892 237 842 l 345 869 q 145 538 145 736 q 222 292 145 404 q 256 328 247 315 q 273 416 272 351 l 273 736 l 545 954 q 797 879 696 879 q 832 881 808 879 l 841 861 l 646 663 l 805 659 l 732 531 l 507 539 m 507 565 l 704 763 q 507 834 596 781 l 507 565 m 477 849 l 406 790 l 406 506 q 392 416 405 441 q 315 333 378 387 l 239 269 q 477 132 323 153 l 477 849 m 619 1028 l 402 1074 l 354 1195 l 473 1195 l 619 1028 z "},"":{"ha":720,"x_min":-20,"x_max":724,"o":"m -3 -15 l -20 -9 q 49 111 2 70 q 141 157 88 147 q 212 162 155 159 q 282 177 263 164 q 319 281 319 203 q 283 429 319 373 q 190 486 248 486 q 95 447 142 486 l 83 455 q 239 566 142 566 q 278 561 254 566 q 413 871 278 744 q 289 840 330 840 q 204 852 272 840 q 166 856 186 856 q 100 832 125 856 q 71 785 85 818 l 55 789 q 77 861 60 831 q 139 922 100 900 q 222 944 178 944 q 304 930 248 944 q 414 915 370 915 q 510 938 463 915 l 522 922 q 433 819 460 871 q 400 666 400 755 q 414 474 400 596 q 431 292 431 337 q 354 154 431 184 q 261 136 320 140 q 339 73 292 117 q 385 38 366 47 q 431 29 404 29 q 519 78 488 29 q 536 156 536 106 q 511 417 536 234 q 489 631 489 574 q 566 870 489 798 q 711 933 621 922 l 724 911 q 652 884 671 895 q 598 765 598 852 q 619 566 598 711 q 646 280 646 374 q 588 75 646 153 q 404 -18 519 -18 q 233 25 349 -18 q 100 60 140 60 q -3 -15 38 60 m 273 1028 l 419 1195 l 538 1195 l 490 1074 l 273 1028 z "},"":{"ha":720,"x_min":-20,"x_max":724,"o":"m -3 -15 l -20 -9 q 49 111 2 70 q 141 157 88 147 q 212 162 155 159 q 282 177 263 164 q 319 281 319 203 q 283 429 319 373 q 190 486 248 486 q 95 447 142 486 l 83 455 q 239 566 142 566 q 278 561 254 566 q 413 871 278 744 q 289 840 330 840 q 204 852 272 840 q 166 856 186 856 q 100 832 125 856 q 71 785 85 818 l 55 789 q 77 861 60 831 q 139 922 100 900 q 222 944 178 944 q 304 930 248 944 q 414 915 370 915 q 510 938 463 915 l 522 922 q 433 819 460 871 q 400 666 400 755 q 414 474 400 596 q 431 292 431 337 q 354 154 431 184 q 261 136 320 140 q 339 73 292 117 q 385 38 366 47 q 431 29 404 29 q 519 78 488 29 q 536 156 536 106 q 511 417 536 234 q 489 631 489 574 q 566 870 489 798 q 711 933 621 922 l 724 911 q 652 884 671 895 q 598 765 598 852 q 619 566 598 711 q 646 280 646 374 q 588 75 646 153 q 404 -18 519 -18 q 233 25 349 -18 q 100 60 140 60 q -3 -15 38 60 m 210 1002 l 406 1210 l 640 1080 l 550 986 l 349 1097 l 241 986 l 210 1002 z "},"":{"ha":720,"x_min":-20,"x_max":724,"o":"m -3 -15 l -20 -9 q 49 111 2 70 q 141 157 88 147 q 212 162 155 159 q 282 177 263 164 q 319 281 319 203 q 283 429 319 373 q 190 486 248 486 q 95 447 142 486 l 83 455 q 239 566 142 566 q 278 561 254 566 q 413 871 278 744 q 289 840 330 840 q 204 852 272 840 q 166 856 186 856 q 100 832 125 856 q 71 785 85 818 l 55 789 q 77 861 60 831 q 139 922 100 900 q 222 944 178 944 q 304 930 248 944 q 414 915 370 915 q 510 938 463 915 l 522 922 q 433 819 460 871 q 400 666 400 755 q 414 474 400 596 q 431 292 431 337 q 354 154 431 184 q 261 136 320 140 q 339 73 292 117 q 385 38 366 47 q 431 29 404 29 q 519 78 488 29 q 536 156 536 106 q 511 417 536 234 q 489 631 489 574 q 566 870 489 798 q 711 933 621 922 l 724 911 q 652 884 671 895 q 598 765 598 852 q 619 566 598 711 q 646 280 646 374 q 588 75 646 153 q 404 -18 519 -18 q 233 25 349 -18 q 100 60 140 60 q -3 -15 38 60 m 214 1093 l 302 1181 l 390 1093 l 302 1004 l 214 1093 m 422 1093 l 510 1181 l 598 1093 l 510 1004 l 422 1093 z "},"":{"ha":720,"x_min":-20,"x_max":724,"o":"m -3 -15 l -20 -9 q 49 111 2 70 q 141 157 88 147 q 212 162 155 159 q 282 177 263 164 q 319 281 319 203 q 283 429 319 373 q 190 486 248 486 q 95 447 142 486 l 83 455 q 239 566 142 566 q 278 561 254 566 q 413 871 278 744 q 289 840 330 840 q 204 852 272 840 q 166 856 186 856 q 100 832 125 856 q 71 785 85 818 l 55 789 q 77 861 60 831 q 139 922 100 900 q 222 944 178 944 q 304 930 248 944 q 414 915 370 915 q 510 938 463 915 l 522 922 q 433 819 460 871 q 400 666 400 755 q 414 474 400 596 q 431 292 431 337 q 354 154 431 184 q 261 136 320 140 q 339 73 292 117 q 385 38 366 47 q 431 29 404 29 q 519 78 488 29 q 536 156 536 106 q 511 417 536 234 q 489 631 489 574 q 566 870 489 798 q 711 933 621 922 l 724 911 q 652 884 671 895 q 598 765 598 852 q 619 566 598 711 q 646 280 646 374 q 588 75 646 153 q 404 -18 519 -18 q 233 25 349 -18 q 100 60 140 60 q -3 -15 38 60 m 538 1028 l 321 1074 l 273 1195 l 392 1195 l 538 1028 z "},"":{"ha":1015,"x_min":33,"x_max":983,"o":"m 94 673 l 546 944 q 844 816 731 916 q 983 526 983 693 q 858 233 983 378 q 593 26 736 92 q 429 -14 508 -14 q 222 48 324 -14 q 33 398 33 161 q 94 673 33 528 m 274 745 q 139 476 139 646 q 227 227 139 350 q 258 265 249 247 q 274 381 273 294 l 274 745 m 474 821 q 404 825 439 825 l 404 466 q 391 352 403 380 q 248 203 366 294 q 345 131 289 161 q 474 92 410 98 l 474 821 m 505 628 q 664 564 583 564 q 819 628 747 564 q 670 766 777 709 q 505 818 591 806 l 505 628 m 505 387 q 656 448 575 448 q 833 369 747 448 q 850 488 850 433 q 830 597 850 543 q 667 536 749 536 q 505 597 581 536 l 505 387 m 505 92 q 715 174 624 92 q 822 336 793 245 q 659 418 755 418 q 505 346 568 418 l 505 92 m 375 1028 l 521 1195 l 640 1195 l 592 1074 l 375 1028 z "},"":{"ha":1015,"x_min":33,"x_max":983,"o":"m 94 673 l 546 944 q 844 816 731 916 q 983 526 983 693 q 858 233 983 378 q 593 26 736 92 q 429 -14 508 -14 q 222 48 324 -14 q 33 398 33 161 q 94 673 33 528 m 274 745 q 139 476 139 646 q 227 227 139 350 q 258 265 249 247 q 274 381 273 294 l 274 745 m 474 821 q 404 825 439 825 l 404 466 q 391 352 403 380 q 248 203 366 294 q 345 131 289 161 q 474 92 410 98 l 474 821 m 505 628 q 664 564 583 564 q 819 628 747 564 q 670 766 777 709 q 505 818 591 806 l 505 628 m 505 387 q 656 448 575 448 q 833 369 747 448 q 850 488 850 433 q 830 597 850 543 q 667 536 749 536 q 505 597 581 536 l 505 387 m 505 92 q 715 174 624 92 q 822 336 793 245 q 659 418 755 418 q 505 346 568 418 l 505 92 m 293 1002 l 489 1210 l 722 1080 l 633 986 l 431 1097 l 323 986 l 293 1002 z "},"":{"ha":926,"x_min":45,"x_max":892,"o":"m 667 960 q 667 947 667 951 q 581 766 667 837 q 482 720 527 722 q 461 720 473 720 q 517 882 461 815 q 667 960 578 952 m 866 634 q 800 572 822 600 q 754 441 754 515 q 829 271 754 340 q 892 234 852 251 q 798 60 847 125 q 656 -37 723 -37 q 601 -24 630 -37 l 545 -1 q 494 3 533 3 q 427 -3 444 3 l 368 -27 q 315 -39 340 -39 q 238 -9 277 -39 q 161 75 198 20 q 45 431 45 248 q 113 639 45 550 q 303 730 182 730 q 412 706 349 730 q 480 688 458 688 q 538 703 501 688 q 606 726 586 721 q 665 733 631 733 q 866 634 793 733 z "},"":{"ha":1015,"x_min":33,"x_max":983,"o":"m 94 673 l 546 944 q 844 816 731 916 q 983 526 983 693 q 858 233 983 378 q 593 26 736 92 q 429 -14 508 -14 q 222 48 324 -14 q 33 398 33 161 q 94 673 33 528 m 274 745 q 139 476 139 646 q 227 227 139 350 q 258 265 249 247 q 274 381 273 294 l 274 745 m 474 821 q 404 825 439 825 l 404 466 q 391 352 403 380 q 248 203 366 294 q 345 131 289 161 q 474 92 410 98 l 474 821 m 505 628 q 664 564 583 564 q 819 628 747 564 q 670 766 777 709 q 505 818 591 806 l 505 628 m 505 387 q 656 448 575 448 q 833 369 747 448 q 850 488 850 433 q 830 597 850 543 q 667 536 749 536 q 505 597 581 536 l 505 387 m 505 92 q 715 174 624 92 q 822 336 793 245 q 659 418 755 418 q 505 346 568 418 l 505 92 m 640 1028 l 423 1074 l 375 1195 l 494 1195 l 640 1028 z "},"":{"ha":1022,"x_min":0,"x_max":1017,"o":"m 1017 86 l 878 -31 q 800 47 826 -1 q 780 148 782 83 q 665 60 718 95 q 416 -14 549 -14 q 143 105 241 -14 q 73 233 98 160 q 48 380 48 305 q 85 554 48 469 q 186 701 121 639 q 372 841 254 764 l 349 839 q 292 836 307 836 q 201 844 271 836 q 144 848 170 848 q 35 753 54 848 q 30 694 31 733 l 1 694 q 0 736 0 722 q 43 901 0 842 q 170 966 92 966 q 296 935 210 966 q 414 909 368 909 q 516 933 470 909 q 546 959 532 941 l 565 959 l 565 602 q 684 558 619 558 q 784 587 741 558 l 784 781 l 723 830 l 650 757 l 629 778 l 784 938 l 914 841 l 980 909 l 1004 889 q 991 873 995 878 q 933 790 943 817 q 920 640 920 758 l 920 186 q 963 100 920 100 q 999 112 977 100 l 1017 86 m 565 96 q 784 199 670 105 l 784 373 q 668 408 722 408 q 565 376 616 408 l 565 96 m 565 413 q 669 439 620 439 q 784 408 720 439 l 784 551 q 683 528 734 528 q 565 563 619 528 l 565 413 m 534 883 q 495 833 506 854 q 481 784 484 811 q 477 684 477 751 l 477 388 q 467 300 477 325 q 376 198 453 263 q 307 149 338 167 q 493 90 385 90 q 534 92 507 90 l 534 883 m 278 175 q 325 235 307 197 q 341 292 338 265 q 344 359 344 313 l 344 606 q 357 703 344 669 q 423 802 372 739 q 471 861 456 844 q 181 438 181 712 q 278 175 181 279 m 378 1028 l 524 1195 l 644 1195 l 595 1074 l 378 1028 z "},"":{"ha":1022,"x_min":0,"x_max":1017,"o":"m 1017 86 l 878 -31 q 800 47 826 -1 q 780 148 782 83 q 665 60 718 95 q 416 -14 549 -14 q 143 105 241 -14 q 73 233 98 160 q 48 380 48 305 q 85 554 48 469 q 186 701 121 639 q 372 841 254 764 l 349 839 q 292 836 307 836 q 201 844 271 836 q 144 848 170 848 q 35 753 54 848 q 30 694 31 733 l 1 694 q 0 736 0 722 q 43 901 0 842 q 170 966 92 966 q 296 935 210 966 q 414 909 368 909 q 516 933 470 909 q 546 959 532 941 l 565 959 l 565 602 q 684 558 619 558 q 784 587 741 558 l 784 781 l 723 830 l 650 757 l 629 778 l 784 938 l 914 841 l 980 909 l 1004 889 q 991 873 995 878 q 933 790 943 817 q 920 640 920 758 l 920 186 q 963 100 920 100 q 999 112 977 100 l 1017 86 m 565 96 q 784 199 670 105 l 784 373 q 668 408 722 408 q 565 376 616 408 l 565 96 m 565 413 q 669 439 620 439 q 784 408 720 439 l 784 551 q 683 528 734 528 q 565 563 619 528 l 565 413 m 534 883 q 495 833 506 854 q 481 784 484 811 q 477 684 477 751 l 477 388 q 467 300 477 325 q 376 198 453 263 q 307 149 338 167 q 493 90 385 90 q 534 92 507 90 l 534 883 m 278 175 q 325 235 307 197 q 341 292 338 265 q 344 359 344 313 l 344 606 q 357 703 344 669 q 423 802 372 739 q 471 861 456 844 q 181 438 181 712 q 278 175 181 279 m 296 1002 l 492 1210 l 726 1080 l 636 986 l 435 1097 l 327 986 l 296 1002 z "},"":{"ha":1022,"x_min":0,"x_max":1017,"o":"m 1017 86 l 878 -31 q 800 47 826 -1 q 780 148 782 83 q 665 60 718 95 q 416 -14 549 -14 q 143 105 241 -14 q 73 233 98 160 q 48 380 48 305 q 85 554 48 469 q 186 701 121 639 q 372 841 254 764 l 349 839 q 292 836 307 836 q 201 844 271 836 q 144 848 170 848 q 35 753 54 848 q 30 694 31 733 l 1 694 q 0 736 0 722 q 43 901 0 842 q 170 966 92 966 q 296 935 210 966 q 414 909 368 909 q 516 933 470 909 q 546 959 532 941 l 565 959 l 565 602 q 684 558 619 558 q 784 587 741 558 l 784 781 l 723 830 l 650 757 l 629 778 l 784 938 l 914 841 l 980 909 l 1004 889 q 991 873 995 878 q 933 790 943 817 q 920 640 920 758 l 920 186 q 963 100 920 100 q 999 112 977 100 l 1017 86 m 565 96 q 784 199 670 105 l 784 373 q 668 408 722 408 q 565 376 616 408 l 565 96 m 565 413 q 669 439 620 439 q 784 408 720 439 l 784 551 q 683 528 734 528 q 565 563 619 528 l 565 413 m 534 883 q 495 833 506 854 q 481 784 484 811 q 477 684 477 751 l 477 388 q 467 300 477 325 q 376 198 453 263 q 307 149 338 167 q 493 90 385 90 q 534 92 507 90 l 534 883 m 278 175 q 325 235 307 197 q 341 292 338 265 q 344 359 344 313 l 344 606 q 357 703 344 669 q 423 802 372 739 q 471 861 456 844 q 181 438 181 712 q 278 175 181 279 m 644 1028 l 427 1074 l 378 1195 l 497 1195 l 644 1028 z "},"":{"ha":339,"x_min":49,"x_max":328,"o":"m 328 96 l 184 -18 q 102 58 160 8 q 53 96 72 83 l 53 109 q 81 126 71 115 q 92 147 90 137 q 97 213 97 161 l 97 553 l 49 595 l 163 685 l 279 591 l 232 548 l 232 119 l 271 84 l 313 119 l 328 96 z "},"":{"ha":614,"x_min":93,"x_max":522,"o":"m 93 785 l 292 992 l 522 859 l 434 769 l 231 879 l 123 769 l 93 785 z "},"":{"ha":659,"x_min":93,"x_max":567,"o":"m 93 843 l 261 984 l 446 880 l 537 961 l 567 939 l 374 770 l 191 876 l 122 821 l 93 843 z "},"":{"ha":694,"x_min":111,"x_max":583,"o":"m 161 908 l 583 908 l 535 833 l 111 833 l 161 908 z "},"":{"ha":694,"x_min":138,"x_max":557,"o":"m 138 994 l 181 994 q 356 925 237 925 q 467 952 421 925 q 515 994 492 968 l 557 994 q 515 898 541 935 q 347 821 463 821 q 182 892 238 821 q 138 994 150 933 z "},"":{"ha":359,"x_min":93,"x_max":267,"o":"m 93 878 l 180 964 l 267 878 l 180 790 l 93 878 z "},"":{"ha":444,"x_min":93,"x_max":351,"o":"m 222 728 q 142 772 176 743 q 93 872 93 811 q 222 1037 93 968 q 351 890 351 996 q 307 787 351 836 q 222 728 275 751 m 264 787 q 298 858 298 814 q 248 948 298 913 q 178 978 218 969 q 145 899 145 943 q 192 820 145 855 q 264 787 218 800 z "},"":{"ha":408,"x_min":93,"x_max":315,"o":"m 93 -118 l 290 43 l 315 10 l 206 -81 q 247 -123 235 -108 q 270 -182 270 -153 q 171 -311 270 -262 l 163 -304 q 189 -233 189 -260 q 93 -118 189 -165 z "},"":{"ha":694,"x_min":199,"x_max":625,"o":"m 412 765 l 510 964 l 625 995 l 610 865 l 412 765 m 199 765 l 297 964 l 412 995 l 397 865 l 199 765 z "},"":{"ha":694,"x_min":231,"x_max":460,"o":"m 397 52 l 439 52 q 395 9 406 19 q 315 -77 328 -52 q 307 -107 307 -93 q 337 -155 307 -134 q 384 -172 360 -172 q 446 -160 403 -172 l 460 -179 l 344 -252 q 231 -142 231 -227 q 261 -67 231 -105 q 397 52 295 -26 z "},"":{"ha":614,"x_min":93,"x_max":522,"o":"m 522 966 l 323 760 l 93 892 l 181 983 l 384 873 l 492 983 l 522 966 z "},"":{"ha":834,"x_min":9,"x_max":857,"o":"m 263 353 l 134 262 l 134 317 l 259 405 q 253 470 254 455 q 245 586 245 549 q 281 744 245 684 q 354 829 302 779 q 237 810 286 810 q 165 824 208 810 q 104 838 126 838 q 51 808 67 838 q 42 772 42 792 q 45 746 42 762 l 20 735 q 9 790 9 766 q 57 897 9 852 q 161 940 102 940 q 261 916 194 940 q 347 897 315 897 q 469 935 395 897 l 481 914 q 402 842 428 873 q 363 716 363 791 q 372 612 363 690 q 382 491 380 535 l 452 541 q 441 654 451 562 q 438 708 438 680 q 484 852 438 795 q 673 935 548 933 q 696 935 679 935 l 711 904 q 621 879 654 897 q 565 773 565 848 q 570 700 565 746 q 578 628 574 668 l 747 747 l 747 692 l 582 576 q 583 517 583 536 q 515 306 583 388 q 354 153 463 244 q 525 184 452 184 q 772 95 665 184 l 834 153 l 857 127 l 702 -18 q 419 84 569 84 q 83 -18 264 84 l 66 9 q 235 174 196 90 q 263 353 264 233 m 384 437 q 358 291 383 356 q 267 130 329 215 q 456 488 465 264 l 384 437 z "},"":{"ha":315,"x_min":-22,"x_max":348,"o":"m 87 419 l -22 347 l -22 402 l 87 474 l 87 747 q 79 836 87 814 q 20 901 63 878 l 26 921 q 135 855 87 898 q 203 909 163 885 q 290 944 244 932 l 297 921 q 249 876 266 899 q 229 829 233 853 q 224 751 224 807 l 224 564 l 348 644 l 348 589 l 224 509 l 224 137 l 292 90 l 322 113 l 340 90 l 209 -18 q 40 81 139 58 l 40 102 q 73 126 64 115 q 87 203 87 146 l 87 419 z "},"":{"ha":1012,"x_min":9,"x_max":984,"o":"m 394 944 l 665 848 l 707 922 l 732 905 l 579 639 q 635 640 612 640 q 854 600 776 640 q 960 498 926 562 q 984 401 984 451 q 608 6 984 190 q 532 38 592 13 q 456 69 472 62 q 175 -17 277 -17 q 56 14 100 -17 q 22 55 35 29 q 9 105 9 80 q 98 215 9 180 q 213 235 145 235 q 305 226 255 235 l 354 311 q 279 310 300 310 q 132 332 193 310 q 54 397 81 351 q 36 465 36 426 q 152 611 36 566 q 151 623 151 620 q 250 815 151 708 q 394 944 308 879 m 605 745 q 368 826 455 826 q 262 782 302 826 q 238 715 238 755 q 284 638 238 659 q 374 624 315 624 q 541 635 396 624 l 605 745 m 475 518 q 321 508 364 508 q 203 526 240 508 q 157 585 172 541 q 119 518 119 556 q 152 454 119 481 q 285 424 189 424 q 425 431 349 424 l 475 518 m 460 434 q 578 448 478 436 q 639 450 605 450 q 754 427 706 450 q 799 388 783 413 q 816 332 816 362 q 751 224 816 273 q 621 142 701 186 q 721 102 672 123 q 809 172 774 138 q 868 254 846 208 q 889 342 889 300 q 864 431 889 388 q 798 494 838 473 q 635 528 733 528 q 511 522 591 528 l 460 434 m 339 221 q 574 157 503 182 q 650 206 621 185 q 701 283 701 245 q 677 323 701 307 q 622 336 656 336 q 471 321 591 336 q 391 313 411 315 l 339 221 m 415 82 q 163 130 281 130 q 83 102 104 130 q 71 70 71 87 q 167 14 71 14 q 415 82 273 14 m 721 1184 l 525 977 l 292 1107 l 381 1200 l 583 1090 l 690 1200 l 721 1184 z "},"":{"ha":560,"x_min":14,"x_max":551,"o":"m 14 -3 l 190 247 l 61 318 l 61 564 q 243 685 180 600 q 422 635 340 635 q 473 649 451 635 q 491 681 491 660 q 475 714 491 694 q 460 751 460 732 q 471 779 460 768 q 501 791 482 791 q 539 773 526 791 q 551 735 551 759 q 541 687 551 707 q 492 606 526 653 l 374 443 l 517 360 l 517 90 q 325 -18 411 62 q 169 36 242 36 q 31 -18 98 36 l 14 -3 m 377 287 l 295 332 l 148 123 q 242 141 202 141 q 377 99 300 141 l 377 287 m 197 392 l 266 352 l 397 536 q 346 533 363 533 q 197 578 264 533 l 197 392 m 494 966 l 296 760 l 65 892 l 153 983 l 356 873 l 464 983 l 494 966 z "},"":{"ha":705,"x_min":-14,"x_max":705,"o":"m 705 159 l 565 -18 q 297 50 433 50 q 73 8 198 50 q 6 -18 43 -2 l -14 7 q 155 247 81 97 q 234 395 210 354 l 54 395 l 75 443 l 258 443 q 298 515 278 479 l 106 515 l 129 564 l 328 564 q 448 714 389 648 q 595 868 460 731 q 488 825 529 840 q 301 790 388 790 q 124 829 208 790 l 46 739 l 21 760 l 175 941 q 406 883 309 883 q 607 917 504 883 q 669 944 636 927 l 688 924 q 576 753 625 839 q 477 564 547 703 l 674 564 l 652 515 l 454 515 q 414 443 434 479 l 621 443 l 599 395 l 384 395 q 106 72 314 279 q 428 149 294 149 q 614 98 508 149 l 682 181 l 705 159 m 632 1184 l 436 977 l 203 1107 l 292 1200 l 494 1090 l 602 1200 l 632 1184 z "},"":{"ha":385,"x_min":-22,"x_max":408,"o":"m 0 558 l 170 685 l 232 634 q 307 590 286 590 q 327 593 315 590 l 338 578 l 161 391 q 193 394 180 394 q 298 363 253 394 q 351 301 332 340 q 371 220 371 262 q 317 93 371 150 q 192 3 283 56 q 112 -50 131 -31 q 90 -99 90 -72 q 102 -132 90 -118 q 138 -149 115 -149 q 168 -143 145 -149 q 184 -141 176 -141 q 208 -160 208 -141 q 161 -189 208 -189 q 81 -155 111 -189 q 58 -94 58 -129 q 87 -20 58 -58 q 140 31 98 -5 q 195 92 178 65 q 222 182 222 133 q 195 259 222 231 q 122 292 165 292 q 35 264 84 292 l 18 279 l 211 484 l 85 585 l 18 535 l 0 558 m 408 966 l 209 760 l -22 892 l 66 983 l 269 873 l 377 983 l 408 966 z "},"":{"ha":694,"x_min":281,"x_max":414,"o":"m 281 926 l 414 926 l 414 456 l 281 456 l 281 926 m 281 213 l 414 213 l 414 -231 l 281 -231 l 281 213 z "},"":{"ha":1023,"x_min":0,"x_max":959,"o":"m 29 9 q 130 99 92 60 q 201 261 188 161 q 212 398 208 322 l 0 398 l 50 444 l 216 444 q 247 592 221 532 q 339 702 275 655 q 397 741 360 717 q 231 735 261 735 q 87 764 134 735 q 25 905 26 802 q 24 926 25 918 l 43 926 q 85 876 59 888 q 188 863 114 863 q 283 866 218 863 q 555 874 448 874 q 800 815 719 874 q 916 625 886 753 q 959 123 955 461 l 755 -18 q 433 32 587 32 q 159 -23 285 32 q 83 -61 124 -39 l 66 -35 q 223 69 123 3 q 418 290 389 181 q 427 398 425 317 l 345 398 q 340 321 344 346 q 312 235 334 274 q 246 150 290 195 q 47 -16 178 79 l 29 9 m 427 444 l 427 495 q 432 638 427 614 q 471 743 442 696 q 386 693 419 732 q 351 623 355 654 q 346 486 346 593 l 346 444 l 427 444 m 534 444 l 534 747 q 523 748 526 748 q 511 747 519 748 q 471 663 483 710 q 461 595 462 627 q 460 493 460 571 l 460 444 l 534 444 m 370 134 q 534 155 437 151 l 534 398 l 460 398 q 445 260 459 306 q 370 134 421 187 m 564 747 l 564 444 l 752 444 q 704 398 724 422 l 564 398 l 564 154 q 692 139 667 144 q 821 107 719 134 q 822 157 822 142 q 793 553 822 378 q 682 723 772 684 q 564 747 650 737 z "},"":{"ha":541,"x_min":31,"x_max":513,"o":"m 113 700 l 98 726 l 252 835 q 177 909 207 909 q 141 888 167 909 l 127 905 l 239 1004 q 342 897 295 975 l 496 1005 l 513 980 l 357 871 q 485 585 450 696 l 485 92 q 284 -18 346 35 q 31 87 161 81 l 31 104 q 55 127 48 116 q 70 257 68 148 l 70 572 q 267 684 174 604 q 361 628 312 653 q 269 808 300 753 l 113 700 m 349 518 l 205 576 l 205 156 l 349 94 l 349 518 z "},"":{"ha":931,"x_min":-9,"x_max":895,"o":"m 35 868 l 21 890 q 163 944 85 944 q 245 926 205 944 q 309 880 286 909 q 344 791 334 850 q 448 850 406 828 q 629 902 552 902 q 732 878 682 902 q 817 810 782 853 q 895 566 895 716 q 846 334 895 440 q 628 160 783 193 q 460 145 557 145 q 351 148 425 145 q 241 151 279 151 q 85 114 138 151 q 26 12 26 74 q 56 -66 26 -32 q 151 -106 91 -106 q 291 -73 203 -106 q 406 -31 376 -40 q 514 -14 466 -14 q 659 -68 608 -14 q 688 -138 688 -99 q 671 -186 688 -168 q 626 -204 654 -204 q 581 -184 598 -204 q 566 -143 566 -167 q 585 -92 566 -120 q 591 -78 591 -83 q 583 -65 591 -71 q 565 -60 574 -60 q 454 -100 530 -60 q 331 -161 373 -144 q 196 -191 253 -191 q 113 -174 154 -191 q 43 -129 71 -157 q -9 2 -9 -74 q 82 149 -9 96 q 214 181 138 181 q 215 212 215 201 q 155 372 215 311 q 28 431 102 425 l 28 450 q 75 456 54 456 q 214 403 147 456 q 215 432 215 420 q 167 566 215 515 q 54 616 118 616 q 28 615 45 616 l 24 637 q 99 658 61 658 q 214 615 150 658 l 214 665 q 207 782 214 751 q 146 865 193 838 q 87 882 116 882 q 35 868 64 882 m 344 181 l 407 181 l 407 787 q 344 749 373 767 l 344 181 m 437 181 q 466 180 457 180 q 680 262 600 180 q 741 370 720 303 q 583 434 664 434 q 437 377 509 434 l 437 181 m 437 414 q 583 465 507 465 q 748 404 671 465 q 758 513 758 456 q 748 612 758 565 q 692 573 715 586 q 589 548 646 548 q 437 604 503 548 l 437 414 m 437 645 q 483 609 463 623 q 584 578 530 578 q 739 645 674 578 q 685 757 724 711 q 537 829 623 829 q 437 802 497 829 l 437 645 m 333 1028 l 479 1195 l 598 1195 l 550 1074 l 333 1028 z "},"":{"ha":530,"x_min":5,"x_max":517,"o":"m 5 568 l 146 685 q 224 610 205 651 q 235 528 236 583 l 427 680 q 478 610 459 648 q 517 454 517 534 q 374 181 517 295 q 182 53 296 119 q 76 -20 98 3 q 43 -95 43 -56 q 73 -152 43 -130 q 141 -172 100 -172 q 237 -134 199 -172 q 288 -104 268 -104 q 308 -112 299 -104 q 317 -132 317 -121 q 274 -178 317 -157 q 150 -201 226 -201 q 39 -167 76 -201 q 8 -91 8 -137 q 47 7 8 -44 q 81 59 69 37 q 98 174 96 86 l 98 481 q 88 557 98 546 q 64 570 79 570 q 23 549 51 570 l 5 568 m 235 492 l 235 120 q 325 218 286 157 q 382 401 382 307 q 329 568 382 494 l 235 492 m 132 795 l 278 962 l 399 962 l 350 841 l 132 795 z "},"":{"ha":922,"x_min":-33,"x_max":876,"o":"m 261 -202 l 261 88 q -20 30 101 83 l -33 48 q 112 154 37 114 q 261 203 170 184 q 241 279 254 246 q 110 411 212 355 q 35 437 72 431 l 27 458 l 261 620 q 262 703 262 679 q 247 798 262 766 q 202 844 233 827 q 147 859 176 859 q 55 827 109 859 l 35 848 q 220 939 115 939 q 362 873 313 939 q 397 747 397 825 q 397 713 397 737 l 468 764 l 468 926 l 495 926 l 495 774 l 644 876 q 795 764 749 811 q 863 663 846 715 q 876 566 876 627 l 876 186 l 699 26 q 597 66 661 46 q 495 90 528 87 l 495 -202 l 261 -202 m 495 211 q 753 137 631 197 l 753 323 q 626 368 682 368 q 495 323 568 368 l 495 211 m 495 353 q 631 394 564 394 q 753 357 685 394 l 753 526 q 617 481 675 481 q 495 522 560 481 l 495 353 m 495 555 q 618 509 554 509 q 716 535 663 509 q 753 559 733 543 q 745 628 754 602 q 557 785 720 709 l 495 743 l 495 555 m 397 -172 l 464 -172 l 464 726 l 397 679 l 397 -172 m 135 496 q 261 403 216 454 l 261 583 l 135 496 z "},"":{"ha":583,"x_min":5,"x_max":517,"o":"m 5 92 l 5 139 q 88 151 45 147 l 88 747 q 80 836 88 814 q 20 901 64 877 l 27 921 q 136 855 88 898 q 204 909 163 886 q 290 944 245 932 l 297 921 q 250 876 267 900 q 230 829 234 853 q 225 751 225 807 l 225 538 l 382 685 q 475 609 452 637 q 509 550 500 581 q 517 456 517 522 l 517 115 q 326 -18 386 52 q 227 39 277 21 l 227 -31 q 301 -174 222 -139 l 289 -199 q 141 -113 209 -177 q 95 -146 124 -130 q 29 -177 65 -163 l 24 -159 q 68 -113 53 -135 q 84 -73 81 -93 q 88 -4 88 -53 l 88 82 q 5 92 45 89 m 225 149 q 389 100 320 136 l 389 445 q 380 516 388 502 q 317 573 367 542 l 225 495 l 225 149 z "},"":{"ha":685,"x_min":106,"x_max":578,"o":"m 106 414 l 157 512 l 578 512 l 530 414 l 106 414 z "},"":{"ha":685,"x_min":85,"x_max":595,"o":"m 355 519 l 507 671 l 550 629 l 398 477 l 595 277 l 457 277 l 329 408 l 177 256 l 134 298 l 286 450 l 85 650 l 226 650 l 355 519 z "},"":{"ha":462,"x_min":106,"x_max":370,"o":"m 106 832 l 208 916 q 262 873 243 896 q 277 840 275 857 q 281 782 281 825 l 281 496 q 284 458 281 464 q 309 437 289 450 l 349 468 l 370 446 l 257 358 l 151 429 l 183 463 l 183 755 q 173 814 182 801 q 153 831 166 823 l 125 810 l 106 832 z "},"":{"ha":462,"x_min":16,"x_max":413,"o":"m 28 785 l 199 916 l 395 801 q 396 767 396 774 q 336 626 396 685 q 213 535 294 585 q 140 489 156 500 q 96 452 122 475 q 241 478 183 478 q 413 447 314 478 l 330 358 q 186 392 260 392 q 32 359 109 392 l 16 368 q 60 460 27 416 q 163 566 91 503 q 249 654 224 620 q 290 770 290 709 q 256 847 290 815 l 95 723 l 28 785 z "},"":{"ha":462,"x_min":15,"x_max":409,"o":"m 15 490 l 86 554 l 261 419 q 297 501 297 436 q 256 609 297 570 q 166 642 222 642 q 115 640 154 642 l 115 675 q 208 693 182 680 q 276 821 276 728 q 255 852 276 852 q 199 822 242 852 l 113 760 l 54 821 l 187 915 l 386 831 q 387 808 387 815 q 357 715 387 757 q 281 661 338 688 q 387 593 363 631 q 409 526 409 559 q 300 396 409 444 q 182 359 267 381 l 15 490 z "},"":{"ha":1081,"x_min":106,"x_max":1032,"o":"m 106 832 l 208 916 q 262 873 243 896 q 277 840 275 857 q 281 782 281 825 l 281 496 q 284 458 281 464 q 309 437 289 450 l 349 468 l 370 446 l 257 358 l 151 429 l 183 463 l 183 755 q 173 814 182 801 q 153 831 166 823 l 125 810 l 106 832 m 295 13 l 743 881 l 785 858 l 338 -10 l 295 13 m 648 414 l 818 545 l 1013 431 q 1015 396 1015 406 q 956 256 1015 315 q 831 165 913 214 q 759 119 775 131 q 715 81 741 106 q 860 108 802 108 q 1032 77 934 108 l 949 -12 q 804 22 879 22 q 650 -12 728 22 l 635 -2 q 678 91 646 46 q 783 196 710 132 q 868 283 844 250 q 909 399 909 339 q 876 477 909 445 l 714 353 l 648 414 z "},"":{"ha":1081,"x_min":106,"x_max":1049,"o":"m 106 832 l 208 916 q 262 873 243 896 q 277 840 275 857 q 281 782 281 825 l 281 496 q 284 458 281 464 q 309 437 289 450 l 349 468 l 370 446 l 257 358 l 151 429 l 183 463 l 183 755 q 173 814 182 801 q 153 831 166 823 l 125 810 l 106 832 m 295 13 l 743 881 l 785 858 l 338 -10 l 295 13 m 854 165 l 664 165 l 646 248 l 876 545 q 930 515 913 533 q 947 483 943 500 q 950 426 950 469 l 950 245 l 1031 245 l 1049 165 l 950 165 l 950 89 l 958 85 q 985 75 978 75 q 1017 92 989 75 l 1035 71 l 925 -12 l 822 53 l 854 94 l 854 165 m 854 245 l 854 393 q 838 451 854 438 l 678 245 l 854 245 z "},"":{"ha":1081,"x_min":15,"x_max":1049,"o":"m 15 490 l 86 554 l 261 419 q 297 501 297 436 q 256 609 297 570 q 166 642 222 642 q 115 640 154 642 l 115 675 q 208 693 182 680 q 276 821 276 728 q 255 852 276 852 q 199 822 242 852 l 113 760 l 54 821 l 187 915 l 386 831 q 387 808 387 815 q 357 715 387 757 q 281 661 338 688 q 387 593 363 631 q 409 526 409 559 q 300 396 409 444 q 182 359 267 381 l 15 490 m 295 13 l 743 881 l 786 858 l 338 -10 l 295 13 m 854 165 l 664 165 l 646 248 l 876 545 q 930 515 913 533 q 947 483 943 500 q 950 426 950 469 l 950 245 l 1031 245 l 1049 165 l 950 165 l 950 89 l 957 85 q 985 75 978 75 q 1017 92 989 75 l 1035 71 l 924 -12 l 822 53 l 854 94 l 854 165 m 854 245 l 854 393 q 838 451 854 438 l 678 245 l 854 245 z "},"":{"ha":1143,"x_min":-65,"x_max":1122,"o":"m 800 660 l 762 562 l 624 562 l 624 263 q 608 125 623 156 q 536 40 589 78 q 368 -50 484 1 l 164 -140 q 140 -130 146 -132 q 20 -83 47 -83 q -38 -140 -18 -83 l -65 -132 q -42 -60 -58 -93 q 66 20 -2 20 q 194 -21 111 20 q 255 -54 216 -32 q 278 -26 271 -42 q 289 125 288 -5 l 289 562 q 143 543 193 562 q 46 474 81 517 l 28 490 q 117 618 67 582 q 235 657 163 651 q 289 660 254 659 l 289 768 q 494 823 414 783 q 629 944 589 873 q 686 906 663 919 q 781 876 738 876 q 882 944 840 876 l 903 941 q 871 842 897 882 q 747 772 827 772 q 624 803 694 772 l 624 660 l 800 660 m 497 776 q 416 748 458 759 l 416 273 q 407 113 416 147 q 311 -39 394 54 q 437 58 389 4 q 488 140 475 100 q 497 252 496 168 l 497 776 m 751 416 l 864 507 q 942 431 921 482 l 1038 511 l 1122 413 l 1040 342 l 977 416 l 941 387 l 941 110 l 987 77 l 1038 115 l 1059 91 l 922 -15 q 787 62 854 51 l 787 79 q 811 100 804 90 q 823 157 823 117 l 823 359 q 816 406 823 396 q 803 419 812 413 l 771 395 l 751 416 z "},"":{"ha":960,"x_min":33,"x_max":928,"o":"m 875 844 l 665 675 q 834 616 770 668 q 928 415 928 541 q 858 215 928 314 q 574 12 754 70 q 411 -14 492 -14 q 139 86 246 -14 q 33 336 33 186 q 70 506 33 425 q 184 664 107 587 q 515 944 262 743 q 810 852 682 852 q 867 859 833 852 l 875 844 m 418 524 l 691 741 q 418 831 563 772 l 418 524 m 498 523 q 418 477 456 504 l 418 373 q 408 298 417 315 q 319 214 399 278 l 258 166 q 358 87 294 121 q 498 47 430 50 l 498 523 m 528 48 q 684 96 616 52 q 773 193 745 138 q 658 224 711 224 q 528 181 592 224 l 528 48 m 528 220 q 656 256 593 256 q 788 220 718 256 q 819 350 819 288 q 683 309 749 309 q 528 350 608 309 l 528 220 m 528 387 q 675 338 599 338 q 816 387 751 338 q 774 480 806 442 q 616 553 711 553 q 528 535 579 553 l 528 387 m 281 708 q 162 422 162 585 q 237 191 162 302 q 267 233 260 218 q 279 278 277 253 q 281 350 281 304 l 281 708 m 276 1179 l 323 1179 q 517 1103 385 1103 q 640 1133 590 1103 q 695 1179 669 1151 l 741 1179 q 695 1073 724 1114 q 507 987 636 987 q 325 1067 387 987 q 276 1179 289 1113 z "},"":{"ha":593,"x_min":50,"x_max":593,"o":"m 50 -169 l 210 20 l 63 127 l 63 600 q 292 685 180 613 l 485 591 l 593 649 l 593 503 q 486 534 538 517 l 486 213 q 490 153 486 172 q 504 114 493 134 q 535 66 511 100 q 572 9 561 29 q 588 -43 588 -18 q 541 -119 588 -89 q 408 -189 498 -146 q 250 -155 328 -155 q 63 -184 163 -155 l 50 -169 m 170 -67 q 288 -54 235 -54 q 437 -82 367 -54 q 485 -104 456 -90 l 509 -90 q 404 17 460 -60 q 351 149 357 81 l 170 -67 m 197 170 l 281 106 l 351 189 l 351 533 l 197 591 l 197 170 m 87 994 l 130 994 q 305 925 186 925 q 416 952 370 925 q 465 994 441 968 l 506 994 q 465 898 490 935 q 296 821 412 821 q 132 892 187 821 q 87 994 99 933 z "},"":{"ha":720,"x_min":-20,"x_max":724,"o":"m -3 -15 l -20 -9 q 49 111 2 70 q 141 157 88 147 q 212 162 155 159 q 282 177 263 164 q 319 281 319 203 q 283 429 319 373 q 190 486 248 486 q 95 447 142 486 l 83 455 q 239 566 142 566 q 278 561 254 566 q 413 871 278 744 q 289 840 330 840 q 204 852 272 840 q 166 856 186 856 q 100 832 125 856 q 71 785 85 818 l 55 789 q 77 861 60 831 q 139 922 100 900 q 222 944 178 944 q 304 930 248 944 q 414 915 370 915 q 510 938 463 915 l 522 922 q 433 819 460 871 q 400 666 400 755 q 414 474 400 596 q 431 292 431 337 q 354 154 431 184 q 261 136 320 140 q 339 73 292 117 q 385 38 366 47 q 431 29 404 29 q 519 78 488 29 q 536 156 536 106 q 511 417 536 234 q 489 631 489 574 q 566 870 489 798 q 711 933 621 922 l 724 911 q 652 884 671 895 q 598 765 598 852 q 619 566 598 711 q 646 280 646 374 q 588 75 646 153 q 404 -18 519 -18 q 233 25 349 -18 q 100 60 140 60 q -3 -15 38 60 m 336 1093 l 425 1181 l 513 1093 l 425 1004 l 336 1093 z "},"":{"ha":1012,"x_min":9,"x_max":984,"o":"m 732 905 l 579 639 q 635 640 612 640 q 854 600 776 640 q 960 498 926 562 q 984 401 984 451 q 617 10 984 195 l 509 -81 q 549 -123 537 -108 q 572 -182 572 -153 q 473 -311 572 -262 l 465 -304 q 491 -233 491 -260 q 395 -118 491 -165 l 568 23 q 497 52 538 36 q 456 69 472 62 q 175 -17 277 -17 q 56 14 100 -17 q 22 55 35 29 q 9 105 9 80 q 98 215 9 180 q 213 235 145 235 q 305 226 255 235 l 354 311 q 279 310 300 310 q 132 332 193 310 q 54 397 81 351 q 36 465 36 426 q 152 611 36 566 q 151 623 151 620 q 250 815 151 708 q 394 944 308 879 l 665 848 l 707 922 l 732 905 m 605 745 q 368 826 455 826 q 262 782 302 826 q 238 715 238 755 q 284 638 238 659 q 374 624 315 624 q 541 635 396 624 l 605 745 m 475 518 q 321 508 364 508 q 203 526 240 508 q 157 585 172 541 q 119 518 119 556 q 152 454 119 481 q 285 424 189 424 q 425 431 349 424 l 475 518 m 460 434 q 578 448 478 436 q 639 450 605 450 q 754 427 706 450 q 799 388 783 413 q 816 332 816 362 q 751 224 816 273 q 621 142 701 186 q 721 102 672 123 q 809 172 774 138 q 868 254 846 208 q 889 342 889 300 q 864 431 889 388 q 798 494 838 473 q 635 528 733 528 q 511 522 591 528 l 460 434 m 339 221 q 574 157 503 182 q 650 206 621 185 q 701 283 701 245 q 677 323 701 307 q 622 336 656 336 q 471 321 591 336 q 391 313 411 315 l 339 221 m 415 82 q 163 130 281 130 q 83 102 104 130 q 71 70 71 87 q 167 14 71 14 q 415 82 273 14 z "},"":{"ha":560,"x_min":14,"x_max":551,"o":"m 31 -18 l 14 -3 l 190 247 l 61 318 l 61 564 q 243 685 180 600 q 422 635 340 635 q 473 649 451 635 q 491 681 491 660 q 475 714 491 694 q 460 751 460 732 q 471 779 460 768 q 501 791 482 791 q 539 773 526 791 q 551 735 551 759 q 541 687 551 707 q 492 606 526 653 l 374 443 l 517 360 l 517 90 q 360 12 434 68 l 252 -81 q 293 -123 281 -108 q 316 -182 316 -153 q 217 -311 316 -263 l 209 -304 q 235 -233 235 -260 q 139 -118 235 -165 l 288 4 q 169 36 225 36 q 31 -18 98 36 m 377 287 l 295 332 l 148 123 q 242 141 202 141 q 377 99 300 141 l 377 287 m 197 392 l 266 352 l 397 536 q 346 533 363 533 q 197 578 264 533 l 197 392 z "},"":{"ha":857,"x_min":33,"x_max":857,"o":"m 842 251 l 857 234 q 454 -14 699 -14 q 142 128 268 -14 q 33 429 33 252 q 163 751 33 611 q 323 871 228 822 l 335 856 q 233 758 271 802 q 144 510 144 655 q 218 276 144 388 q 256 315 245 294 q 270 419 269 342 l 270 713 l 541 944 q 835 871 689 867 l 709 751 q 505 821 610 768 l 505 125 q 629 141 563 124 q 842 251 750 174 m 475 836 l 406 774 l 406 562 q 395 418 405 441 q 293 297 372 363 l 237 250 q 475 127 331 137 l 475 836 m 342 1028 l 488 1195 l 608 1195 l 559 1074 l 342 1028 z "},"":{"ha":427,"x_min":43,"x_max":427,"o":"m 427 110 l 267 -18 q 169 34 222 14 q 58 59 116 54 l 58 77 q 87 109 79 91 q 97 182 96 130 l 97 463 q 90 517 97 507 q 43 532 81 531 l 43 549 q 256 685 147 579 l 418 595 l 349 493 l 233 557 l 233 136 l 353 82 l 412 129 l 427 110 m 80 795 l 226 962 l 347 962 l 298 841 l 80 795 z "},"":{"ha":857,"x_min":33,"x_max":857,"o":"m 842 251 l 857 234 q 454 -14 699 -14 q 142 128 268 -14 q 33 429 33 252 q 163 751 33 611 q 323 871 228 822 l 335 856 q 233 758 271 802 q 144 510 144 655 q 218 276 144 388 q 256 315 245 294 q 270 419 269 342 l 270 713 l 541 944 q 835 871 689 867 l 709 751 q 505 821 610 768 l 505 125 q 629 141 563 124 q 842 251 750 174 m 475 836 l 406 774 l 406 562 q 395 418 405 441 q 293 297 372 363 l 237 250 q 475 127 331 137 l 475 836 m 690 1184 l 494 977 l 260 1107 l 350 1200 l 552 1090 l 659 1200 l 690 1184 z "},"":{"ha":427,"x_min":26,"x_max":456,"o":"m 427 110 l 267 -18 q 169 34 222 14 q 58 59 116 54 l 58 77 q 87 109 79 91 q 97 182 96 130 l 97 463 q 90 517 97 507 q 43 532 81 531 l 43 549 q 256 685 147 579 l 418 595 l 349 493 l 233 557 l 233 136 l 353 82 l 412 129 l 427 110 m 456 966 l 257 760 l 26 892 l 115 983 l 317 873 l 425 983 l 456 966 z "},"":{"ha":587,"x_min":-14,"x_max":547,"o":"m -7 769 l -14 806 l 52 806 l 52 926 l 215 806 l 458 806 l 464 769 l 265 769 l 471 616 q 541 672 494 656 l 547 648 q 529 623 535 636 q 517 528 517 601 l 517 94 q 406 45 444 65 q 313 -18 360 20 q 184 55 243 31 q 52 84 125 79 l 52 99 q 79 132 71 117 q 92 270 92 155 l 92 580 q 225 635 182 600 l 52 769 l -7 769 m 235 167 l 380 98 l 380 519 l 269 604 q 235 576 252 589 l 235 167 z "},"":{"ha":378,"x_min":0,"x_max":0,"o":""},"":{"ha":318,"x_min":0,"x_max":318,"o":"m 50 408 l 318 408 q 268 296 288 353 l 0 296 q 50 408 28 352 z "},"":{"ha":694,"x_min":0,"x_max":694,"o":"m 0 1215 l 694 1215 l 694 1096 l 0 1096 l 0 1215 z "},"":{"ha":680,"x_min":240,"x_max":440,"o":"m 240 330 l 340 429 l 440 330 l 340 229 l 240 330 z "},"":{"ha":873,"x_min":37,"x_max":878,"o":"m 878 111 l 720 -23 q 644 52 661 14 q 631 161 633 79 l 397 -23 q 228 81 302 43 q 127 114 161 114 q 105 105 115 114 q 96 84 96 96 q 112 49 96 73 q 125 14 125 29 q 115 -9 125 0 q 90 -19 105 -19 q 54 2 67 -19 q 42 42 42 20 q 55 96 42 71 q 113 190 74 133 l 214 335 q 115 421 156 372 q 37 616 37 513 q 151 857 37 755 q 390 949 254 949 q 590 899 493 949 q 687 838 627 881 q 750 898 731 882 q 832 943 781 923 l 846 920 q 770 860 792 889 q 741 745 741 823 q 741 692 741 714 l 764 222 q 775 128 767 143 q 805 104 787 104 q 856 135 819 104 l 878 111 m 624 308 l 230 308 l 176 230 l 494 95 l 629 200 l 624 308 m 603 736 q 556 774 581 758 l 298 406 l 617 406 l 603 736 m 422 636 q 345 663 381 663 q 268 631 299 663 q 248 608 260 623 l 224 618 q 386 749 274 749 q 491 733 433 749 l 530 790 q 361 834 453 834 q 172 768 250 834 q 90 600 90 701 q 146 448 90 521 q 234 366 182 401 l 422 636 m 316 1121 l 738 1121 l 690 1046 l 266 1046 l 316 1121 z "},"":{"ha":566,"x_min":41,"x_max":561,"o":"m 561 98 l 414 -18 q 357 46 374 18 q 332 131 338 80 l 148 -18 q 89 36 107 14 q 41 165 41 95 q 87 309 41 236 q 172 416 115 351 l 52 628 q 92 627 76 627 q 250 685 173 627 q 438 624 371 624 q 501 655 469 624 l 519 642 q 479 565 490 598 q 469 439 469 533 l 469 199 q 476 121 469 136 q 507 98 486 98 q 547 116 519 98 l 561 98 m 332 333 l 186 395 q 156 248 156 321 q 203 132 156 186 q 243 93 217 115 l 332 164 l 332 333 m 332 526 l 96 604 l 199 418 l 332 361 l 332 526 m 97 908 l 519 908 l 471 833 l 47 833 l 97 908 z "},"":{"ha":873,"x_min":37,"x_max":878,"o":"m 878 111 l 720 -23 q 644 52 661 14 q 631 161 633 79 l 397 -23 q 228 81 302 43 q 127 114 161 114 q 105 105 115 114 q 96 84 96 96 q 112 49 96 73 q 125 14 125 29 q 115 -9 125 0 q 90 -19 105 -19 q 54 2 67 -19 q 42 42 42 20 q 55 96 42 71 q 113 190 74 133 l 214 335 q 115 421 156 372 q 37 616 37 513 q 151 857 37 755 q 390 949 254 949 q 590 899 493 949 q 687 838 627 881 q 750 898 731 882 q 832 943 781 923 l 846 920 q 770 860 792 889 q 741 745 741 823 q 741 692 741 714 l 764 222 q 775 128 767 143 q 805 104 787 104 q 856 135 819 104 l 878 111 m 624 308 l 230 308 l 176 230 l 494 95 l 629 200 l 624 308 m 603 736 q 556 774 581 758 l 298 406 l 617 406 l 603 736 m 422 636 q 345 663 381 663 q 268 631 299 663 q 248 608 260 623 l 224 618 q 386 749 274 749 q 491 733 433 749 l 530 790 q 361 834 453 834 q 172 768 250 834 q 90 600 90 701 q 146 448 90 521 q 234 366 182 401 l 422 636 m 251 1179 l 298 1179 q 492 1103 359 1103 q 615 1133 565 1103 q 670 1179 644 1151 l 715 1179 q 670 1073 699 1114 q 481 987 611 987 q 300 1067 362 987 q 251 1179 264 1113 z "},"":{"ha":566,"x_min":41,"x_max":561,"o":"m 561 98 l 414 -18 q 357 46 374 18 q 332 131 338 80 l 148 -18 q 89 36 107 14 q 41 165 41 95 q 87 309 41 236 q 172 416 115 351 l 52 628 q 92 627 76 627 q 250 685 173 627 q 438 624 371 624 q 501 655 469 624 l 519 642 q 479 565 490 598 q 469 439 469 533 l 469 199 q 476 121 469 136 q 507 98 486 98 q 547 116 519 98 l 561 98 m 332 333 l 186 395 q 156 248 156 321 q 203 132 156 186 q 243 93 217 115 l 332 164 l 332 333 m 332 526 l 96 604 l 199 418 l 332 361 l 332 526 m 102 994 l 144 994 q 319 925 200 925 q 430 952 385 925 q 479 994 455 968 l 520 994 q 479 898 504 935 q 310 821 426 821 q 146 892 201 821 q 102 994 113 933 z "},"":{"ha":873,"x_min":37,"x_max":878,"o":"m 878 111 l 720 -23 q 667 -106 667 -68 q 697 -155 667 -134 q 744 -171 720 -171 q 806 -159 762 -171 l 820 -179 l 704 -252 q 591 -141 591 -226 q 634 -52 591 -98 q 690 -1 656 -31 q 644 52 658 24 q 631 161 633 79 l 397 -23 q 228 81 302 43 q 127 114 161 114 q 105 105 115 114 q 96 84 96 96 q 112 49 96 73 q 125 14 125 29 q 115 -9 125 0 q 90 -19 105 -19 q 54 2 67 -19 q 42 42 42 20 q 55 96 42 71 q 113 190 74 133 l 214 335 q 115 421 156 372 q 37 616 37 513 q 151 857 37 755 q 390 949 254 949 q 590 899 493 949 q 687 838 627 881 q 750 898 731 882 q 832 943 781 923 l 846 920 q 770 860 792 889 q 741 745 741 823 q 741 692 741 714 l 764 222 q 775 128 767 143 q 805 104 787 104 q 856 135 819 104 l 878 111 m 624 308 l 230 308 l 176 230 l 494 95 l 629 200 l 624 308 m 603 736 q 556 774 581 758 l 298 406 l 617 406 l 603 736 m 422 636 q 345 663 381 663 q 268 631 299 663 q 248 608 260 623 l 224 618 q 386 749 274 749 q 491 733 433 749 l 530 790 q 361 834 453 834 q 172 768 250 834 q 90 600 90 701 q 146 448 90 521 q 234 366 182 401 l 422 636 z "},"":{"ha":566,"x_min":41,"x_max":561,"o":"m 561 97 l 414 -19 q 353 -107 353 -70 q 383 -155 353 -134 q 430 -172 407 -172 q 493 -160 448 -172 l 506 -179 l 391 -252 q 277 -142 277 -227 q 321 -53 277 -97 q 387 7 345 -28 q 332 131 340 56 l 148 -19 q 89 35 107 13 q 41 165 41 95 q 87 309 41 236 q 172 416 115 350 l 52 628 q 91 627 76 627 q 250 685 173 627 q 438 624 371 624 q 501 654 469 624 l 519 642 q 479 565 490 598 q 469 439 469 533 l 469 199 q 476 121 469 137 q 507 98 486 98 q 547 116 519 98 l 561 97 m 332 333 l 186 395 q 156 248 156 321 q 203 132 156 186 q 243 92 217 115 l 332 164 l 332 333 m 332 526 l 96 603 l 199 418 l 332 361 l 332 526 z "},"":{"ha":1023,"x_min":9,"x_max":958,"o":"m 958 123 l 755 -19 q 433 32 586 32 q 159 -24 285 32 q 83 -62 124 -39 l 66 -35 q 224 60 75 -29 q 403 226 362 146 q 424 288 420 257 q 427 398 427 296 l 427 496 q 432 638 427 614 q 471 743 442 696 q 386 693 419 732 q 351 623 355 654 q 346 486 346 593 l 346 390 q 340 284 346 319 q 315 217 334 250 q 47 -16 270 131 l 29 9 q 130 90 94 56 q 193 220 193 149 q 155 307 193 275 q 96 330 127 330 q 29 298 62 330 l 9 311 q 150 412 61 412 q 213 398 176 412 q 220 511 214 466 q 294 671 232 616 q 397 741 328 702 q 231 735 269 735 q 87 764 134 735 q 25 905 26 802 q 25 926 25 909 l 43 926 q 85 876 59 888 q 188 863 114 863 q 283 866 218 863 q 555 874 448 874 q 800 815 719 874 q 916 625 886 753 q 958 123 955 461 m 564 154 q 692 139 667 144 q 821 107 719 134 q 818 262 821 187 q 693 310 748 310 q 564 265 631 310 l 564 154 m 564 298 q 694 340 636 340 q 817 301 747 340 q 807 465 814 384 q 684 427 737 427 q 564 465 623 427 l 564 298 m 564 503 q 683 460 631 460 q 804 503 741 460 q 786 611 799 567 q 711 711 766 676 q 564 747 673 736 l 564 503 m 534 747 q 523 748 526 748 q 511 747 519 748 q 471 663 483 710 q 461 595 462 627 q 460 493 460 572 l 460 377 q 450 257 460 291 q 370 134 427 184 q 534 155 438 151 l 534 747 m 726 1184 l 530 977 l 297 1107 l 387 1200 l 589 1090 l 696 1200 l 726 1184 z "},"":{"ha":880,"x_min":52,"x_max":805,"o":"m 52 766 l 52 926 l 472 616 q 541 672 495 656 l 548 648 q 530 623 536 635 q 517 527 518 601 l 517 94 q 407 45 445 65 q 313 -18 361 20 q 184 55 244 31 q 52 83 124 79 l 52 99 q 79 132 72 117 q 92 269 92 155 l 92 579 q 225 635 182 600 l 52 766 m 235 167 l 381 98 l 381 519 l 269 603 q 235 576 253 589 l 235 167 m 805 852 q 741 724 791 785 q 638 652 701 675 l 628 679 q 684 761 684 724 q 653 824 684 789 q 628 849 645 832 l 715 940 l 805 852 z "},"":{"ha":1023,"x_min":0,"x_max":959,"o":"m 29 9 q 130 99 92 60 q 201 261 188 161 q 212 398 208 322 l 0 398 l 50 444 l 216 444 q 247 592 221 532 q 339 702 275 655 q 397 741 360 717 q 231 735 261 735 q 87 764 134 735 q 25 905 26 802 q 24 926 25 918 l 43 926 q 85 876 59 888 q 188 863 114 863 q 283 866 218 863 q 555 874 448 874 q 800 815 719 874 q 916 625 886 753 q 959 123 955 461 l 755 -18 q 433 32 587 32 q 159 -23 285 32 q 83 -61 124 -39 l 66 -35 q 223 69 123 3 q 418 290 389 181 q 427 398 425 317 l 345 398 q 340 321 344 346 q 312 235 334 274 q 246 150 290 195 q 47 -16 178 79 l 29 9 m 427 444 l 427 495 q 432 638 427 614 q 471 743 442 696 q 386 693 419 732 q 351 623 355 654 q 346 486 346 593 l 346 444 l 427 444 m 534 444 l 534 747 q 523 748 526 748 q 511 747 519 748 q 471 663 483 710 q 461 595 462 627 q 460 493 460 571 l 460 444 l 534 444 m 370 134 q 534 155 437 151 l 534 398 l 460 398 q 445 260 459 306 q 370 134 421 187 m 564 747 l 564 444 l 752 444 q 704 398 724 422 l 564 398 l 564 154 q 692 139 667 144 q 821 107 719 134 q 822 157 822 142 q 793 553 822 378 q 682 723 772 684 q 564 747 650 737 z "},"":{"ha":880,"x_min":33,"x_max":862,"o":"m 507 539 l 507 130 q 524 130 518 130 q 852 252 687 130 l 862 238 q 749 101 813 155 q 469 -5 625 -5 q 298 32 380 -5 q 155 134 216 68 q 64 286 97 197 q 33 460 33 371 q 69 639 33 555 q 174 785 106 723 q 332 892 237 842 l 345 869 q 145 538 145 736 q 222 292 145 404 q 256 328 247 315 q 273 416 272 351 l 273 736 l 545 954 q 797 879 696 879 q 832 881 808 879 l 841 861 l 646 663 l 805 659 l 732 531 l 507 539 m 507 565 l 704 763 q 507 834 596 781 l 507 565 m 477 849 l 406 790 l 406 506 q 392 416 405 441 q 315 333 378 387 l 239 269 q 477 132 323 153 l 477 849 m 329 1121 l 751 1121 l 703 1046 l 279 1046 l 329 1121 z "},"":{"ha":494,"x_min":11,"x_max":484,"o":"m 467 119 l 264 -18 q 149 41 214 14 q 52 71 93 64 l 52 85 q 83 114 74 97 q 97 209 96 139 l 97 456 q 91 519 97 510 q 52 534 80 534 l 45 549 q 315 685 197 614 l 484 468 l 233 258 l 233 132 q 353 71 294 102 l 452 138 l 467 119 m 233 304 l 374 420 l 233 602 l 233 304 m 61 908 l 483 908 l 435 833 l 11 833 l 61 908 z "},"":{"ha":880,"x_min":33,"x_max":862,"o":"m 507 539 l 507 130 q 524 130 518 130 q 852 252 687 130 l 862 238 q 749 101 813 155 q 469 -5 625 -5 q 298 32 380 -5 q 155 134 216 68 q 64 286 97 197 q 33 460 33 371 q 69 639 33 555 q 174 785 106 723 q 332 892 237 842 l 345 869 q 145 538 145 736 q 222 292 145 404 q 256 328 247 315 q 273 416 272 351 l 273 736 l 545 954 q 797 879 696 879 q 832 881 808 879 l 841 861 l 646 663 l 805 659 l 732 531 l 507 539 m 507 565 l 704 763 q 507 834 596 781 l 507 565 m 477 849 l 406 790 l 406 506 q 392 416 405 441 q 315 333 378 387 l 239 269 q 477 132 323 153 l 477 849 m 417 1093 l 505 1181 l 593 1093 l 505 1004 l 417 1093 z "},"":{"ha":494,"x_min":45,"x_max":484,"o":"m 467 119 l 264 -18 q 149 41 214 14 q 52 71 93 64 l 52 85 q 83 114 74 97 q 97 209 96 139 l 97 456 q 91 519 97 510 q 52 534 80 534 l 45 549 q 315 685 197 614 l 484 468 l 233 258 l 233 132 q 353 71 294 102 l 452 138 l 467 119 m 233 304 l 374 420 l 233 602 l 233 304 m 160 878 l 248 964 l 334 878 l 248 790 l 160 878 z "},"":{"ha":880,"x_min":33,"x_max":862,"o":"m 492 -4 q 437 -61 453 -41 q 420 -107 420 -83 q 449 -155 420 -134 q 496 -172 472 -172 q 558 -160 514 -172 l 572 -179 l 456 -252 q 342 -142 342 -226 q 373 -67 342 -104 q 439 -4 390 -47 q 237 62 301 20 q 78 252 134 130 q 33 460 33 352 q 69 639 33 555 q 174 785 106 723 q 332 892 237 842 l 345 869 q 145 538 145 736 q 222 292 145 404 q 256 328 247 315 q 273 416 272 351 l 273 736 l 545 954 q 797 879 696 879 q 832 881 808 879 l 841 861 l 646 663 l 805 659 l 732 530 l 507 539 l 507 130 q 519 130 514 130 q 852 252 687 130 l 862 238 q 678 51 792 117 q 492 -4 592 1 m 507 564 l 704 763 q 507 834 596 781 l 507 564 m 477 849 l 406 790 l 406 506 q 392 416 405 441 q 315 333 378 387 l 239 269 q 477 132 324 153 l 477 849 z "},"":{"ha":494,"x_min":45,"x_max":484,"o":"m 484 467 l 233 258 l 233 131 q 353 71 294 102 l 452 138 l 467 119 l 265 -18 q 224 -61 235 -49 q 206 -107 206 -83 q 236 -155 206 -134 q 283 -172 260 -172 q 346 -160 301 -172 l 359 -179 l 243 -252 q 130 -142 130 -227 q 174 -53 130 -97 q 232 1 196 -30 q 52 71 123 61 l 52 84 q 83 114 74 97 q 97 209 96 139 l 97 456 q 93 515 97 505 q 57 534 85 534 q 52 534 56 534 l 45 549 q 315 685 196 613 l 484 467 m 233 304 l 374 420 l 233 602 l 233 304 z "},"":{"ha":880,"x_min":33,"x_max":862,"o":"m 507 539 l 507 130 q 524 130 518 130 q 852 252 687 130 l 862 238 q 749 101 813 155 q 469 -5 625 -5 q 298 32 380 -5 q 155 134 216 68 q 64 286 97 197 q 33 460 33 371 q 69 639 33 555 q 174 785 106 723 q 332 892 237 842 l 345 869 q 145 538 145 736 q 222 292 145 404 q 256 328 247 315 q 273 416 272 351 l 273 736 l 545 954 q 797 879 696 879 q 832 881 808 879 l 841 861 l 646 663 l 805 659 l 732 531 l 507 539 m 507 565 l 704 763 q 507 834 596 781 l 507 565 m 477 849 l 406 790 l 406 506 q 392 416 405 441 q 315 333 378 387 l 239 269 q 477 132 323 153 l 477 849 m 720 1184 l 524 977 l 290 1107 l 380 1200 l 582 1090 l 689 1200 l 720 1184 z "},"":{"ha":494,"x_min":33,"x_max":485,"o":"m 467 119 l 264 -18 q 149 41 214 14 q 52 71 94 64 l 52 85 q 83 114 75 97 q 98 209 97 139 l 98 456 q 92 519 98 510 q 52 534 81 534 l 46 549 q 316 685 197 614 l 485 468 l 233 258 l 233 132 q 354 71 294 102 l 453 138 l 467 119 m 233 304 l 374 420 l 233 602 l 233 304 m 462 966 l 263 760 l 33 892 l 121 983 l 323 873 l 431 983 l 462 966 z "},"":{"ha":960,"x_min":33,"x_max":928,"o":"m 875 844 l 665 675 q 834 616 770 668 q 928 415 928 541 q 858 215 928 314 q 574 12 754 70 q 411 -14 492 -14 q 139 86 246 -14 q 33 336 33 186 q 70 506 33 425 q 184 664 107 587 q 515 944 262 743 q 810 852 682 852 q 867 859 833 852 l 875 844 m 418 524 l 691 741 q 418 831 563 772 l 418 524 m 498 523 q 418 477 456 504 l 418 373 q 408 298 417 315 q 319 214 399 278 l 258 166 q 358 87 294 121 q 498 47 430 50 l 498 523 m 528 48 q 684 96 616 52 q 773 193 745 138 q 658 224 711 224 q 528 181 592 224 l 528 48 m 528 220 q 656 256 593 256 q 788 220 718 256 q 819 350 819 288 q 683 309 749 309 q 528 350 608 309 l 528 220 m 528 387 q 675 338 599 338 q 816 387 751 338 q 774 480 806 442 q 616 553 711 553 q 528 535 579 553 l 528 387 m 281 708 q 162 422 162 585 q 237 191 162 302 q 267 233 260 218 q 279 278 277 253 q 281 350 281 304 l 281 708 m 569 -162 q 505 -290 555 -228 q 402 -361 465 -338 l 392 -335 q 448 -253 448 -290 q 417 -190 448 -224 q 392 -165 409 -181 l 479 -74 l 569 -162 z "},"":{"ha":593,"x_min":50,"x_max":593,"o":"m 50 -169 l 210 20 l 63 127 l 63 600 q 292 685 180 613 l 485 591 l 593 649 l 593 503 q 486 534 538 517 l 486 213 q 490 153 486 172 q 504 114 493 134 q 535 66 511 100 q 572 9 561 29 q 588 -43 588 -18 q 541 -119 588 -89 q 408 -189 498 -146 q 250 -155 328 -155 q 63 -184 163 -155 l 50 -169 m 170 -67 q 288 -54 235 -54 q 437 -82 367 -54 q 485 -104 456 -90 l 509 -90 q 404 17 460 -60 q 351 149 357 81 l 170 -67 m 197 170 l 281 106 l 351 189 l 351 533 l 197 591 l 197 170 m 208 805 q 273 933 222 871 q 375 1004 313 982 l 385 978 q 330 897 330 933 q 361 833 330 868 q 385 808 368 825 l 298 718 l 208 805 z "},"":{"ha":720,"x_min":-20,"x_max":724,"o":"m -3 -15 l -20 -9 q 49 111 2 70 q 141 157 88 147 q 212 162 155 159 q 282 177 263 164 q 319 281 319 203 q 283 429 319 373 q 190 486 248 486 q 95 447 142 486 l 83 455 q 239 566 142 566 q 278 561 254 566 q 413 871 278 744 q 289 840 330 840 q 204 852 272 840 q 166 856 186 856 q 100 832 125 856 q 71 785 85 818 l 55 789 q 77 861 60 831 q 139 922 100 900 q 222 944 178 944 q 304 930 248 944 q 414 915 370 915 q 510 938 463 915 l 522 922 q 433 819 460 871 q 400 666 400 755 q 414 474 400 596 q 431 292 431 337 q 354 154 431 184 q 261 136 320 140 q 339 73 292 117 q 385 38 366 47 q 431 29 404 29 q 519 78 488 29 q 536 156 536 106 q 511 417 536 234 q 489 631 489 574 q 566 870 489 798 q 711 933 621 922 l 724 911 q 652 884 671 895 q 598 765 598 852 q 619 566 598 711 q 646 280 646 374 q 588 75 646 153 q 404 -18 519 -18 q 233 25 349 -18 q 100 60 140 60 q -3 -15 38 60 m 220 1121 l 642 1121 l 594 1046 l 170 1046 l 220 1121 z "},"":{"ha":339,"x_min":-1,"x_max":340,"o":"m 329 96 l 185 -18 q 102 58 158 11 q 53 96 73 83 l 53 109 q 81 126 72 115 q 93 147 91 137 q 98 213 98 160 l 98 553 l 49 595 l 164 685 l 279 591 l 233 548 l 233 119 l 272 84 l 313 119 l 329 96 m 49 908 l 340 908 l 293 833 l -1 833 l 49 908 z "},"":{"ha":720,"x_min":-20,"x_max":724,"o":"m 577 -159 l 591 -179 l 475 -252 q 361 -141 361 -226 q 406 -52 361 -98 q 445 -15 420 -37 q 406 -18 422 -18 q 233 25 349 -18 q 100 60 140 60 q -3 -15 38 60 l -20 -9 q 49 111 2 70 q 141 157 88 147 q 212 162 155 159 q 282 177 263 164 q 319 281 319 203 q 283 429 319 373 q 190 486 248 486 q 95 447 142 486 l 83 455 q 239 566 142 566 q 278 561 254 566 q 413 871 278 744 q 289 840 330 840 q 204 852 272 840 q 166 856 186 856 q 100 832 125 856 q 71 785 85 818 l 55 789 q 77 861 60 831 q 139 922 100 900 q 222 944 178 944 q 304 930 248 944 q 414 915 370 915 q 510 938 463 915 l 522 922 q 433 819 460 871 q 400 666 400 755 q 414 474 400 596 q 431 292 431 337 q 354 154 431 184 q 261 136 320 140 q 339 73 292 117 q 385 38 366 47 q 431 29 404 29 q 519 78 488 29 q 536 156 536 106 q 511 417 536 234 q 489 631 489 574 q 566 870 489 798 q 711 933 621 922 l 724 911 q 652 884 671 895 q 598 765 598 852 q 619 566 598 711 q 646 281 646 374 q 571 54 646 133 q 525 9 552 34 q 446 -76 460 -48 q 439 -106 439 -92 q 469 -155 439 -133 q 515 -171 491 -171 q 577 -159 533 -171 z "},"":{"ha":339,"x_min":49,"x_max":349,"o":"m 328 96 q 283 54 298 66 q 204 -32 216 -7 q 197 -62 197 -47 q 226 -111 197 -90 q 273 -127 250 -127 q 335 -115 292 -127 l 349 -134 l 233 -207 q 119 -98 119 -182 q 170 -3 119 -54 q 53 96 91 74 l 53 109 q 81 126 71 115 q 92 148 90 137 q 97 213 97 162 l 97 553 l 49 595 l 163 685 l 279 591 l 232 548 l 232 119 l 271 84 l 313 119 l 328 96 m 177 805 l 210 963 l 325 959 l 210 802 l 177 805 z "},"":{"ha":979,"x_min":-9,"x_max":992,"o":"m 992 119 l 853 -18 q 782 57 810 16 q 724 154 758 94 l 570 -18 q 309 47 437 47 q 43 -18 185 47 l 22 12 q 229 256 229 165 q 199 318 229 293 q 158 334 180 334 q 110 311 132 334 l 87 319 q 192 403 118 403 q 277 363 234 403 q 278 397 278 385 q 244 500 278 461 q 149 547 204 547 q 87 522 118 547 l 66 526 q 180 616 100 616 q 271 581 218 616 q 271 609 271 599 q 320 760 271 696 q 425 870 355 805 q 265 819 313 819 q 199 826 248 819 q 151 830 173 830 q 18 733 56 830 l -9 741 q 23 833 0 793 q 197 939 85 939 q 293 924 238 939 q 382 908 352 908 q 494 947 445 908 l 507 935 q 442 788 462 850 q 408 523 408 677 q 408 461 408 511 q 409 411 409 437 q 373 264 409 317 q 289 183 355 239 l 149 66 l 283 130 q 397 197 365 169 q 466 322 454 245 q 471 393 471 350 q 469 478 471 406 q 469 505 469 489 q 489 726 469 640 q 587 944 519 859 l 610 925 q 502 604 513 780 l 739 793 l 882 616 l 635 447 q 756 342 710 402 q 872 163 807 277 q 925 106 904 106 q 973 141 938 106 l 992 119 m 708 182 q 502 363 621 333 q 473 243 498 288 q 382 148 446 191 q 510 138 463 148 q 630 94 570 126 l 708 182 m 502 393 l 755 566 l 658 687 l 502 563 q 501 479 501 507 q 502 393 501 450 m 578 -162 q 513 -290 564 -228 q 411 -361 473 -338 l 401 -335 q 456 -253 456 -290 q 426 -190 456 -224 q 401 -165 418 -181 l 488 -74 l 578 -162 z "},"":{"ha":584,"x_min":20,"x_max":593,"o":"m 593 100 l 447 -18 q 401 56 413 22 q 385 127 395 76 l 210 -18 q 43 84 146 57 l 43 104 q 73 122 63 111 q 85 151 84 135 q 88 201 88 164 l 88 749 q 65 861 87 828 q 20 905 49 885 l 28 922 q 134 858 96 903 q 212 917 171 897 q 300 944 248 932 l 304 924 q 253 880 271 903 q 233 833 235 859 q 230 770 230 823 l 230 515 l 406 685 l 536 547 l 389 412 q 399 402 394 407 q 467 326 452 352 q 502 231 491 287 q 511 176 507 210 q 543 91 520 115 l 580 120 l 593 100 m 230 138 l 298 89 l 381 159 q 352 256 370 226 q 289 321 329 294 l 230 269 l 230 138 m 230 304 l 424 479 l 332 576 l 230 479 l 230 304 m 380 -162 q 316 -290 366 -228 q 214 -361 276 -338 l 203 -335 q 259 -253 259 -290 q 229 -190 259 -224 q 203 -165 220 -181 l 291 -74 l 380 -162 z "},"":{"ha":834,"x_min":9,"x_max":858,"o":"m 858 127 l 702 -18 q 419 84 570 84 q 83 -18 264 84 l 66 9 q 207 127 159 68 q 254 243 254 186 q 229 308 254 279 q 168 336 204 336 q 131 327 151 336 l 117 342 q 193 386 155 386 q 262 362 225 386 q 250 429 261 403 q 161 487 227 487 q 100 467 129 487 l 83 481 q 199 545 135 545 q 247 537 217 545 q 244 585 244 565 q 281 744 244 680 q 354 829 300 779 q 237 810 286 810 q 165 824 208 810 q 104 838 125 838 q 50 808 67 838 q 42 772 42 792 q 45 746 42 762 l 20 735 q 9 789 9 766 q 57 897 9 852 q 161 940 101 940 q 261 916 194 940 q 347 897 315 897 q 469 935 395 897 l 481 914 q 402 842 428 874 q 363 716 363 791 q 372 612 363 691 q 384 441 384 505 q 317 205 384 319 q 266 130 298 174 q 456 467 456 260 q 441 654 456 513 q 438 708 438 679 q 484 852 438 795 q 674 935 548 933 q 697 935 680 935 l 711 904 q 621 879 654 897 q 565 773 565 848 q 570 700 565 746 q 583 519 583 586 q 515 306 583 388 q 354 153 463 245 q 525 184 452 184 q 772 95 665 184 l 834 153 l 858 127 m 331 1028 l 477 1195 l 596 1195 l 548 1074 l 331 1028 z "},"":{"ha":315,"x_min":20,"x_max":341,"o":"m 341 90 l 210 -18 q 41 81 140 58 l 41 102 q 73 126 64 114 q 88 203 87 146 l 88 747 q 79 836 87 814 q 20 901 64 878 l 27 921 q 135 855 88 898 q 204 909 163 885 q 290 944 245 932 l 297 921 q 250 876 267 899 q 230 829 233 853 q 225 751 225 806 l 225 137 l 293 90 l 322 113 l 341 90 m 25 1028 l 171 1195 l 292 1195 l 243 1074 l 25 1028 z "},"":{"ha":834,"x_min":9,"x_max":858,"o":"m 858 127 l 702 -18 q 419 84 570 84 q 83 -18 264 84 l 66 9 q 207 127 159 68 q 254 243 254 186 q 229 308 254 279 q 168 336 204 336 q 131 327 151 336 l 117 342 q 193 386 155 386 q 262 362 225 386 q 250 429 261 403 q 161 487 227 487 q 100 467 129 487 l 83 481 q 199 545 135 545 q 247 537 217 545 q 244 585 244 565 q 281 744 244 680 q 354 829 300 779 q 237 810 286 810 q 165 824 208 810 q 104 838 125 838 q 50 808 67 838 q 42 772 42 792 q 45 746 42 762 l 20 735 q 9 789 9 766 q 57 897 9 852 q 161 940 101 940 q 261 916 194 940 q 347 897 315 897 q 469 935 395 897 l 481 914 q 402 842 428 874 q 363 716 363 791 q 372 612 363 691 q 384 441 384 505 q 317 205 384 319 q 266 130 298 174 q 456 467 456 260 q 441 654 456 513 q 438 708 438 679 q 484 852 438 795 q 674 935 548 933 q 697 935 680 935 l 711 904 q 621 879 654 897 q 565 773 565 848 q 570 700 565 746 q 583 519 583 586 q 515 306 583 388 q 354 153 463 245 q 525 184 452 184 q 772 95 665 184 l 834 153 l 858 127 m 506 -162 q 441 -290 492 -228 q 339 -361 401 -338 l 329 -335 q 385 -253 385 -290 q 354 -190 385 -224 q 329 -165 346 -181 l 416 -74 l 506 -162 z "},"":{"ha":315,"x_min":20,"x_max":341,"o":"m 341 90 l 210 -18 q 41 81 140 58 l 41 102 q 73 126 64 114 q 88 203 87 146 l 88 747 q 79 836 87 814 q 20 901 64 878 l 27 921 q 135 855 88 898 q 204 909 163 885 q 290 944 245 932 l 297 921 q 250 876 267 899 q 230 829 233 853 q 225 751 225 806 l 225 137 l 293 90 l 322 113 l 341 90 m 246 -162 q 182 -290 232 -228 q 79 -361 142 -338 l 69 -335 q 125 -253 125 -290 q 94 -190 125 -224 q 69 -165 86 -181 l 157 -74 l 246 -162 z "},"":{"ha":920,"x_min":9,"x_max":892,"o":"m 858 127 l 702 -18 q 419 84 570 84 q 83 -18 264 84 l 66 9 q 207 127 159 68 q 254 243 254 186 q 229 308 254 279 q 168 336 204 336 q 131 327 151 336 l 117 342 q 193 386 155 386 q 262 362 225 386 q 250 429 261 403 q 161 487 227 487 q 100 467 129 487 l 83 481 q 199 545 135 545 q 247 537 217 545 q 244 585 244 565 q 281 744 244 680 q 354 829 300 779 q 237 810 286 810 q 165 824 208 810 q 104 838 125 838 q 50 808 67 838 q 42 772 42 792 q 45 746 42 762 l 20 735 q 9 789 9 766 q 57 897 9 852 q 161 940 101 940 q 261 916 194 940 q 347 897 315 897 q 469 935 395 897 l 481 914 q 402 842 428 874 q 363 716 363 791 q 372 612 363 691 q 384 441 384 505 q 317 205 384 319 q 266 130 298 174 q 456 467 456 260 q 441 654 456 513 q 438 708 438 679 q 484 852 438 795 q 674 935 548 933 q 697 935 680 935 l 711 904 q 621 879 654 897 q 565 773 565 848 q 570 700 565 746 q 583 519 583 586 q 515 306 583 388 q 354 153 463 245 q 525 184 452 184 q 772 95 665 184 l 834 153 l 858 127 m 892 852 q 828 724 878 785 q 726 652 788 675 l 715 679 q 771 761 771 724 q 741 824 771 789 q 715 849 732 832 l 803 940 l 892 852 z "},"":{"ha":612,"x_min":20,"x_max":547,"o":"m 341 90 l 210 -18 q 41 81 140 58 l 41 102 q 73 126 64 114 q 88 203 87 146 l 88 747 q 79 836 87 814 q 20 901 64 878 l 27 921 q 135 855 88 898 q 204 909 163 885 q 290 944 245 932 l 297 921 q 250 876 267 899 q 230 829 233 853 q 225 751 225 806 l 225 137 l 293 90 l 322 113 l 341 90 m 547 852 q 482 724 532 785 q 380 652 442 675 l 370 679 q 425 761 425 724 q 395 824 425 789 q 370 849 387 832 l 457 940 l 547 852 z "},"":{"ha":1096,"x_min":-120,"x_max":1096,"o":"m 1096 186 l 981 -16 q 850 17 912 17 q 699 -50 758 17 q 669 -96 683 -68 l 637 -85 q 749 138 659 -20 q 858 345 819 256 q 793 380 819 369 q 686 405 739 405 q 497 351 580 405 l 497 219 q 487 102 497 146 q 450 19 476 58 q 352 -64 414 -35 q 234 -91 298 -91 q 162 -83 195 -91 q 93 -62 143 -77 q 10 -48 47 -48 q -102 -80 -47 -48 l -120 -64 q 59 47 -49 47 q 198 28 103 47 q 222 26 209 26 q 279 43 258 26 q 309 119 309 68 q 266 214 309 174 q 180 250 227 250 q 101 222 144 250 l 84 239 q 195 304 132 304 q 285 277 235 304 q 125 413 252 413 q 51 395 85 413 l 37 414 q 155 472 90 472 q 272 425 213 472 q 251 508 267 478 q 201 563 235 541 q 127 585 165 585 q 51 564 94 585 l 37 581 q 157 642 86 642 q 272 606 203 642 l 272 739 l 689 944 q 914 836 828 912 q 1027 595 1027 735 q 928 313 1027 475 q 779 104 922 302 q 941 127 850 127 q 1019 121 979 127 l 1064 197 l 1096 186 m 497 388 q 675 435 597 435 q 868 374 778 435 q 902 536 902 466 q 897 583 902 555 q 679 510 787 510 q 497 560 595 510 l 497 388 m 497 599 q 681 543 587 543 q 838 584 762 543 q 890 616 859 596 q 815 733 865 687 q 706 797 769 775 q 614 813 657 813 q 497 798 571 813 l 497 599 m 469 788 q 406 762 435 776 l 406 237 q 399 119 406 146 q 315 3 376 37 q 431 58 390 7 q 460 131 453 85 q 469 284 469 179 l 469 788 m 480 1028 l 626 1195 l 745 1195 l 697 1074 l 480 1028 z "},"":{"ha":617,"x_min":17,"x_max":612,"o":"m 17 581 l 155 685 q 225 612 212 637 q 234 545 234 593 l 406 685 l 506 586 l 571 648 l 591 625 q 545 572 561 598 q 527 533 530 549 q 520 446 520 511 l 520 212 q 526 125 520 144 q 553 102 533 102 q 596 127 565 102 l 612 100 l 467 -18 q 395 64 407 36 q 384 187 384 94 l 384 534 l 329 590 l 234 511 l 234 130 l 281 79 l 161 -18 l 43 83 l 98 133 l 98 488 q 91 559 98 547 q 68 575 82 575 q 33 561 56 575 l 17 581 m 176 795 l 321 962 l 442 962 l 393 841 l 176 795 z "},"":{"ha":1096,"x_min":-120,"x_max":1096,"o":"m 1096 186 l 981 -16 q 850 17 912 17 q 699 -50 758 17 q 669 -96 683 -68 l 637 -85 q 749 138 659 -20 q 858 345 819 256 q 793 380 819 369 q 686 405 739 405 q 497 351 580 405 l 497 219 q 487 102 497 146 q 450 19 476 58 q 352 -64 414 -35 q 234 -91 298 -91 q 162 -83 195 -91 q 93 -62 143 -77 q 10 -48 47 -48 q -102 -80 -47 -48 l -120 -64 q 59 47 -49 47 q 198 28 103 47 q 222 26 209 26 q 279 43 258 26 q 309 119 309 68 q 266 214 309 174 q 180 250 227 250 q 101 222 144 250 l 84 239 q 195 304 132 304 q 285 277 235 304 q 125 413 252 413 q 51 395 85 413 l 37 414 q 155 472 90 472 q 272 425 213 472 q 251 508 267 478 q 201 563 235 541 q 127 585 165 585 q 51 564 94 585 l 37 581 q 157 642 86 642 q 272 606 203 642 l 272 739 l 689 944 q 914 836 828 912 q 1027 595 1027 735 q 928 313 1027 475 q 779 104 922 302 q 941 127 850 127 q 1019 121 979 127 l 1064 197 l 1096 186 m 497 388 q 675 435 597 435 q 868 374 778 435 q 902 536 902 466 q 897 583 902 555 q 679 510 787 510 q 497 560 595 510 l 497 388 m 497 599 q 681 543 587 543 q 838 584 762 543 q 890 616 859 596 q 815 733 865 687 q 706 797 769 775 q 614 813 657 813 q 497 798 571 813 l 497 599 m 469 788 q 406 762 435 776 l 406 237 q 399 119 406 146 q 315 3 376 37 q 431 58 390 7 q 460 131 453 85 q 469 284 469 179 l 469 788 m 636 -162 q 572 -290 622 -228 q 469 -361 532 -338 l 459 -335 q 515 -253 515 -290 q 484 -190 515 -224 q 459 -165 476 -181 l 547 -74 l 636 -162 z "},"":{"ha":617,"x_min":17,"x_max":612,"o":"m 17 581 l 155 685 q 225 612 212 637 q 234 545 234 593 l 406 685 l 506 586 l 571 648 l 591 625 q 545 572 561 598 q 527 533 530 549 q 520 446 520 511 l 520 212 q 526 125 520 144 q 553 102 533 102 q 596 127 565 102 l 612 100 l 467 -18 q 395 64 407 36 q 384 187 384 94 l 384 534 l 329 590 l 234 511 l 234 130 l 281 79 l 161 -18 l 43 83 l 98 133 l 98 488 q 91 559 98 547 q 68 575 82 575 q 33 561 56 575 l 17 581 m 397 -162 q 333 -290 383 -228 q 231 -361 293 -338 l 220 -335 q 276 -253 276 -290 q 245 -190 276 -224 q 220 -165 237 -181 l 308 -74 l 397 -162 z "},"":{"ha":1096,"x_min":-120,"x_max":1096,"o":"m 1096 186 l 981 -16 q 850 17 912 17 q 699 -50 758 17 q 669 -96 683 -68 l 637 -85 q 749 138 659 -20 q 858 345 819 256 q 793 380 819 369 q 686 405 739 405 q 497 351 580 405 l 497 219 q 487 102 497 146 q 450 19 476 58 q 352 -64 414 -35 q 234 -91 298 -91 q 162 -83 195 -91 q 93 -62 143 -77 q 10 -48 47 -48 q -102 -80 -47 -48 l -120 -64 q 59 47 -49 47 q 198 28 103 47 q 222 26 209 26 q 279 43 258 26 q 309 119 309 68 q 266 214 309 174 q 180 250 227 250 q 101 222 144 250 l 84 239 q 195 304 132 304 q 285 277 235 304 q 125 413 252 413 q 51 395 85 413 l 37 414 q 155 472 90 472 q 272 425 213 472 q 251 508 267 478 q 201 563 235 541 q 127 585 165 585 q 51 564 94 585 l 37 581 q 157 642 86 642 q 272 606 203 642 l 272 739 l 689 944 q 914 836 828 912 q 1027 595 1027 735 q 928 313 1027 475 q 779 104 922 302 q 941 127 850 127 q 1019 121 979 127 l 1064 197 l 1096 186 m 497 388 q 675 435 597 435 q 868 374 778 435 q 902 536 902 466 q 897 583 902 555 q 679 510 787 510 q 497 560 595 510 l 497 388 m 497 599 q 681 543 587 543 q 838 584 762 543 q 890 616 859 596 q 815 733 865 687 q 706 797 769 775 q 614 813 657 813 q 497 798 571 813 l 497 599 m 469 788 q 406 762 435 776 l 406 237 q 399 119 406 146 q 315 3 376 37 q 431 58 390 7 q 460 131 453 85 q 469 284 469 179 l 469 788 m 827 1184 l 631 977 l 398 1107 l 488 1200 l 690 1090 l 797 1200 l 827 1184 z "},"":{"ha":617,"x_min":17,"x_max":612,"o":"m 17 581 l 155 685 q 225 612 212 637 q 234 545 234 593 l 406 685 l 506 586 l 571 648 l 591 625 q 545 572 561 598 q 527 533 530 549 q 520 446 520 511 l 520 212 q 526 125 520 144 q 553 102 533 102 q 596 127 565 102 l 612 100 l 467 -18 q 395 64 407 36 q 384 187 384 94 l 384 534 l 329 590 l 234 511 l 234 130 l 281 79 l 161 -18 l 43 83 l 98 133 l 98 488 q 91 559 98 547 q 68 575 82 575 q 33 561 56 575 l 17 581 m 524 966 l 325 760 l 94 892 l 182 983 l 385 873 l 493 983 l 524 966 z "},"":{"ha":1015,"x_min":33,"x_max":983,"o":"m 94 673 l 546 944 q 844 816 731 916 q 983 526 983 693 q 858 233 983 378 q 593 26 736 92 q 429 -14 508 -14 q 222 48 324 -14 q 33 398 33 161 q 94 673 33 528 m 274 745 q 139 476 139 646 q 227 227 139 350 q 258 265 249 247 q 274 381 273 294 l 274 745 m 474 821 q 404 825 439 825 l 404 466 q 391 352 403 380 q 248 203 366 294 q 345 131 289 161 q 474 92 410 98 l 474 821 m 505 628 q 664 564 583 564 q 819 628 747 564 q 670 766 777 709 q 505 818 591 806 l 505 628 m 505 387 q 656 448 575 448 q 833 369 747 448 q 850 488 850 433 q 830 597 850 543 q 667 536 749 536 q 505 597 581 536 l 505 387 m 505 92 q 715 174 624 92 q 822 336 793 245 q 659 418 755 418 q 505 346 568 418 l 505 92 m 322 1121 l 744 1121 l 696 1046 l 272 1046 l 322 1121 z "},"":{"ha":541,"x_min":31,"x_max":507,"o":"m 485 585 l 485 126 l 485 100 l 485 92 q 284 -18 346 35 q 31 87 161 81 l 31 104 q 55 127 48 116 q 70 257 68 148 l 70 572 q 266 685 181 606 q 485 585 368 612 m 205 576 l 205 156 l 349 94 l 349 514 l 205 576 m 85 908 l 507 908 l 458 833 l 35 833 l 85 908 z "},"":{"ha":1015,"x_min":33,"x_max":983,"o":"m 94 673 l 546 944 q 844 816 731 916 q 983 526 983 693 q 858 233 983 378 q 593 26 736 92 q 429 -14 508 -14 q 222 48 324 -14 q 33 398 33 161 q 94 673 33 528 m 274 745 q 139 476 139 646 q 227 227 139 350 q 258 265 249 247 q 274 381 273 294 l 274 745 m 474 821 q 404 825 439 825 l 404 466 q 391 352 403 380 q 248 203 366 294 q 345 131 289 161 q 474 92 410 98 l 474 821 m 505 628 q 664 564 583 564 q 819 628 747 564 q 670 766 777 709 q 505 818 591 806 l 505 628 m 505 387 q 656 448 575 448 q 833 369 747 448 q 850 488 850 433 q 830 597 850 543 q 667 536 749 536 q 505 597 581 536 l 505 387 m 505 92 q 715 174 624 92 q 822 336 793 245 q 659 418 755 418 q 505 346 568 418 l 505 92 m 508 997 l 606 1196 l 721 1226 l 706 1097 l 508 997 m 295 997 l 393 1196 l 508 1226 l 493 1097 l 295 997 z "},"":{"ha":541,"x_min":31,"x_max":548,"o":"m 485 585 l 485 126 l 485 100 l 485 92 q 284 -18 346 35 q 31 87 161 81 l 31 104 q 55 127 48 116 q 70 257 68 148 l 70 572 q 266 685 181 606 q 485 585 368 612 m 205 576 l 205 156 l 349 94 l 349 514 l 205 576 m 335 765 l 433 964 l 548 995 l 533 865 l 335 765 m 122 765 l 220 964 l 335 995 l 320 865 l 122 765 z "},"":{"ha":972,"x_min":-18,"x_max":1000,"o":"m 691 131 l 535 -18 q 262 65 414 65 q -7 -5 117 65 l -18 8 q 270 179 102 161 q 267 245 270 217 q 228 339 261 291 q 142 429 195 388 q 24 492 89 469 l 24 510 l 265 678 q 265 699 265 694 q 260 775 265 755 q 208 846 247 823 q 139 864 178 864 q 45 834 92 864 l 30 850 q 216 940 105 940 q 365 874 315 940 q 397 770 394 835 l 646 939 l 857 650 l 651 513 q 780 404 730 475 q 835 298 813 356 q 863 208 850 252 q 928 94 892 119 l 979 140 l 1000 116 l 857 -18 q 797 43 818 12 q 764 111 777 73 q 747 168 760 125 q 644 368 707 311 q 526 428 591 415 l 500 410 l 500 148 q 606 94 581 115 l 671 154 l 691 131 m 265 638 l 125 541 q 265 437 216 494 l 265 638 m 397 174 q 469 158 431 167 l 469 781 l 397 732 l 397 174 m 500 447 l 724 601 l 557 840 l 500 801 l 500 447 m 353 1028 l 499 1195 l 618 1195 l 570 1074 l 353 1028 z "},"":{"ha":454,"x_min":7,"x_max":468,"o":"m 7 568 l 144 685 q 241 575 214 650 l 368 688 l 468 564 l 372 477 l 290 579 l 236 530 l 236 140 l 303 89 l 368 140 l 387 118 l 219 -18 q 50 83 133 69 l 50 98 q 80 127 70 111 q 97 210 96 151 l 97 488 q 86 557 96 543 q 63 582 79 569 l 23 549 l 7 568 m 94 795 l 239 962 l 360 962 l 311 841 l 94 795 z "},"":{"ha":972,"x_min":-18,"x_max":1000,"o":"m 691 131 l 535 -18 q 262 65 414 65 q -7 -5 117 65 l -18 8 q 270 179 102 161 q 267 245 270 217 q 228 339 261 291 q 142 429 195 388 q 24 492 89 469 l 24 510 l 265 678 q 265 699 265 694 q 260 775 265 755 q 208 846 247 823 q 139 864 178 864 q 45 834 92 864 l 30 850 q 216 940 105 940 q 365 874 315 940 q 397 770 394 835 l 646 939 l 857 650 l 651 513 q 780 404 730 475 q 835 298 813 356 q 863 208 850 252 q 928 94 892 119 l 979 140 l 1000 116 l 857 -18 q 797 43 818 12 q 764 111 777 73 q 747 168 760 125 q 644 368 707 311 q 526 428 591 415 l 500 410 l 500 148 q 606 94 581 115 l 671 154 l 691 131 m 265 638 l 125 541 q 265 437 216 494 l 265 638 m 397 174 q 469 158 431 167 l 469 781 l 397 732 l 397 174 m 500 447 l 724 601 l 557 840 l 500 801 l 500 447 m 574 -162 q 510 -290 560 -228 q 408 -361 470 -338 l 397 -335 q 453 -253 453 -290 q 422 -190 453 -224 q 397 -165 414 -181 l 485 -74 l 574 -162 z "},"":{"ha":454,"x_min":7,"x_max":468,"o":"m 7 568 l 144 685 q 241 575 214 650 l 368 688 l 468 564 l 372 477 l 290 579 l 236 530 l 236 140 l 303 89 l 368 140 l 387 118 l 219 -18 q 50 83 133 69 l 50 98 q 80 127 70 111 q 97 210 96 151 l 97 488 q 86 557 96 543 q 63 582 79 569 l 23 549 l 7 568 m 296 -162 q 232 -290 282 -228 q 130 -361 192 -338 l 119 -335 q 175 -253 175 -290 q 144 -190 175 -224 q 119 -165 136 -181 l 207 -74 l 296 -162 z "},"":{"ha":972,"x_min":-18,"x_max":1000,"o":"m 691 131 l 535 -18 q 262 65 414 65 q -7 -5 117 65 l -18 8 q 270 179 102 161 q 267 245 270 217 q 228 339 261 291 q 142 429 195 388 q 24 492 89 469 l 24 510 l 265 678 q 265 699 265 694 q 260 775 265 755 q 208 846 247 823 q 139 864 178 864 q 45 834 92 864 l 30 850 q 216 940 105 940 q 365 874 315 940 q 397 770 394 835 l 646 939 l 857 650 l 651 513 q 780 404 730 475 q 835 298 813 356 q 863 208 850 252 q 928 94 892 119 l 979 140 l 1000 116 l 857 -18 q 797 43 818 12 q 764 111 777 73 q 747 168 760 125 q 644 368 707 311 q 526 428 591 415 l 500 410 l 500 148 q 606 94 581 115 l 671 154 l 691 131 m 265 638 l 125 541 q 265 437 216 494 l 265 638 m 397 174 q 469 158 431 167 l 469 781 l 397 732 l 397 174 m 500 447 l 724 601 l 557 840 l 500 801 l 500 447 m 701 1184 l 505 977 l 271 1107 l 361 1200 l 563 1090 l 670 1200 l 701 1184 z "},"":{"ha":454,"x_min":7,"x_max":468,"o":"m 7 568 l 144 685 q 241 575 214 650 l 368 688 l 468 564 l 372 477 l 290 579 l 236 530 l 236 140 l 303 89 l 368 140 l 387 118 l 219 -18 q 50 83 133 69 l 50 98 q 80 127 70 111 q 97 210 96 151 l 97 488 q 86 557 96 543 q 63 582 79 569 l 23 549 l 7 568 m 441 966 l 243 760 l 12 892 l 100 983 l 303 873 l 411 983 l 441 966 z "},"":{"ha":1012,"x_min":9,"x_max":984,"o":"m 394 944 l 665 848 l 707 922 l 732 905 l 579 639 q 635 640 612 640 q 854 600 776 640 q 960 498 926 562 q 984 401 984 451 q 608 6 984 190 q 532 38 592 13 q 456 69 472 62 q 175 -17 277 -17 q 56 14 100 -17 q 22 55 35 29 q 9 105 9 80 q 98 215 9 180 q 213 235 145 235 q 305 226 255 235 l 354 311 q 279 310 300 310 q 132 332 193 310 q 54 397 81 351 q 36 465 36 426 q 152 611 36 566 q 151 623 151 620 q 250 815 151 708 q 394 944 308 879 m 605 745 q 368 826 455 826 q 262 782 302 826 q 238 715 238 755 q 284 638 238 659 q 374 624 315 624 q 541 635 396 624 l 605 745 m 475 518 q 321 508 364 508 q 203 526 240 508 q 157 585 172 541 q 119 518 119 556 q 152 454 119 481 q 285 424 189 424 q 425 431 349 424 l 475 518 m 460 434 q 578 448 478 436 q 639 450 605 450 q 754 427 706 450 q 799 388 783 413 q 816 332 816 362 q 751 224 816 273 q 621 142 701 186 q 721 102 672 123 q 809 172 774 138 q 868 254 846 208 q 889 342 889 300 q 864 431 889 388 q 798 494 838 473 q 635 528 733 528 q 511 522 591 528 l 460 434 m 339 221 q 574 157 503 182 q 650 206 621 185 q 701 283 701 245 q 677 323 701 307 q 622 336 656 336 q 471 321 591 336 q 391 313 411 315 l 339 221 m 415 82 q 163 130 281 130 q 83 102 104 130 q 71 70 71 87 q 167 14 71 14 q 415 82 273 14 m 374 1028 l 519 1195 l 639 1195 l 591 1074 l 374 1028 z "},"":{"ha":560,"x_min":14,"x_max":551,"o":"m 14 -3 l 190 247 l 61 318 l 61 564 q 243 685 180 600 q 422 635 340 635 q 473 649 451 635 q 491 681 491 660 q 475 714 491 694 q 460 751 460 732 q 471 779 460 768 q 501 791 482 791 q 539 773 526 791 q 551 735 551 759 q 541 687 551 707 q 492 606 526 653 l 374 443 l 517 360 l 517 90 q 325 -18 411 62 q 169 36 242 36 q 31 -18 98 36 l 14 -3 m 377 287 l 295 332 l 148 123 q 242 141 202 141 q 377 99 300 141 l 377 287 m 197 392 l 266 352 l 397 536 q 346 533 363 533 q 197 578 264 533 l 197 392 m 193 795 l 338 962 l 459 962 l 410 841 l 193 795 z "},"":{"ha":906,"x_min":-37,"x_max":898,"o":"m 618 769 l 618 119 q 763 192 694 138 q 877 329 832 248 l 898 323 q 792 130 873 216 q 473 -12 660 -12 q 220 65 336 -12 q 73 242 117 133 q 45 391 45 311 q 155 692 45 561 q 302 817 205 752 q 240 821 265 821 q -16 643 64 821 l -37 652 q 37 814 -14 751 q 176 917 93 886 q 300 940 237 940 q 560 910 374 940 q 738 889 694 889 q 877 964 832 889 l 898 957 q 859 848 892 892 q 670 766 795 766 q 618 769 649 766 m 588 774 q 496 791 543 781 l 496 441 q 484 333 495 368 q 457 287 475 308 q 395 227 439 265 q 326 169 365 201 q 522 108 419 108 q 588 114 550 108 l 588 774 m 357 817 q 254 732 292 783 q 192 607 214 677 q 169 470 169 536 q 296 191 169 308 q 342 242 331 216 q 354 290 352 262 q 357 393 357 326 l 357 817 m 541 -162 q 477 -290 527 -228 q 374 -361 437 -338 l 364 -335 q 420 -253 420 -290 q 389 -190 420 -224 q 364 -165 381 -181 l 452 -74 l 541 -162 z "},"":{"ha":340,"x_min":37,"x_max":362,"o":"m 37 605 l 233 865 l 233 657 l 349 657 l 349 582 l 233 582 l 233 140 q 299 92 267 118 l 342 127 l 362 104 l 216 -18 q 141 42 182 17 q 53 80 99 68 l 53 98 q 83 127 76 115 q 97 231 96 149 l 97 582 l 37 582 l 37 605 m 258 -162 q 194 -290 244 -228 q 92 -361 154 -338 l 81 -335 q 137 -253 137 -290 q 106 -190 137 -224 q 81 -165 98 -181 l 169 -74 l 258 -162 z "},"":{"ha":906,"x_min":-37,"x_max":898,"o":"m 618 769 l 618 119 q 763 192 694 138 q 877 329 832 248 l 898 323 q 792 130 873 216 q 473 -12 660 -12 q 220 65 336 -12 q 73 242 117 133 q 45 391 45 311 q 155 692 45 561 q 302 817 205 752 q 240 821 265 821 q -16 643 64 821 l -37 652 q 37 814 -14 751 q 176 917 93 886 q 300 940 237 940 q 560 910 374 940 q 738 889 694 889 q 877 964 832 889 l 898 957 q 859 848 892 892 q 670 766 795 766 q 618 769 649 766 m 588 774 q 496 791 543 781 l 496 441 q 484 333 495 368 q 457 287 475 308 q 395 227 439 265 q 326 169 365 201 q 522 108 419 108 q 588 114 550 108 l 588 774 m 357 817 q 254 732 292 783 q 192 607 214 677 q 169 470 169 536 q 296 191 169 308 q 342 242 331 216 q 354 290 352 262 q 357 393 357 326 l 357 817 m 667 1184 l 471 977 l 238 1107 l 328 1200 l 530 1090 l 637 1200 l 667 1184 z "},"":{"ha":600,"x_min":37,"x_max":591,"o":"m 37 605 l 233 865 l 233 657 l 349 657 l 349 582 l 233 582 l 233 140 q 299 92 267 118 l 342 127 l 362 104 l 216 -18 q 141 42 182 17 q 53 80 99 68 l 53 98 q 83 127 76 115 q 97 231 96 149 l 97 582 l 37 582 l 37 605 m 591 852 q 526 724 576 785 q 424 652 486 675 l 414 679 q 469 761 469 724 q 439 824 469 789 q 414 849 431 832 l 501 940 l 591 852 z "},"":{"ha":1022,"x_min":0,"x_max":1017,"o":"m 1017 86 l 878 -31 q 800 47 826 -1 q 780 148 782 83 q 665 60 718 95 q 416 -14 549 -14 q 143 105 241 -14 q 73 233 98 160 q 48 380 48 305 q 85 554 48 469 q 186 701 121 639 q 372 841 254 764 l 349 839 q 292 836 307 836 q 201 844 271 836 q 144 848 170 848 q 35 753 54 848 q 30 694 31 733 l 1 694 q 0 736 0 722 q 43 901 0 842 q 170 966 92 966 q 296 935 210 966 q 414 909 368 909 q 516 933 470 909 q 546 959 532 941 l 565 959 l 565 602 q 684 558 619 558 q 784 587 741 558 l 784 781 l 723 830 l 650 757 l 629 778 l 784 938 l 914 841 l 980 909 l 1004 889 q 991 873 995 878 q 933 790 943 817 q 920 640 920 758 l 920 186 q 963 100 920 100 q 999 112 977 100 l 1017 86 m 565 96 q 784 199 670 105 l 784 373 q 668 408 722 408 q 565 376 616 408 l 565 96 m 565 413 q 669 439 620 439 q 784 408 720 439 l 784 551 q 683 528 734 528 q 565 563 619 528 l 565 413 m 534 883 q 495 833 506 854 q 481 784 484 811 q 477 684 477 751 l 477 388 q 467 300 477 325 q 376 198 453 263 q 307 149 338 167 q 493 90 385 90 q 534 92 507 90 l 534 883 m 278 175 q 325 235 307 197 q 341 292 338 265 q 344 359 344 313 l 344 606 q 357 703 344 669 q 423 802 372 739 q 471 861 456 844 q 181 438 181 712 q 278 175 181 279 m 367 1121 l 789 1121 l 741 1046 l 317 1046 l 367 1121 z "},"":{"ha":624,"x_min":22,"x_max":614,"o":"m 22 560 l 163 685 l 279 584 l 232 543 l 232 144 l 294 95 l 391 184 l 391 543 l 342 584 l 455 685 l 572 584 l 526 543 l 526 176 q 533 120 526 134 q 563 98 545 98 q 594 113 575 98 l 614 89 l 476 -18 q 420 31 435 14 q 391 149 389 68 l 209 -18 q 58 88 129 59 l 58 106 q 85 124 78 114 q 97 203 96 137 l 97 538 l 68 560 l 40 538 l 22 560 m 125 908 l 547 908 l 499 833 l 75 833 l 125 908 z "},"":{"ha":1022,"x_min":0,"x_max":1017,"o":"m 1017 86 l 878 -31 q 800 47 826 -1 q 780 148 782 83 q 665 60 718 95 q 416 -14 549 -14 q 143 105 241 -14 q 73 233 98 160 q 48 380 48 305 q 85 554 48 469 q 186 701 121 639 q 372 841 254 764 l 349 839 q 292 836 307 836 q 201 844 271 836 q 144 848 170 848 q 35 753 54 848 q 30 694 31 733 l 1 694 q 0 736 0 722 q 43 901 0 842 q 170 966 92 966 q 296 935 210 966 q 414 909 368 909 q 516 933 470 909 q 546 959 532 941 l 565 959 l 565 602 q 684 558 619 558 q 784 587 741 558 l 784 781 l 723 830 l 650 757 l 629 778 l 784 938 l 914 841 l 980 909 l 1004 889 q 991 873 995 878 q 933 790 943 817 q 920 640 920 758 l 920 186 q 963 100 920 100 q 999 112 977 100 l 1017 86 m 565 96 q 784 199 670 105 l 784 373 q 668 408 722 408 q 565 376 616 408 l 565 96 m 565 413 q 669 439 620 439 q 784 408 720 439 l 784 551 q 683 528 734 528 q 565 563 619 528 l 565 413 m 534 883 q 495 833 506 854 q 481 784 484 811 q 477 684 477 751 l 477 388 q 467 300 477 325 q 376 198 453 263 q 307 149 338 167 q 493 90 385 90 q 534 92 507 90 l 534 883 m 278 175 q 325 235 307 197 q 341 292 338 265 q 344 359 344 313 l 344 606 q 357 703 344 669 q 423 802 372 739 q 471 861 456 844 q 181 438 181 712 q 278 175 181 279 m 511 967 q 368 1111 368 1010 q 511 1276 368 1207 q 654 1129 654 1234 q 605 1025 654 1075 q 511 967 570 990 m 558 1026 q 595 1097 595 1053 q 538 1187 595 1152 q 462 1217 506 1208 q 425 1138 425 1181 q 477 1059 425 1094 q 558 1026 507 1040 z "},"":{"ha":624,"x_min":22,"x_max":614,"o":"m 22 560 l 163 685 l 279 584 l 232 543 l 232 144 l 294 95 l 391 184 l 391 543 l 342 584 l 455 685 l 572 584 l 526 543 l 526 176 q 533 120 526 134 q 563 98 545 98 q 594 113 575 98 l 614 89 l 476 -18 q 420 31 435 14 q 391 149 389 68 l 209 -18 q 58 88 129 59 l 58 106 q 85 124 78 114 q 97 203 96 137 l 97 538 l 68 560 l 40 538 l 22 560 m 311 728 q 231 772 266 743 q 182 872 182 811 q 311 1037 182 968 q 441 890 441 996 q 396 787 441 836 q 311 728 364 751 m 354 787 q 388 858 388 814 q 337 948 388 913 q 267 978 307 969 q 235 899 235 943 q 281 820 235 855 q 354 787 308 800 z "},"":{"ha":1022,"x_min":0,"x_max":1017,"o":"m 1017 86 l 878 -31 q 800 47 826 -1 q 780 148 782 83 q 665 60 718 95 q 416 -14 549 -14 q 143 105 241 -14 q 73 233 98 160 q 48 380 48 305 q 85 554 48 469 q 186 701 121 639 q 372 841 254 764 l 349 839 q 292 836 307 836 q 201 844 271 836 q 144 848 170 848 q 35 753 54 848 q 30 694 31 733 l 1 694 q 0 736 0 722 q 43 901 0 842 q 170 966 92 966 q 296 935 210 966 q 414 909 368 909 q 516 933 470 909 q 546 959 532 941 l 565 959 l 565 602 q 684 558 619 558 q 784 587 741 558 l 784 781 l 723 830 l 650 757 l 629 778 l 784 938 l 914 841 l 980 909 l 1004 889 q 991 873 995 878 q 933 790 943 817 q 920 640 920 758 l 920 186 q 963 100 920 100 q 999 112 977 100 l 1017 86 m 565 96 q 784 199 670 105 l 784 373 q 668 408 722 408 q 565 376 616 408 l 565 96 m 565 413 q 669 439 620 439 q 784 408 720 439 l 784 551 q 683 528 734 528 q 565 563 619 528 l 565 413 m 534 883 q 495 833 506 854 q 481 784 484 811 q 477 684 477 751 l 477 388 q 467 300 477 325 q 376 198 453 263 q 307 149 338 167 q 493 90 385 90 q 534 92 507 90 l 534 883 m 278 175 q 325 235 307 197 q 341 292 338 265 q 344 359 344 313 l 344 606 q 357 703 344 669 q 423 802 372 739 q 471 861 456 844 q 181 438 181 712 q 278 175 181 279 m 511 997 l 608 1196 l 724 1226 l 709 1097 l 511 997 m 298 997 l 395 1196 l 511 1226 l 496 1097 l 298 997 z "},"":{"ha":624,"x_min":22,"x_max":614,"o":"m 22 560 l 163 685 l 279 584 l 232 543 l 232 144 l 294 95 l 391 184 l 391 543 l 342 584 l 455 685 l 572 584 l 526 543 l 526 176 q 533 120 526 134 q 563 98 545 98 q 594 113 575 98 l 614 89 l 476 -18 q 420 31 435 14 q 391 149 389 68 l 209 -18 q 58 88 129 59 l 58 106 q 85 124 78 114 q 97 203 96 137 l 97 538 l 68 560 l 40 538 l 22 560 m 376 765 l 474 964 l 589 995 l 574 865 l 376 765 m 163 765 l 261 964 l 376 995 l 361 865 l 163 765 z "},"":{"ha":1022,"x_min":0,"x_max":1032,"o":"m 1017 86 q 970 35 980 47 q 888 -67 901 -35 q 879 -104 879 -87 q 909 -155 879 -133 q 956 -171 932 -171 q 1019 -159 974 -171 l 1032 -179 l 916 -252 q 802 -141 802 -226 q 846 -52 802 -98 q 872 -27 856 -43 q 800 47 825 1 q 780 148 782 83 q 665 60 718 95 q 416 -14 549 -14 q 143 105 241 -14 q 73 233 98 160 q 48 380 48 305 q 85 554 48 469 q 186 701 121 639 q 372 841 254 764 l 349 839 q 292 836 307 836 q 201 844 271 836 q 144 848 170 848 q 35 753 54 848 q 30 694 31 733 l 1 694 q 0 736 0 722 q 43 901 0 842 q 170 966 92 966 q 296 935 210 966 q 414 909 368 909 q 516 933 470 909 q 546 959 532 941 l 565 959 l 565 602 q 684 558 619 558 q 784 587 741 558 l 784 781 l 723 830 l 650 757 l 629 778 l 784 938 l 914 841 l 980 909 l 1004 889 q 991 873 995 878 q 933 790 943 817 q 920 640 920 758 l 920 186 q 963 100 920 100 q 999 112 977 100 l 1017 86 m 565 96 q 784 199 670 105 l 784 373 q 668 408 722 408 q 565 376 616 408 l 565 96 m 565 413 q 669 439 620 439 q 784 408 720 439 l 784 551 q 683 528 734 528 q 565 563 619 528 l 565 413 m 534 883 q 495 833 506 854 q 481 784 484 811 q 477 684 477 751 l 477 388 q 467 300 477 325 q 376 198 453 263 q 307 149 338 167 q 493 90 385 90 q 534 92 507 90 l 534 883 m 278 175 q 325 235 307 197 q 341 292 338 265 q 344 359 344 313 l 344 606 q 357 703 344 669 q 423 802 372 739 q 471 861 456 844 q 181 438 181 712 q 278 175 181 279 z "},"":{"ha":624,"x_min":22,"x_max":635,"o":"m 594 113 l 614 89 q 570 47 588 63 q 491 -39 503 -14 q 484 -68 484 -54 q 513 -117 484 -96 q 559 -134 536 -134 q 621 -122 578 -134 l 635 -141 l 519 -214 q 406 -104 406 -189 q 459 -5 406 -58 q 420 31 431 17 q 391 149 389 68 l 209 -18 q 58 88 129 59 l 58 106 q 85 124 78 115 q 97 203 96 137 l 97 538 l 68 560 l 40 538 l 22 560 l 163 685 l 279 584 l 232 543 l 232 144 l 294 95 l 391 184 l 391 543 l 342 584 l 455 685 l 572 584 l 526 543 l 526 176 q 533 121 526 134 q 564 99 545 99 q 594 113 575 99 z "},"":{"ha":705,"x_min":-14,"x_max":705,"o":"m 705 159 l 565 -18 q 297 50 433 50 q 73 8 198 50 q 6 -18 43 -2 l -14 7 q 155 247 81 97 q 234 395 210 354 l 54 395 l 75 443 l 258 443 q 298 515 278 479 l 106 515 l 129 564 l 328 564 q 448 714 389 648 q 595 868 460 731 q 488 825 529 840 q 301 790 388 790 q 124 829 208 790 l 46 739 l 21 760 l 175 941 q 406 883 309 883 q 607 917 504 883 q 669 944 636 927 l 688 924 q 576 753 625 839 q 477 564 547 703 l 674 564 l 652 515 l 454 515 q 414 443 434 479 l 621 443 l 599 395 l 384 395 q 106 72 314 279 q 428 149 294 149 q 614 98 508 149 l 682 181 l 705 159 m 313 1028 l 458 1195 l 578 1195 l 530 1074 l 313 1028 z "},"":{"ha":385,"x_min":0,"x_max":371,"o":"m 0 558 l 170 685 l 232 634 q 307 590 286 590 q 327 593 315 590 l 338 578 l 161 391 q 193 394 180 394 q 298 363 253 394 q 351 301 332 340 q 371 220 371 262 q 317 93 371 150 q 192 3 283 56 q 112 -50 131 -31 q 90 -99 90 -72 q 102 -132 90 -118 q 138 -149 115 -149 q 168 -143 145 -149 q 184 -141 176 -141 q 208 -160 208 -141 q 161 -189 208 -189 q 81 -155 111 -189 q 58 -94 58 -129 q 87 -20 58 -58 q 140 31 98 -5 q 195 92 178 65 q 222 182 222 133 q 195 259 222 231 q 122 292 165 292 q 35 264 84 292 l 18 279 l 211 484 l 85 585 l 18 535 l 0 558 m 60 795 l 205 962 l 326 962 l 277 841 l 60 795 z "},"":{"ha":705,"x_min":-14,"x_max":705,"o":"m 705 159 l 565 -18 q 297 50 433 50 q 73 8 198 50 q 6 -18 43 -2 l -14 7 q 155 247 81 97 q 234 395 210 354 l 54 395 l 75 443 l 258 443 q 298 515 278 479 l 106 515 l 129 564 l 328 564 q 448 714 389 648 q 595 868 460 731 q 488 825 529 840 q 301 790 388 790 q 124 829 208 790 l 46 739 l 21 760 l 175 941 q 406 883 309 883 q 607 917 504 883 q 669 944 636 927 l 688 924 q 576 753 625 839 q 477 564 547 703 l 674 564 l 652 515 l 454 515 q 414 443 434 479 l 621 443 l 599 395 l 384 395 q 106 72 314 279 q 428 149 294 149 q 614 98 508 149 l 682 181 l 705 159 m 330 1093 l 418 1181 l 506 1093 l 418 1004 l 330 1093 z "},"":{"ha":385,"x_min":0,"x_max":371,"o":"m 0 558 l 170 685 l 232 634 q 307 590 286 590 q 327 593 315 590 l 338 578 l 161 391 q 193 394 180 394 q 298 363 253 394 q 351 301 332 340 q 371 220 371 262 q 317 93 371 150 q 192 3 283 56 q 112 -50 131 -31 q 90 -99 90 -72 q 102 -132 90 -118 q 138 -149 115 -149 q 168 -143 145 -149 q 184 -141 176 -141 q 208 -160 208 -141 q 161 -189 208 -189 q 81 -155 111 -189 q 58 -94 58 -129 q 87 -20 58 -58 q 140 31 98 -5 q 195 92 178 65 q 222 182 222 133 q 195 259 222 231 q 122 292 165 292 q 35 264 84 292 l 18 279 l 211 484 l 85 585 l 18 535 l 0 558 m 106 878 l 193 964 l 279 878 l 193 790 l 106 878 z "}}}
